%TF.GenerationSoftware,KiCad,Pcbnew,(6.0.9)*%
%TF.CreationDate,2022-12-05T20:20:54+01:00*%
%TF.ProjectId,projekt,70726f6a-656b-4742-9e6b-696361645f70,rev?*%
%TF.SameCoordinates,Original*%
%TF.FileFunction,Copper,L1,Top*%
%TF.FilePolarity,Positive*%
%FSLAX46Y46*%
G04 Gerber Fmt 4.6, Leading zero omitted, Abs format (unit mm)*
G04 Created by KiCad (PCBNEW (6.0.9)) date 2022-12-05 20:20:54*
%MOMM*%
%LPD*%
G01*
G04 APERTURE LIST*
G04 Aperture macros list*
%AMRoundRect*
0 Rectangle with rounded corners*
0 $1 Rounding radius*
0 $2 $3 $4 $5 $6 $7 $8 $9 X,Y pos of 4 corners*
0 Add a 4 corners polygon primitive as box body*
4,1,4,$2,$3,$4,$5,$6,$7,$8,$9,$2,$3,0*
0 Add four circle primitives for the rounded corners*
1,1,$1+$1,$2,$3*
1,1,$1+$1,$4,$5*
1,1,$1+$1,$6,$7*
1,1,$1+$1,$8,$9*
0 Add four rect primitives between the rounded corners*
20,1,$1+$1,$2,$3,$4,$5,0*
20,1,$1+$1,$4,$5,$6,$7,0*
20,1,$1+$1,$6,$7,$8,$9,0*
20,1,$1+$1,$8,$9,$2,$3,0*%
G04 Aperture macros list end*
%TA.AperFunction,SMDPad,CuDef*%
%ADD10RoundRect,0.250000X0.450000X-0.262500X0.450000X0.262500X-0.450000X0.262500X-0.450000X-0.262500X0*%
%TD*%
%TA.AperFunction,SMDPad,CuDef*%
%ADD11RoundRect,0.250000X-0.262500X-0.450000X0.262500X-0.450000X0.262500X0.450000X-0.262500X0.450000X0*%
%TD*%
%TA.AperFunction,SMDPad,CuDef*%
%ADD12RoundRect,0.250000X-0.450000X0.262500X-0.450000X-0.262500X0.450000X-0.262500X0.450000X0.262500X0*%
%TD*%
%TA.AperFunction,SMDPad,CuDef*%
%ADD13RoundRect,0.150000X-0.587500X-0.150000X0.587500X-0.150000X0.587500X0.150000X-0.587500X0.150000X0*%
%TD*%
%TA.AperFunction,SMDPad,CuDef*%
%ADD14RoundRect,0.150000X0.150000X-0.587500X0.150000X0.587500X-0.150000X0.587500X-0.150000X-0.587500X0*%
%TD*%
%TA.AperFunction,SMDPad,CuDef*%
%ADD15RoundRect,0.250000X0.262500X0.450000X-0.262500X0.450000X-0.262500X-0.450000X0.262500X-0.450000X0*%
%TD*%
%TA.AperFunction,SMDPad,CuDef*%
%ADD16RoundRect,0.150000X0.587500X0.150000X-0.587500X0.150000X-0.587500X-0.150000X0.587500X-0.150000X0*%
%TD*%
%TA.AperFunction,SMDPad,CuDef*%
%ADD17RoundRect,0.150000X-0.150000X0.587500X-0.150000X-0.587500X0.150000X-0.587500X0.150000X0.587500X0*%
%TD*%
%TA.AperFunction,ComponentPad*%
%ADD18R,1.700000X1.700000*%
%TD*%
%TA.AperFunction,ComponentPad*%
%ADD19O,1.700000X1.700000*%
%TD*%
%TA.AperFunction,SMDPad,CuDef*%
%ADD20RoundRect,0.250000X-0.475000X0.250000X-0.475000X-0.250000X0.475000X-0.250000X0.475000X0.250000X0*%
%TD*%
%TA.AperFunction,SMDPad,CuDef*%
%ADD21RoundRect,0.250000X0.475000X-0.250000X0.475000X0.250000X-0.475000X0.250000X-0.475000X-0.250000X0*%
%TD*%
%TA.AperFunction,ComponentPad*%
%ADD22R,1.600000X1.600000*%
%TD*%
%TA.AperFunction,ComponentPad*%
%ADD23O,1.600000X1.600000*%
%TD*%
%TA.AperFunction,ComponentPad*%
%ADD24RoundRect,0.250000X0.350000X0.650000X-0.350000X0.650000X-0.350000X-0.650000X0.350000X-0.650000X0*%
%TD*%
%TA.AperFunction,ComponentPad*%
%ADD25O,1.200000X1.800000*%
%TD*%
%TA.AperFunction,ComponentPad*%
%ADD26RoundRect,0.250001X-0.499999X0.499999X-0.499999X-0.499999X0.499999X-0.499999X0.499999X0.499999X0*%
%TD*%
%TA.AperFunction,ComponentPad*%
%ADD27C,1.500000*%
%TD*%
%TA.AperFunction,ComponentPad*%
%ADD28RoundRect,0.250001X-0.499999X-0.499999X0.499999X-0.499999X0.499999X0.499999X-0.499999X0.499999X0*%
%TD*%
%TA.AperFunction,ViaPad*%
%ADD29C,0.800000*%
%TD*%
%TA.AperFunction,Conductor*%
%ADD30C,0.250000*%
%TD*%
G04 APERTURE END LIST*
D10*
%TO.P,R4,1*%
%TO.N,S1.4*%
X111887000Y-79601700D03*
%TO.P,R4,2*%
%TO.N,GND*%
X111887000Y-77776700D03*
%TD*%
D11*
%TO.P,R15,1*%
%TO.N,VDD*%
X140794100Y-86410800D03*
%TO.P,R15,2*%
%TO.N,Net-(R15-Pad2)*%
X142619100Y-86410800D03*
%TD*%
%TO.P,R17,1*%
%TO.N,D0*%
X100763700Y-48539400D03*
%TO.P,R17,2*%
%TO.N,Net-(J4-Pad1)*%
X102588700Y-48539400D03*
%TD*%
%TO.P,R23,1*%
%TO.N,D6*%
X100941500Y-66522600D03*
%TO.P,R23,2*%
%TO.N,Net-(J4-Pad7)*%
X102766500Y-66522600D03*
%TD*%
D12*
%TO.P,R37,1*%
%TO.N,Net-(R37-Pad1)*%
X31851600Y-47245900D03*
%TO.P,R37,2*%
%TO.N,unconnected-(R37-Pad2)*%
X31851600Y-49070900D03*
%TD*%
D11*
%TO.P,R14,1*%
%TO.N,VDD*%
X140895700Y-91541600D03*
%TO.P,R14,2*%
%TO.N,Net-(R14-Pad2)*%
X142720700Y-91541600D03*
%TD*%
%TO.P,R22,1*%
%TO.N,D5*%
X100890700Y-63550800D03*
%TO.P,R22,2*%
%TO.N,Net-(J4-Pad6)*%
X102715700Y-63550800D03*
%TD*%
D12*
%TO.P,R28,1*%
%TO.N,+5V*%
X158978600Y-61952500D03*
%TO.P,R28,2*%
%TO.N,Net-(R28-Pad2)*%
X158978600Y-63777500D03*
%TD*%
D11*
%TO.P,R20,1*%
%TO.N,D3*%
X100839900Y-57556400D03*
%TO.P,R20,2*%
%TO.N,Net-(J4-Pad4)*%
X102664900Y-57556400D03*
%TD*%
D12*
%TO.P,R45,1*%
%TO.N,PLC4*%
X58394600Y-39092500D03*
%TO.P,R45,2*%
%TO.N,+5V*%
X58394600Y-40917500D03*
%TD*%
D13*
%TO.P,D7,1*%
%TO.N,GND*%
X150725900Y-35397400D03*
%TO.P,D7,2*%
%TO.N,+3.3V*%
X150725900Y-37297400D03*
%TO.P,D7,3*%
%TO.N,D0*%
X152600900Y-36347400D03*
%TD*%
D12*
%TO.P,R35,1*%
%TO.N,Net-(R35-Pad1)*%
X41986200Y-47347500D03*
%TO.P,R35,2*%
%TO.N,czujnik optyczny*%
X41986200Y-49172500D03*
%TD*%
%TO.P,R12,1*%
%TO.N,unconnected-(R12-Pad1)*%
X31826200Y-32361500D03*
%TO.P,R12,2*%
%TO.N,Net-(R12-Pad2)*%
X31826200Y-34186500D03*
%TD*%
D14*
%TO.P,D10,1*%
%TO.N,GND*%
X136387800Y-54201300D03*
%TO.P,D10,2*%
%TO.N,+5V*%
X138287800Y-54201300D03*
%TO.P,D10,3*%
%TO.N,Net-(D10-Pad3)*%
X137337800Y-52326300D03*
%TD*%
D15*
%TO.P,R30,1*%
%TO.N,+5V*%
X159129100Y-96672400D03*
%TO.P,R30,2*%
%TO.N,PLC3*%
X157304100Y-96672400D03*
%TD*%
D12*
%TO.P,R7,1*%
%TO.N,S2.3*%
X120573800Y-90451300D03*
%TO.P,R7,2*%
%TO.N,GND*%
X120573800Y-92276300D03*
%TD*%
D15*
%TO.P,R46,1*%
%TO.N,Net-(R46-Pad1)*%
X142542900Y-63804800D03*
%TO.P,R46,2*%
%TO.N,VDD*%
X140717900Y-63804800D03*
%TD*%
D16*
%TO.P,D11,1*%
%TO.N,GND*%
X128597900Y-57007800D03*
%TO.P,D11,2*%
%TO.N,+3.3V*%
X128597900Y-55107800D03*
%TO.P,D11,3*%
%TO.N,HSYNC*%
X126722900Y-56057800D03*
%TD*%
D11*
%TO.P,R11,1*%
%TO.N,VDD*%
X140692500Y-77495400D03*
%TO.P,R11,2*%
%TO.N,Net-(J1-Pad4)*%
X142517500Y-77495400D03*
%TD*%
D17*
%TO.P,D12,1*%
%TO.N,+5V*%
X50632400Y-96623900D03*
%TO.P,D12,2*%
%TO.N,GND*%
X48732400Y-96623900D03*
%TO.P,D12,3*%
%TO.N,Net-(D12-Pad3)*%
X49682400Y-98498900D03*
%TD*%
D15*
%TO.P,R9,1*%
%TO.N,VDD*%
X164894900Y-63017400D03*
%TO.P,R9,2*%
%TO.N,Net-(J1-Pad1)*%
X163069900Y-63017400D03*
%TD*%
D11*
%TO.P,R18,1*%
%TO.N,D1*%
X100763700Y-51536600D03*
%TO.P,R18,2*%
%TO.N,Net-(J4-Pad2)*%
X102588700Y-51536600D03*
%TD*%
D17*
%TO.P,D8,1*%
%TO.N,GND*%
X136408200Y-59108100D03*
%TO.P,D8,2*%
%TO.N,+3.3V*%
X134508200Y-59108100D03*
%TO.P,D8,3*%
%TO.N,D7*%
X135458200Y-60983100D03*
%TD*%
D12*
%TO.P,R5,1*%
%TO.N,S2.1*%
X116840000Y-90425900D03*
%TO.P,R5,2*%
%TO.N,GND*%
X116840000Y-92250900D03*
%TD*%
D17*
%TO.P,D16,1*%
%TO.N,GND*%
X85481200Y-92534500D03*
%TO.P,D16,2*%
%TO.N,+3.3V*%
X83581200Y-92534500D03*
%TO.P,D16,3*%
%TO.N,SDA*%
X84531200Y-94409500D03*
%TD*%
D11*
%TO.P,R13,1*%
%TO.N,VDD*%
X140971900Y-96647000D03*
%TO.P,R13,2*%
%TO.N,Net-(R13-Pad2)*%
X142796900Y-96647000D03*
%TD*%
D16*
%TO.P,D1,1*%
%TO.N,GND*%
X102994700Y-77759600D03*
%TO.P,D1,2*%
%TO.N,+3.3V*%
X102994700Y-75859600D03*
%TO.P,D1,3*%
%TO.N,D3*%
X101119700Y-76809600D03*
%TD*%
D11*
%TO.P,R44,1*%
%TO.N,PLC1*%
X146026500Y-47193200D03*
%TO.P,R44,2*%
%TO.N,+5V*%
X147851500Y-47193200D03*
%TD*%
D15*
%TO.P,R27,1*%
%TO.N,VDD*%
X164894900Y-58648600D03*
%TO.P,R27,2*%
%TO.N,Net-(R27-Pad2)*%
X163069900Y-58648600D03*
%TD*%
D11*
%TO.P,R53,1*%
%TO.N,Net-(J2-Pad3)*%
X36831900Y-22199600D03*
%TO.P,R53,2*%
%TO.N,VDD*%
X38656900Y-22199600D03*
%TD*%
D12*
%TO.P,R49,1*%
%TO.N,Net-(D12-Pad3)*%
X43256200Y-88038300D03*
%TO.P,R49,2*%
%TO.N,UART*%
X43256200Y-89863300D03*
%TD*%
D10*
%TO.P,R29,1*%
%TO.N,+5V*%
X158978600Y-59154700D03*
%TO.P,R29,2*%
%TO.N,Net-(R29-Pad2)*%
X158978600Y-57329700D03*
%TD*%
D15*
%TO.P,R47,1*%
%TO.N,GNDPWR*%
X142542900Y-71424800D03*
%TO.P,R47,2*%
%TO.N,VDD*%
X140717900Y-71424800D03*
%TD*%
D18*
%TO.P,P2,1,Pin_1*%
%TO.N,+3.3V*%
X58716000Y-83150000D03*
D19*
%TO.P,P2,2,Pin_2*%
X58716000Y-85690000D03*
%TO.P,P2,3,Pin_3*%
%TO.N,unconnected-(P2-Pad3)*%
X61256000Y-83150000D03*
%TO.P,P2,4,Pin_4*%
%TO.N,unconnected-(P2-Pad4)*%
X61256000Y-85690000D03*
%TO.P,P2,5,Pin_5*%
%TO.N,unconnected-(P2-Pad5)*%
X63796000Y-83150000D03*
%TO.P,P2,6,Pin_6*%
%TO.N,unconnected-(P2-Pad6)*%
X63796000Y-85690000D03*
%TO.P,P2,7,Pin_7*%
%TO.N,unconnected-(P2-Pad7)*%
X66336000Y-83150000D03*
%TO.P,P2,8,Pin_8*%
%TO.N,unconnected-(P2-Pad8)*%
X66336000Y-85690000D03*
%TO.P,P2,9,Pin_9*%
%TO.N,unconnected-(P2-Pad9)*%
X68876000Y-83150000D03*
%TO.P,P2,10,Pin_10*%
%TO.N,unconnected-(P2-Pad10)*%
X68876000Y-85690000D03*
%TO.P,P2,11,Pin_11*%
%TO.N,GND*%
X71416000Y-83150000D03*
%TO.P,P2,12,Pin_12*%
%TO.N,unconnected-(P2-Pad12)*%
X71416000Y-85690000D03*
%TO.P,P2,13,Pin_13*%
%TO.N,unconnected-(P2-Pad13)*%
X73956000Y-83150000D03*
%TO.P,P2,14,Pin_14*%
%TO.N,unconnected-(P2-Pad14)*%
X73956000Y-85690000D03*
%TO.P,P2,15,Pin_15*%
%TO.N,unconnected-(P2-Pad15)*%
X76496000Y-83150000D03*
%TO.P,P2,16,Pin_16*%
%TO.N,unconnected-(P2-Pad16)*%
X76496000Y-85690000D03*
%TO.P,P2,17,Pin_17*%
%TO.N,unconnected-(P2-Pad17)*%
X79036000Y-83150000D03*
%TO.P,P2,18,Pin_18*%
%TO.N,unconnected-(P2-Pad18)*%
X79036000Y-85690000D03*
%TO.P,P2,19,Pin_19*%
%TO.N,unconnected-(P2-Pad19)*%
X81576000Y-83150000D03*
%TO.P,P2,20,Pin_20*%
%TO.N,unconnected-(P2-Pad20)*%
X81576000Y-85690000D03*
%TO.P,P2,21,Pin_21*%
%TO.N,unconnected-(P2-Pad21)*%
X84116000Y-83150000D03*
%TO.P,P2,22,Pin_22*%
%TO.N,HSYNC*%
X84116000Y-85690000D03*
%TO.P,P2,23,Pin_23*%
%TO.N,unconnected-(P2-Pad23)*%
X86656000Y-83150000D03*
%TO.P,P2,24,Pin_24*%
%TO.N,PCLK*%
X86656000Y-85690000D03*
%TO.P,P2,25,Pin_25*%
%TO.N,unconnected-(P2-Pad25)*%
X89196000Y-83150000D03*
%TO.P,P2,26,Pin_26*%
%TO.N,unconnected-(P2-Pad26)*%
X89196000Y-85690000D03*
%TO.P,P2,27,Pin_27*%
%TO.N,unconnected-(P2-Pad27)*%
X91736000Y-83150000D03*
%TO.P,P2,28,Pin_28*%
%TO.N,unconnected-(P2-Pad28)*%
X91736000Y-85690000D03*
%TO.P,P2,29,Pin_29*%
%TO.N,GND*%
X94276000Y-83150000D03*
%TO.P,P2,30,Pin_30*%
%TO.N,unconnected-(P2-Pad30)*%
X94276000Y-85690000D03*
%TO.P,P2,31,Pin_31*%
%TO.N,unconnected-(P2-Pad31)*%
X96816000Y-83150000D03*
%TO.P,P2,32,Pin_32*%
%TO.N,unconnected-(P2-Pad32)*%
X96816000Y-85690000D03*
%TO.P,P2,33,Pin_33*%
%TO.N,unconnected-(P2-Pad33)*%
X99356000Y-83150000D03*
%TO.P,P2,34,Pin_34*%
%TO.N,unconnected-(P2-Pad34)*%
X99356000Y-85690000D03*
%TO.P,P2,35,Pin_35*%
%TO.N,unconnected-(P2-Pad35)*%
X101896000Y-83150000D03*
%TO.P,P2,36,Pin_36*%
%TO.N,unconnected-(P2-Pad36)*%
X101896000Y-85690000D03*
%TO.P,P2,37,Pin_37*%
%TO.N,unconnected-(P2-Pad37)*%
X104436000Y-83150000D03*
%TO.P,P2,38,Pin_38*%
%TO.N,unconnected-(P2-Pad38)*%
X104436000Y-85690000D03*
%TO.P,P2,39,Pin_39*%
%TO.N,S1.2*%
X106976000Y-83150000D03*
%TO.P,P2,40,Pin_40*%
%TO.N,S1.1*%
X106976000Y-85690000D03*
%TO.P,P2,41,Pin_41*%
%TO.N,S1.4*%
X109516000Y-83150000D03*
%TO.P,P2,42,Pin_42*%
%TO.N,S1.3*%
X109516000Y-85690000D03*
%TO.P,P2,43,Pin_43*%
%TO.N,S2.2*%
X112056000Y-83150000D03*
%TO.P,P2,44,Pin_44*%
%TO.N,S2.1*%
X112056000Y-85690000D03*
%TO.P,P2,45,Pin_45*%
%TO.N,S2.4*%
X114596000Y-83150000D03*
%TO.P,P2,46,Pin_46*%
%TO.N,S2.3*%
X114596000Y-85690000D03*
%TO.P,P2,47,Pin_47*%
%TO.N,unconnected-(P2-Pad47)*%
X117136000Y-83150000D03*
%TO.P,P2,48,Pin_48*%
%TO.N,unconnected-(P2-Pad48)*%
X117136000Y-85690000D03*
%TO.P,P2,49,Pin_49*%
%TO.N,unconnected-(P2-Pad49)*%
X119676000Y-83150000D03*
%TO.P,P2,50,Pin_50*%
%TO.N,unconnected-(P2-Pad50)*%
X119676000Y-85690000D03*
%TO.P,P2,51,Pin_51*%
%TO.N,unconnected-(P2-Pad51)*%
X122216000Y-83150000D03*
%TO.P,P2,52,Pin_52*%
%TO.N,unconnected-(P2-Pad52)*%
X122216000Y-85690000D03*
%TO.P,P2,53,Pin_53*%
%TO.N,unconnected-(P2-Pad53)*%
X124756000Y-83150000D03*
%TO.P,P2,54,Pin_54*%
%TO.N,unconnected-(P2-Pad54)*%
X124756000Y-85690000D03*
%TO.P,P2,55,Pin_55*%
%TO.N,unconnected-(P2-Pad55)*%
X127296000Y-83150000D03*
%TO.P,P2,56,Pin_56*%
%TO.N,unconnected-(P2-Pad56)*%
X127296000Y-85690000D03*
%TO.P,P2,57,Pin_57*%
%TO.N,unconnected-(P2-Pad57)*%
X129836000Y-83150000D03*
%TO.P,P2,58,Pin_58*%
%TO.N,unconnected-(P2-Pad58)*%
X129836000Y-85690000D03*
%TO.P,P2,59,Pin_59*%
%TO.N,unconnected-(P2-Pad59)*%
X132376000Y-83150000D03*
%TO.P,P2,60,Pin_60*%
%TO.N,unconnected-(P2-Pad60)*%
X132376000Y-85690000D03*
%TO.P,P2,61,Pin_61*%
%TO.N,uCOpt*%
X134916000Y-83150000D03*
%TO.P,P2,62,Pin_62*%
%TO.N,czujnik indukcyjny*%
X134916000Y-85690000D03*
%TO.P,P2,63,Pin_63*%
%TO.N,GND*%
X137456000Y-83150000D03*
%TO.P,P2,64,Pin_64*%
X137456000Y-85690000D03*
%TD*%
D10*
%TO.P,R32,1*%
%TO.N,PLC2*%
X63804800Y-28446100D03*
%TO.P,R32,2*%
%TO.N,+5V*%
X63804800Y-26621100D03*
%TD*%
D12*
%TO.P,R33,1*%
%TO.N,PLC5*%
X62738000Y-39117900D03*
%TO.P,R33,2*%
%TO.N,+5V*%
X62738000Y-40942900D03*
%TD*%
D10*
%TO.P,R51,1*%
%TO.N,+5V*%
X39344600Y-34186500D03*
%TO.P,R51,2*%
%TO.N,Net-(J2-Pad6)*%
X39344600Y-32361500D03*
%TD*%
D20*
%TO.P,C4,1*%
%TO.N,GND*%
X56032400Y-49875400D03*
%TO.P,C4,2*%
%TO.N,+5V*%
X56032400Y-51775400D03*
%TD*%
D10*
%TO.P,R8,1*%
%TO.N,S2.4*%
X119634000Y-79627100D03*
%TO.P,R8,2*%
%TO.N,GND*%
X119634000Y-77802100D03*
%TD*%
D14*
%TO.P,D3,1*%
%TO.N,GND*%
X94350800Y-63446900D03*
%TO.P,D3,2*%
%TO.N,+3.3V*%
X96250800Y-63446900D03*
%TO.P,D3,3*%
%TO.N,D2*%
X95300800Y-61571900D03*
%TD*%
D11*
%TO.P,R41,1*%
%TO.N,Net-(J4-Pad12)*%
X119737500Y-54533800D03*
%TO.P,R41,2*%
%TO.N,PCLK*%
X121562500Y-54533800D03*
%TD*%
D21*
%TO.P,C1,1*%
%TO.N,+5V*%
X45466000Y-51775400D03*
%TO.P,C1,2*%
%TO.N,GND*%
X45466000Y-49875400D03*
%TD*%
D15*
%TO.P,R25,1*%
%TO.N,+5V*%
X41374700Y-57810400D03*
%TO.P,R25,2*%
%TO.N,PG9*%
X39549700Y-57810400D03*
%TD*%
D11*
%TO.P,R24,1*%
%TO.N,D7*%
X100941500Y-69545200D03*
%TO.P,R24,2*%
%TO.N,Net-(J4-Pad8)*%
X102766500Y-69545200D03*
%TD*%
D10*
%TO.P,R2,1*%
%TO.N,S1.2*%
X107899200Y-79576300D03*
%TO.P,R2,2*%
%TO.N,GND*%
X107899200Y-77751300D03*
%TD*%
D12*
%TO.P,R34,1*%
%TO.N,Net-(R34-Pad1)*%
X51409600Y-44756700D03*
%TO.P,R34,2*%
%TO.N,czujnik optyczny*%
X51409600Y-46581700D03*
%TD*%
D11*
%TO.P,R50,1*%
%TO.N,+12V*%
X47322100Y-26111200D03*
%TO.P,R50,2*%
%TO.N,Net-(J2-Pad7)*%
X49147100Y-26111200D03*
%TD*%
D20*
%TO.P,C2,1*%
%TO.N,GND*%
X48895000Y-49850000D03*
%TO.P,C2,2*%
%TO.N,+12V*%
X48895000Y-51750000D03*
%TD*%
D15*
%TO.P,R38,1*%
%TO.N,Net-(J5-Pad5)*%
X77925300Y-66116200D03*
%TO.P,R38,2*%
%TO.N,Net-(D10-Pad3)*%
X76100300Y-66116200D03*
%TD*%
D12*
%TO.P,R1,1*%
%TO.N,S1.1*%
X107950000Y-90400500D03*
%TO.P,R1,2*%
%TO.N,GND*%
X107950000Y-92225500D03*
%TD*%
%TO.P,R3,1*%
%TO.N,S1.3*%
X112699800Y-90425900D03*
%TO.P,R3,2*%
%TO.N,GND*%
X112699800Y-92250900D03*
%TD*%
D11*
%TO.P,R21,1*%
%TO.N,D4*%
X100865300Y-60528200D03*
%TO.P,R21,2*%
%TO.N,Net-(J4-Pad5)*%
X102690300Y-60528200D03*
%TD*%
D12*
%TO.P,R36,1*%
%TO.N,Net-(R36-Pad1)*%
X36906200Y-47296700D03*
%TO.P,R36,2*%
%TO.N,reserved*%
X36906200Y-49121700D03*
%TD*%
D10*
%TO.P,R6,1*%
%TO.N,S2.2*%
X115798600Y-79627100D03*
%TO.P,R6,2*%
%TO.N,GND*%
X115798600Y-77802100D03*
%TD*%
D17*
%TO.P,D15,1*%
%TO.N,GND*%
X60614600Y-92382100D03*
%TO.P,D15,2*%
%TO.N,+3.3V*%
X58714600Y-92382100D03*
%TO.P,D15,3*%
%TO.N,SCL*%
X59664600Y-94257100D03*
%TD*%
D11*
%TO.P,R16,1*%
%TO.N,VDD*%
X140794100Y-81381600D03*
%TO.P,R16,2*%
%TO.N,Net-(R16-Pad2)*%
X142619100Y-81381600D03*
%TD*%
D16*
%TO.P,D4,1*%
%TO.N,GND*%
X71422500Y-78191400D03*
%TO.P,D4,2*%
%TO.N,+3.3V*%
X71422500Y-76291400D03*
%TO.P,D4,3*%
%TO.N,D5*%
X69547500Y-77241400D03*
%TD*%
D14*
%TO.P,D2,1*%
%TO.N,GND*%
X94274600Y-75842100D03*
%TO.P,D2,2*%
%TO.N,+3.3V*%
X96174600Y-75842100D03*
%TO.P,D2,3*%
%TO.N,D4*%
X95224600Y-73967100D03*
%TD*%
D11*
%TO.P,R39,1*%
%TO.N,Net-(J4-Pad10)*%
X119712100Y-48514000D03*
%TO.P,R39,2*%
%TO.N,VSYNC*%
X121537100Y-48514000D03*
%TD*%
D12*
%TO.P,R48,1*%
%TO.N,+5V*%
X53467000Y-79834100D03*
%TO.P,R48,2*%
%TO.N,Net-(D12-Pad3)*%
X53467000Y-81659100D03*
%TD*%
D15*
%TO.P,R10,1*%
%TO.N,+5V*%
X136777100Y-76581000D03*
%TO.P,R10,2*%
%TO.N,uCOpt*%
X134952100Y-76581000D03*
%TD*%
D11*
%TO.P,R19,1*%
%TO.N,D2*%
X100789100Y-54533800D03*
%TO.P,R19,2*%
%TO.N,Net-(J4-Pad3)*%
X102614100Y-54533800D03*
%TD*%
%TO.P,R52,1*%
%TO.N,Net-(P1-Pad27)*%
X26496000Y-28778200D03*
%TO.P,R52,2*%
%TO.N,Net-(J2-Pad2)*%
X28321000Y-28778200D03*
%TD*%
D18*
%TO.P,J2,1,Pin_1*%
%TO.N,GND*%
X34300000Y-26269000D03*
D19*
%TO.P,J2,2,Pin_2*%
%TO.N,Net-(J2-Pad2)*%
X34300000Y-28809000D03*
%TO.P,J2,3,Pin_3*%
%TO.N,Net-(J2-Pad3)*%
X36840000Y-26269000D03*
%TO.P,J2,4,Pin_4*%
%TO.N,GNDPWR*%
X36840000Y-28809000D03*
%TO.P,J2,5,Pin_5*%
%TO.N,GND*%
X39380000Y-26269000D03*
%TO.P,J2,6,Pin_6*%
%TO.N,Net-(J2-Pad6)*%
X39380000Y-28809000D03*
%TO.P,J2,7,Pin_7*%
%TO.N,Net-(J2-Pad7)*%
X41920000Y-26269000D03*
%TO.P,J2,8,Pin_8*%
%TO.N,GND*%
X41920000Y-28809000D03*
%TD*%
D11*
%TO.P,R43,1*%
%TO.N,Net-(J4-Pad14)*%
X119788300Y-60553600D03*
%TO.P,R43,2*%
%TO.N,SDA*%
X121613300Y-60553600D03*
%TD*%
D15*
%TO.P,R26,1*%
%TO.N,VDD*%
X164894900Y-53644800D03*
%TO.P,R26,2*%
%TO.N,Net-(R26-Pad2)*%
X163069900Y-53644800D03*
%TD*%
D11*
%TO.P,R40,1*%
%TO.N,Net-(J4-Pad11)*%
X119737500Y-51511200D03*
%TO.P,R40,2*%
%TO.N,HSYNC*%
X121562500Y-51511200D03*
%TD*%
D17*
%TO.P,D14,1*%
%TO.N,GND*%
X71460400Y-92483700D03*
%TO.P,D14,2*%
%TO.N,+3.3V*%
X69560400Y-92483700D03*
%TO.P,D14,3*%
%TO.N,PCLK*%
X70510400Y-94358700D03*
%TD*%
D16*
%TO.P,D9,1*%
%TO.N,GND*%
X128293100Y-49413200D03*
%TO.P,D9,2*%
%TO.N,+3.3V*%
X128293100Y-47513200D03*
%TO.P,D9,3*%
%TO.N,VSYNC*%
X126418100Y-48463200D03*
%TD*%
%TO.P,D13,1*%
%TO.N,GND*%
X39494700Y-98511400D03*
%TO.P,D13,2*%
%TO.N,+5V*%
X39494700Y-96611400D03*
%TO.P,D13,3*%
%TO.N,PWM*%
X37619700Y-97561400D03*
%TD*%
D18*
%TO.P,P1,1,Pin_1*%
%TO.N,+3.3V*%
X58715000Y-32344000D03*
D19*
%TO.P,P1,2,Pin_2*%
X58715000Y-34884000D03*
%TO.P,P1,3,Pin_3*%
%TO.N,PLC 1*%
X61255000Y-32344000D03*
%TO.P,P1,4,Pin_4*%
%TO.N,PLC4*%
X61255000Y-34884000D03*
%TO.P,P1,5,Pin_5*%
%TO.N,PLC2*%
X63795000Y-32344000D03*
%TO.P,P1,6,Pin_6*%
%TO.N,PLC5*%
X63795000Y-34884000D03*
%TO.P,P1,7,Pin_7*%
%TO.N,PLC3*%
X66335000Y-32344000D03*
%TO.P,P1,8,Pin_8*%
%TO.N,PLC6*%
X66335000Y-34884000D03*
%TO.P,P1,9,Pin_9*%
%TO.N,unconnected-(P1-Pad9)*%
X68875000Y-32344000D03*
%TO.P,P1,10,Pin_10*%
%TO.N,unconnected-(P1-Pad10)*%
X68875000Y-34884000D03*
%TO.P,P1,11,Pin_11*%
%TO.N,D7*%
X71415000Y-32344000D03*
%TO.P,P1,12,Pin_12*%
%TO.N,unconnected-(P1-Pad12)*%
X71415000Y-34884000D03*
%TO.P,P1,13,Pin_13*%
%TO.N,unconnected-(P1-Pad13)*%
X73955000Y-32344000D03*
%TO.P,P1,14,Pin_14*%
%TO.N,D6*%
X73955000Y-34884000D03*
%TO.P,P1,15,Pin_15*%
%TO.N,unconnected-(P1-Pad15)*%
X76495000Y-32344000D03*
%TO.P,P1,16,Pin_16*%
%TO.N,unconnected-(P1-Pad16)*%
X76495000Y-34884000D03*
%TO.P,P1,17,Pin_17*%
%TO.N,D2*%
X79035000Y-32344000D03*
%TO.P,P1,18,Pin_18*%
%TO.N,D3*%
X79035000Y-34884000D03*
%TO.P,P1,19,Pin_19*%
%TO.N,SCL*%
X81575000Y-32344000D03*
%TO.P,P1,20,Pin_20*%
%TO.N,SDA*%
X81575000Y-34884000D03*
%TO.P,P1,21,Pin_21*%
%TO.N,unconnected-(P1-Pad21)*%
X84115000Y-32344000D03*
%TO.P,P1,22,Pin_22*%
%TO.N,unconnected-(P1-Pad22)*%
X84115000Y-34884000D03*
%TO.P,P1,23,Pin_23*%
%TO.N,unconnected-(P1-Pad23)*%
X86655000Y-32344000D03*
%TO.P,P1,24,Pin_24*%
%TO.N,unconnected-(P1-Pad24)*%
X86655000Y-34884000D03*
%TO.P,P1,25,Pin_25*%
%TO.N,unconnected-(P1-Pad25)*%
X89195000Y-32344000D03*
%TO.P,P1,26,Pin_26*%
%TO.N,unconnected-(P1-Pad26)*%
X89195000Y-34884000D03*
%TO.P,P1,27,Pin_27*%
%TO.N,Net-(P1-Pad27)*%
X91735000Y-32344000D03*
%TO.P,P1,28,Pin_28*%
%TO.N,unconnected-(P1-Pad28)*%
X91735000Y-34884000D03*
%TO.P,P1,29,Pin_29*%
%TO.N,unconnected-(P1-Pad29)*%
X94275000Y-32344000D03*
%TO.P,P1,30,Pin_30*%
%TO.N,PG14*%
X94275000Y-34884000D03*
%TO.P,P1,31,Pin_31*%
%TO.N,unconnected-(P1-Pad31)*%
X96815000Y-32344000D03*
%TO.P,P1,32,Pin_32*%
%TO.N,unconnected-(P1-Pad32)*%
X96815000Y-34884000D03*
%TO.P,P1,33,Pin_33*%
%TO.N,unconnected-(P1-Pad33)*%
X99355000Y-32344000D03*
%TO.P,P1,34,Pin_34*%
%TO.N,unconnected-(P1-Pad34)*%
X99355000Y-34884000D03*
%TO.P,P1,35,Pin_35*%
%TO.N,unconnected-(P1-Pad35)*%
X101895000Y-32344000D03*
%TO.P,P1,36,Pin_36*%
%TO.N,unconnected-(P1-Pad36)*%
X101895000Y-34884000D03*
%TO.P,P1,37,Pin_37*%
%TO.N,unconnected-(P1-Pad37)*%
X104435000Y-32344000D03*
%TO.P,P1,38,Pin_38*%
%TO.N,unconnected-(P1-Pad38)*%
X104435000Y-34884000D03*
%TO.P,P1,39,Pin_39*%
%TO.N,D5*%
X106975000Y-32344000D03*
%TO.P,P1,40,Pin_40*%
%TO.N,unconnected-(P1-Pad40)*%
X106975000Y-34884000D03*
%TO.P,P1,41,Pin_41*%
%TO.N,unconnected-(P1-Pad41)*%
X109515000Y-32344000D03*
%TO.P,P1,42,Pin_42*%
%TO.N,unconnected-(P1-Pad42)*%
X109515000Y-34884000D03*
%TO.P,P1,43,Pin_43*%
%TO.N,unconnected-(P1-Pad43)*%
X112055000Y-32344000D03*
%TO.P,P1,44,Pin_44*%
%TO.N,D4*%
X112055000Y-34884000D03*
%TO.P,P1,45,Pin_45*%
%TO.N,unconnected-(P1-Pad45)*%
X114595000Y-32344000D03*
%TO.P,P1,46,Pin_46*%
%TO.N,unconnected-(P1-Pad46)*%
X114595000Y-34884000D03*
%TO.P,P1,47,Pin_47*%
%TO.N,unconnected-(P1-Pad47)*%
X117135000Y-32344000D03*
%TO.P,P1,48,Pin_48*%
%TO.N,unconnected-(P1-Pad48)*%
X117135000Y-34884000D03*
%TO.P,P1,49,Pin_49*%
%TO.N,unconnected-(P1-Pad49)*%
X119675000Y-32344000D03*
%TO.P,P1,50,Pin_50*%
%TO.N,unconnected-(P1-Pad50)*%
X119675000Y-34884000D03*
%TO.P,P1,51,Pin_51*%
%TO.N,D1*%
X122215000Y-32344000D03*
%TO.P,P1,52,Pin_52*%
%TO.N,D0*%
X122215000Y-34884000D03*
%TO.P,P1,53,Pin_53*%
%TO.N,unconnected-(P1-Pad53)*%
X124755000Y-32344000D03*
%TO.P,P1,54,Pin_54*%
%TO.N,unconnected-(P1-Pad54)*%
X124755000Y-34884000D03*
%TO.P,P1,55,Pin_55*%
%TO.N,unconnected-(P1-Pad55)*%
X127295000Y-32344000D03*
%TO.P,P1,56,Pin_56*%
%TO.N,unconnected-(P1-Pad56)*%
X127295000Y-34884000D03*
%TO.P,P1,57,Pin_57*%
%TO.N,PWM*%
X129835000Y-32344000D03*
%TO.P,P1,58,Pin_58*%
%TO.N,unconnected-(P1-Pad58)*%
X129835000Y-34884000D03*
%TO.P,P1,59,Pin_59*%
%TO.N,reserved*%
X132375000Y-32344000D03*
%TO.P,P1,60,Pin_60*%
%TO.N,unconnected-(P1-Pad60)*%
X132375000Y-34884000D03*
%TO.P,P1,61,Pin_61*%
%TO.N,uCksztLSB*%
X134915000Y-32344000D03*
%TO.P,P1,62,Pin_62*%
%TO.N,uCksztMSB*%
X134915000Y-34884000D03*
%TO.P,P1,63,Pin_63*%
%TO.N,GND*%
X137455000Y-32344000D03*
%TO.P,P1,64,Pin_64*%
X137455000Y-34884000D03*
%TD*%
D16*
%TO.P,D5,1*%
%TO.N,GND*%
X65555100Y-78191400D03*
%TO.P,D5,2*%
%TO.N,+3.3V*%
X65555100Y-76291400D03*
%TO.P,D5,3*%
%TO.N,D1*%
X63680100Y-77241400D03*
%TD*%
D20*
%TO.P,C3,1*%
%TO.N,GND*%
X52324000Y-49875400D03*
%TO.P,C3,2*%
%TO.N,+12V*%
X52324000Y-51775400D03*
%TD*%
D13*
%TO.P,D6,1*%
%TO.N,GND*%
X143232900Y-35372000D03*
%TO.P,D6,2*%
%TO.N,+3.3V*%
X143232900Y-37272000D03*
%TO.P,D6,3*%
%TO.N,D6*%
X145107900Y-36322000D03*
%TD*%
D11*
%TO.P,R42,1*%
%TO.N,Net-(J4-Pad13)*%
X119737500Y-57531000D03*
%TO.P,R42,2*%
%TO.N,SCL*%
X121562500Y-57531000D03*
%TD*%
D12*
%TO.P,R31,1*%
%TO.N,PLC6*%
X66344800Y-39067100D03*
%TO.P,R31,2*%
%TO.N,+5V*%
X66344800Y-40892100D03*
%TD*%
D22*
%TO.P,U7,1,I1*%
%TO.N,S1.1*%
X74295000Y-39979600D03*
D23*
%TO.P,U7,2,I2*%
%TO.N,S1.2*%
X76835000Y-39979600D03*
%TO.P,U7,3,I3*%
%TO.N,S1.3*%
X79375000Y-39979600D03*
%TO.P,U7,4,I4*%
%TO.N,S1.4*%
X81915000Y-39979600D03*
%TO.P,U7,5,I5*%
%TO.N,S2.1*%
X84455000Y-39979600D03*
%TO.P,U7,6,I6*%
%TO.N,S2.2*%
X86995000Y-39979600D03*
%TO.P,U7,7,I7*%
%TO.N,S2.3*%
X89535000Y-39979600D03*
%TO.P,U7,8,I8*%
%TO.N,S2.4*%
X92075000Y-39979600D03*
%TO.P,U7,9,GND*%
%TO.N,GND*%
X94615000Y-39979600D03*
%TO.P,U7,10,COM*%
%TO.N,+12V*%
X94615000Y-47599600D03*
%TO.P,U7,11,O8*%
%TO.N,Net-(J5-Pad4)*%
X92075000Y-47599600D03*
%TO.P,U7,12,O7*%
%TO.N,Net-(J5-Pad3)*%
X89535000Y-47599600D03*
%TO.P,U7,13,O6*%
%TO.N,Net-(J5-Pad2)*%
X86995000Y-47599600D03*
%TO.P,U7,14,O5*%
%TO.N,Net-(J5-Pad1)*%
X84455000Y-47599600D03*
%TO.P,U7,15,O4*%
%TO.N,Net-(J5-Pad14)*%
X81915000Y-47599600D03*
%TO.P,U7,16,O3*%
%TO.N,Net-(J5-Pad13)*%
X79375000Y-47599600D03*
%TO.P,U7,17,O2*%
%TO.N,Net-(J5-Pad12)*%
X76835000Y-47599600D03*
%TO.P,U7,18,O1*%
%TO.N,Net-(J5-Pad11)*%
X74295000Y-47599600D03*
%TD*%
D22*
%TO.P,U1,1,1A*%
%TO.N,GND*%
X53101400Y-55417800D03*
D23*
%TO.P,U1,2,1Y*%
%TO.N,unconnected-(U1-Pad2)*%
X53101400Y-57957800D03*
%TO.P,U1,3,2A*%
%TO.N,GND*%
X53101400Y-60497800D03*
%TO.P,U1,4,2Y*%
%TO.N,unconnected-(U1-Pad4)*%
X53101400Y-63037800D03*
%TO.P,U1,5,3A*%
%TO.N,GND*%
X53101400Y-65577800D03*
%TO.P,U1,6,3Y*%
%TO.N,unconnected-(U1-Pad6)*%
X53101400Y-68117800D03*
%TO.P,U1,7,GND*%
%TO.N,GND*%
X53101400Y-70657800D03*
%TO.P,U1,8,4Y*%
%TO.N,unconnected-(U1-Pad8)*%
X45481400Y-70657800D03*
%TO.P,U1,9,4A*%
%TO.N,GND*%
X45481400Y-68117800D03*
%TO.P,U1,10,5Y*%
%TO.N,unconnected-(U1-Pad10)*%
X45481400Y-65577800D03*
%TO.P,U1,11,5A*%
%TO.N,GND*%
X45481400Y-63037800D03*
%TO.P,U1,12,6Y*%
%TO.N,Net-(U1-Pad12)*%
X45481400Y-60497800D03*
%TO.P,U1,13,6A*%
%TO.N,PG13*%
X45481400Y-57957800D03*
%TO.P,U1,14,VCC*%
%TO.N,+5V*%
X45481400Y-55417800D03*
%TD*%
D22*
%TO.P,U6,1,1A*%
%TO.N,Net-(R13-Pad2)*%
X146085400Y-96606600D03*
D23*
%TO.P,U6,2,1K*%
%TO.N,Net-(J1-Pad14)*%
X146085400Y-94066600D03*
%TO.P,U6,3,2A*%
%TO.N,Net-(R14-Pad2)*%
X146085400Y-91526600D03*
%TO.P,U6,4,2K*%
%TO.N,Net-(J1-Pad13)*%
X146085400Y-88986600D03*
%TO.P,U6,5,3A*%
%TO.N,Net-(R15-Pad2)*%
X146085400Y-86446600D03*
%TO.P,U6,6,3K*%
%TO.N,Net-(J1-Pad12)*%
X146085400Y-83906600D03*
%TO.P,U6,7,4A*%
%TO.N,Net-(R16-Pad2)*%
X146085400Y-81366600D03*
%TO.P,U6,8,4K*%
%TO.N,Net-(J1-Pad11)*%
X146085400Y-78826600D03*
%TO.P,U6,9,1E*%
%TO.N,GND*%
X153705400Y-78826600D03*
%TO.P,U6,10,1C*%
%TO.N,PLC5*%
X153705400Y-81366600D03*
%TO.P,U6,11,2E*%
%TO.N,GND*%
X153705400Y-83906600D03*
%TO.P,U6,12,2C*%
%TO.N,PLC2*%
X153705400Y-86446600D03*
%TO.P,U6,13,3E*%
%TO.N,GND*%
X153705400Y-88986600D03*
%TO.P,U6,14*%
%TO.N,N/C*%
X153705400Y-91526600D03*
%TO.P,U6,15,4E*%
%TO.N,GND*%
X153705400Y-94066600D03*
%TO.P,U6,16,4C*%
%TO.N,PLC3*%
X153705400Y-96606600D03*
%TD*%
D24*
%TO.P,J6,1,Pin_1*%
%TO.N,+12V*%
X70281800Y-65481200D03*
D25*
%TO.P,J6,2,Pin_2*%
%TO.N,+5V*%
X68281800Y-65481200D03*
%TO.P,J6,3,Pin_3*%
%TO.N,unconnected-(J6-Pad3)*%
X66281800Y-65481200D03*
%TO.P,J6,4,Pin_4*%
%TO.N,GND*%
X64281800Y-65481200D03*
%TD*%
D26*
%TO.P,J4,1,Pin_1*%
%TO.N,Net-(J4-Pad1)*%
X109880000Y-48534000D03*
D27*
%TO.P,J4,2,Pin_2*%
%TO.N,Net-(J4-Pad2)*%
X109880000Y-51534000D03*
%TO.P,J4,3,Pin_3*%
%TO.N,Net-(J4-Pad3)*%
X109880000Y-54534000D03*
%TO.P,J4,4,Pin_4*%
%TO.N,Net-(J4-Pad4)*%
X109880000Y-57534000D03*
%TO.P,J4,5,Pin_5*%
%TO.N,Net-(J4-Pad5)*%
X109880000Y-60534000D03*
%TO.P,J4,6,Pin_6*%
%TO.N,Net-(J4-Pad6)*%
X109880000Y-63534000D03*
%TO.P,J4,7,Pin_7*%
%TO.N,Net-(J4-Pad7)*%
X109880000Y-66534000D03*
%TO.P,J4,8,Pin_8*%
%TO.N,Net-(J4-Pad8)*%
X109880000Y-69534000D03*
%TO.P,J4,9,Pin_9*%
%TO.N,GND*%
X109880000Y-72534000D03*
%TO.P,J4,10,Pin_10*%
%TO.N,Net-(J4-Pad10)*%
X112880000Y-48534000D03*
%TO.P,J4,11,Pin_11*%
%TO.N,Net-(J4-Pad11)*%
X112880000Y-51534000D03*
%TO.P,J4,12,Pin_12*%
%TO.N,Net-(J4-Pad12)*%
X112880000Y-54534000D03*
%TO.P,J4,13,Pin_13*%
%TO.N,Net-(J4-Pad13)*%
X112880000Y-57534000D03*
%TO.P,J4,14,Pin_14*%
%TO.N,Net-(J4-Pad14)*%
X112880000Y-60534000D03*
%TO.P,J4,15,Pin_15*%
%TO.N,GND*%
X112880000Y-63534000D03*
%TO.P,J4,16,Pin_16*%
X112880000Y-66534000D03*
%TO.P,J4,17,Pin_17*%
X112880000Y-69534000D03*
%TO.P,J4,18,Pin_18*%
%TO.N,+3.3V*%
X112880000Y-72534000D03*
%TD*%
D26*
%TO.P,J5,1,Pin_1*%
%TO.N,Net-(J5-Pad1)*%
X83840000Y-54134000D03*
D27*
%TO.P,J5,2,Pin_2*%
%TO.N,Net-(J5-Pad2)*%
X83840000Y-57134000D03*
%TO.P,J5,3,Pin_3*%
%TO.N,Net-(J5-Pad3)*%
X83840000Y-60134000D03*
%TO.P,J5,4,Pin_4*%
%TO.N,Net-(J5-Pad4)*%
X83840000Y-63134000D03*
%TO.P,J5,5,Pin_5*%
%TO.N,Net-(J5-Pad5)*%
X83840000Y-66134000D03*
%TO.P,J5,6,Pin_6*%
%TO.N,unconnected-(J5-Pad6)*%
X83840000Y-69134000D03*
%TO.P,J5,7,Pin_7*%
%TO.N,GND*%
X83840000Y-72134000D03*
%TO.P,J5,8,Pin_8*%
%TO.N,+12V*%
X86840000Y-54134000D03*
%TO.P,J5,9,Pin_9*%
%TO.N,unconnected-(J5-Pad9)*%
X86840000Y-57134000D03*
%TO.P,J5,10,Pin_10*%
%TO.N,unconnected-(J5-Pad10)*%
X86840000Y-60134000D03*
%TO.P,J5,11,Pin_11*%
%TO.N,Net-(J5-Pad11)*%
X86840000Y-63134000D03*
%TO.P,J5,12,Pin_12*%
%TO.N,Net-(J5-Pad12)*%
X86840000Y-66134000D03*
%TO.P,J5,13,Pin_13*%
%TO.N,Net-(J5-Pad13)*%
X86840000Y-69134000D03*
%TO.P,J5,14,Pin_14*%
%TO.N,Net-(J5-Pad14)*%
X86840000Y-72134000D03*
%TD*%
D22*
%TO.P,U3,1,1A*%
%TO.N,Net-(R26-Pad2)*%
X153660000Y-53609000D03*
D23*
%TO.P,U3,2,1K*%
%TO.N,+5V*%
X153660000Y-56149000D03*
%TO.P,U3,3,2A*%
%TO.N,Net-(R27-Pad2)*%
X153660000Y-58689000D03*
%TO.P,U3,4,2K*%
%TO.N,Net-(J1-Pad10)*%
X153660000Y-61229000D03*
%TO.P,U3,5,3A*%
%TO.N,Net-(R28-Pad2)*%
X153660000Y-63769000D03*
%TO.P,U3,6,3K*%
%TO.N,uCksztLSB*%
X153660000Y-66309000D03*
%TO.P,U3,7,4A*%
%TO.N,Net-(R29-Pad2)*%
X153660000Y-68849000D03*
%TO.P,U3,8,4K*%
%TO.N,uCksztMSB*%
X153660000Y-71389000D03*
%TO.P,U3,9,1E*%
%TO.N,GNDPWR*%
X146040000Y-71389000D03*
%TO.P,U3,10,1C*%
X146040000Y-68849000D03*
%TO.P,U3,11,2E*%
X146040000Y-66309000D03*
%TO.P,U3,12,2C*%
%TO.N,Net-(R46-Pad1)*%
X146040000Y-63769000D03*
%TO.P,U3,13,3E*%
%TO.N,GND*%
X146040000Y-61229000D03*
%TO.P,U3,14*%
%TO.N,N/C*%
X146040000Y-58689000D03*
%TO.P,U3,15,4E*%
%TO.N,GND*%
X146040000Y-56149000D03*
%TO.P,U3,16,4C*%
%TO.N,PLC1*%
X146040000Y-53609000D03*
%TD*%
D28*
%TO.P,J7,1,Pin_1*%
%TO.N,GND*%
X28244800Y-82778600D03*
D27*
%TO.P,J7,2,Pin_2*%
%TO.N,PWM*%
X31244800Y-82778600D03*
%TO.P,J7,3,Pin_3*%
%TO.N,czujnik optyczny*%
X34244800Y-82778600D03*
%TO.P,J7,4,Pin_4*%
%TO.N,GND*%
X37244800Y-82778600D03*
%TO.P,J7,5,Pin_5*%
%TO.N,unconnected-(J7-Pad5)*%
X40244800Y-82778600D03*
%TO.P,J7,6,Pin_6*%
%TO.N,UART*%
X43244800Y-82778600D03*
%TO.P,J7,7,Pin_7*%
%TO.N,GND*%
X46244800Y-82778600D03*
%TO.P,J7,8,Pin_8*%
%TO.N,+12V*%
X28244800Y-79778600D03*
%TO.P,J7,9,Pin_9*%
%TO.N,unconnected-(J7-Pad9)*%
X31244800Y-79778600D03*
%TO.P,J7,10,Pin_10*%
%TO.N,unconnected-(J7-Pad10)*%
X34244800Y-79778600D03*
%TO.P,J7,11,Pin_11*%
%TO.N,+12V*%
X37244800Y-79778600D03*
%TO.P,J7,12,Pin_12*%
%TO.N,unconnected-(J7-Pad12)*%
X40244800Y-79778600D03*
%TO.P,J7,13,Pin_13*%
%TO.N,unconnected-(J7-Pad13)*%
X43244800Y-79778600D03*
%TO.P,J7,14,Pin_14*%
%TO.N,+5V*%
X46244800Y-79778600D03*
%TD*%
D22*
%TO.P,U4,1,1A*%
%TO.N,Net-(R34-Pad1)*%
X47076600Y-44770200D03*
D23*
%TO.P,U4,2,1K*%
%TO.N,GND*%
X44536600Y-44770200D03*
%TO.P,U4,3,2A*%
%TO.N,Net-(R35-Pad1)*%
X41996600Y-44770200D03*
%TO.P,U4,4,2K*%
%TO.N,GND*%
X39456600Y-44770200D03*
%TO.P,U4,5,3A*%
%TO.N,Net-(R36-Pad1)*%
X36916600Y-44770200D03*
%TO.P,U4,6,3K*%
%TO.N,GND*%
X34376600Y-44770200D03*
%TO.P,U4,7,4A*%
%TO.N,Net-(R37-Pad1)*%
X31836600Y-44770200D03*
%TO.P,U4,8,4K*%
%TO.N,unconnected-(U4-Pad8)*%
X29296600Y-44770200D03*
%TO.P,U4,9,1E*%
%TO.N,GND*%
X29296600Y-37150200D03*
%TO.P,U4,10,1C*%
%TO.N,Net-(R12-Pad2)*%
X31836600Y-37150200D03*
%TO.P,U4,11,2E*%
%TO.N,GND*%
X34376600Y-37150200D03*
%TO.P,U4,12,2C*%
%TO.N,Net-(J1-Pad4)*%
X36916600Y-37150200D03*
%TO.P,U4,13,3E*%
%TO.N,GND*%
X39456600Y-37150200D03*
%TO.P,U4,14,3C*%
%TO.N,uCOpt*%
X41996600Y-37150200D03*
%TO.P,U4,15,4E*%
%TO.N,GNDPWR*%
X44536600Y-37150200D03*
%TO.P,U4,16,4C*%
%TO.N,Net-(J1-Pad1)*%
X47076600Y-37150200D03*
%TD*%
D26*
%TO.P,J1,1,Pin_1*%
%TO.N,Net-(J1-Pad1)*%
X159840000Y-70646000D03*
D27*
%TO.P,J1,2,Pin_2*%
%TO.N,GNDPWR*%
X159840000Y-73646000D03*
%TO.P,J1,3,Pin_3*%
%TO.N,+5V*%
X159840000Y-76646000D03*
%TO.P,J1,4,Pin_4*%
%TO.N,Net-(J1-Pad4)*%
X159840000Y-79646000D03*
%TO.P,J1,5,Pin_5*%
%TO.N,unconnected-(J1-Pad5)*%
X159840000Y-82646000D03*
%TO.P,J1,6,Pin_6*%
%TO.N,unconnected-(J1-Pad6)*%
X159840000Y-85646000D03*
%TO.P,J1,7,Pin_7*%
%TO.N,GNDPWR*%
X159840000Y-88646000D03*
%TO.P,J1,8,Pin_8*%
%TO.N,VDD*%
X162840000Y-70646000D03*
%TO.P,J1,9,Pin_9*%
%TO.N,+5V*%
X162840000Y-73646000D03*
%TO.P,J1,10,Pin_10*%
%TO.N,Net-(J1-Pad10)*%
X162840000Y-76646000D03*
%TO.P,J1,11,Pin_11*%
%TO.N,Net-(J1-Pad11)*%
X162840000Y-79646000D03*
%TO.P,J1,12,Pin_12*%
%TO.N,Net-(J1-Pad12)*%
X162840000Y-82646000D03*
%TO.P,J1,13,Pin_13*%
%TO.N,Net-(J1-Pad13)*%
X162840000Y-85646000D03*
%TO.P,J1,14,Pin_14*%
%TO.N,Net-(J1-Pad14)*%
X162840000Y-88646000D03*
%TD*%
D22*
%TO.P,U5,1,1OE*%
%TO.N,GND*%
X26705400Y-70591600D03*
D23*
%TO.P,U5,2,1A*%
X26705400Y-68051600D03*
%TO.P,U5,3,1Y*%
%TO.N,unconnected-(U5-Pad3)*%
X26705400Y-65511600D03*
%TO.P,U5,4,2OE*%
%TO.N,GND*%
X26705400Y-62971600D03*
%TO.P,U5,5,2A*%
X26705400Y-60431600D03*
%TO.P,U5,6,2Y*%
%TO.N,unconnected-(U5-Pad6)*%
X26705400Y-57891600D03*
%TO.P,U5,7,GND*%
%TO.N,GND*%
X26705400Y-55351600D03*
%TO.P,U5,8,3Y*%
%TO.N,Net-(D12-Pad3)*%
X34325400Y-55351600D03*
%TO.P,U5,9,3A*%
%TO.N,PG9*%
X34325400Y-57891600D03*
%TO.P,U5,10,3OE*%
%TO.N,Net-(U1-Pad12)*%
X34325400Y-60431600D03*
%TO.P,U5,11,4Y*%
%TO.N,PG14*%
X34325400Y-62971600D03*
%TO.P,U5,12,4A*%
%TO.N,Net-(D12-Pad3)*%
X34325400Y-65511600D03*
%TO.P,U5,13,4OE*%
%TO.N,PG13*%
X34325400Y-68051600D03*
%TO.P,U5,14,VCC*%
%TO.N,+5V*%
X34325400Y-70591600D03*
%TD*%
D29*
%TO.N,+3.3V*%
X115252900Y-64687100D03*
%TO.N,D3*%
X101802100Y-72308300D03*
X100709400Y-56216100D03*
%TO.N,D4*%
X102108700Y-71082100D03*
X101851600Y-59435500D03*
X111380100Y-45774500D03*
%TO.N,D2*%
X101646400Y-53469600D03*
%TO.N,D5*%
X105843100Y-44063800D03*
%TO.N,D1*%
X112170400Y-40554100D03*
%TO.N,D6*%
X79478500Y-69025300D03*
%TO.N,D0*%
X113914200Y-42246700D03*
%TO.N,D7*%
X75811300Y-70225700D03*
%TO.N,HSYNC*%
X126332300Y-57074500D03*
%TO.N,PCLK*%
X121608400Y-55858700D03*
%TO.N,SDA*%
X113434900Y-79737800D03*
X116002400Y-59378700D03*
%TO.N,czujnik optyczny*%
X40677700Y-49172500D03*
%TO.N,uCOpt*%
X61403400Y-52910600D03*
%TD*%
D30*
%TO.N,+5V*%
X62712600Y-40917500D02*
X58394600Y-40917500D01*
X62738000Y-40942900D02*
X62712600Y-40917500D01*
X47732000Y-56543100D02*
X55288300Y-56543100D01*
X45466000Y-55417800D02*
X45481400Y-55417800D01*
X138853200Y-54766700D02*
X138287800Y-54201300D01*
X153660000Y-56149000D02*
X152534700Y-56149000D01*
X45466000Y-55417800D02*
X45466000Y-51775400D01*
X50632400Y-98959700D02*
X49987000Y-99605100D01*
X162867700Y-78146000D02*
X163977300Y-79255600D01*
X160564600Y-75921400D02*
X162789100Y-78146000D01*
X45481400Y-55417800D02*
X46606700Y-55417800D01*
X159129100Y-94310300D02*
X159129100Y-96672400D01*
X53166500Y-35689300D02*
X62234700Y-26621100D01*
X49987000Y-99605100D02*
X39138400Y-99605100D01*
X138660100Y-78464000D02*
X136777100Y-76581000D01*
X53166500Y-35689300D02*
X58394600Y-40917500D01*
X162789100Y-78146000D02*
X162867700Y-78146000D01*
X56885900Y-52628900D02*
X56032400Y-51775400D01*
X138660100Y-96623900D02*
X138660100Y-78464000D01*
X139819100Y-97782900D02*
X138660100Y-96623900D01*
X163977300Y-89462100D02*
X159129100Y-94310300D01*
X51663600Y-34186500D02*
X53166500Y-35689300D01*
X163977300Y-79255600D02*
X163977300Y-89462100D01*
X62234700Y-26621100D02*
X63804800Y-26621100D01*
X68281800Y-64368000D02*
X68281800Y-60489300D01*
X50632400Y-79834100D02*
X53467000Y-79834100D01*
X68281800Y-65481200D02*
X68281800Y-64368000D01*
X152534700Y-59211400D02*
X153208400Y-59885100D01*
X147851500Y-54766700D02*
X138853200Y-54766700D01*
X39344600Y-34186500D02*
X51663600Y-34186500D01*
X39138400Y-99605100D02*
X38428400Y-98895100D01*
X160564600Y-75921400D02*
X159840000Y-76646000D01*
X55288300Y-56543100D02*
X56885900Y-54945500D01*
X43767300Y-55417800D02*
X41374700Y-57810400D01*
X50632400Y-79834100D02*
X50632400Y-96623900D01*
X149233800Y-56149000D02*
X152534700Y-56149000D01*
X158018600Y-97782900D02*
X139819100Y-97782900D01*
X147851500Y-47193200D02*
X147851500Y-54766700D01*
X147851500Y-54766700D02*
X149233800Y-56149000D01*
X46300300Y-79834100D02*
X50632400Y-79834100D01*
X56885900Y-54945500D02*
X56885900Y-52628900D01*
X62738000Y-54945500D02*
X56885900Y-54945500D01*
X68281800Y-60489300D02*
X62738000Y-54945500D01*
X38428400Y-98165200D02*
X39494700Y-97098900D01*
X158248200Y-61222100D02*
X158978600Y-61952500D01*
X46244800Y-79778600D02*
X46300300Y-79834100D01*
X50632400Y-96623900D02*
X50632400Y-98959700D01*
X62788800Y-40892100D02*
X62738000Y-40942900D01*
X66344800Y-40892100D02*
X62788800Y-40892100D01*
X158248200Y-59885100D02*
X158978600Y-59154700D01*
X39494700Y-97098900D02*
X39494700Y-96611400D01*
X45466000Y-55417800D02*
X43767300Y-55417800D01*
X162840000Y-73646000D02*
X160564600Y-75921400D01*
X159129100Y-96672400D02*
X158018600Y-97782900D01*
X152534700Y-56149000D02*
X152534700Y-59211400D01*
X62738000Y-54945500D02*
X62738000Y-40942900D01*
X158248200Y-59885100D02*
X158248200Y-61222100D01*
X138660100Y-96623900D02*
X50632400Y-96623900D01*
X153208400Y-59885100D02*
X158248200Y-59885100D01*
X46606700Y-55417800D02*
X47732000Y-56543100D01*
X38428400Y-98895100D02*
X38428400Y-98165200D01*
%TO.N,GND*%
X150725900Y-35884900D02*
X151806100Y-36965100D01*
X151806100Y-37627900D02*
X137975900Y-51458100D01*
X121037900Y-84476400D02*
X135434400Y-84476400D01*
X86568600Y-92534500D02*
X85481200Y-92534500D01*
X71416000Y-78191400D02*
X71422500Y-78191400D01*
X109905400Y-77776700D02*
X111887000Y-77776700D01*
X112699800Y-92250900D02*
X116840000Y-92250900D01*
X53397600Y-50949000D02*
X52324000Y-49875400D01*
X109880000Y-77751300D02*
X109905400Y-77776700D01*
X93908600Y-84325300D02*
X93100700Y-85133200D01*
X51976100Y-67547000D02*
X52820000Y-66703100D01*
X53101400Y-70657800D02*
X53101400Y-69532500D01*
X136387800Y-54201300D02*
X136875300Y-54201300D01*
X46606700Y-68117700D02*
X46606700Y-65007100D01*
X83840000Y-73333900D02*
X83840000Y-72134000D01*
X70240300Y-91263600D02*
X71460400Y-92483700D01*
X111912400Y-77802100D02*
X115798600Y-77802100D01*
X53101400Y-69532500D02*
X52820100Y-69532500D01*
X40558200Y-96623900D02*
X40558200Y-97447900D01*
X115798600Y-77802100D02*
X119634000Y-77802100D01*
X41657700Y-82917000D02*
X39520500Y-85054200D01*
X53397600Y-53996300D02*
X53397600Y-50949000D01*
X129684300Y-55921400D02*
X129684300Y-51246200D01*
X93100700Y-86002400D02*
X86568600Y-92534500D01*
X145758600Y-60103700D02*
X146040000Y-60103700D01*
X53397600Y-50949000D02*
X54958800Y-50949000D01*
X52820100Y-69532500D02*
X51976100Y-68688500D01*
X137975900Y-51458100D02*
X137764000Y-51246200D01*
X70240300Y-85133700D02*
X70240300Y-91263600D01*
X53101400Y-60497800D02*
X53101400Y-61623100D01*
X51976100Y-68688500D02*
X51976100Y-68117700D01*
X137764000Y-51246200D02*
X129684300Y-51246200D01*
X121037900Y-84476400D02*
X121037900Y-89169200D01*
X63815700Y-65015100D02*
X64281800Y-65481200D01*
X46606700Y-68117700D02*
X46606700Y-68117800D01*
X137278100Y-84325300D02*
X137456000Y-84325300D01*
X120573800Y-92250900D02*
X116840000Y-92250900D01*
X93100700Y-85133200D02*
X93100700Y-86002400D01*
X135434400Y-84476400D02*
X136280700Y-85322700D01*
X48869600Y-49875400D02*
X48895000Y-49850000D01*
X36169400Y-81703200D02*
X37244800Y-82778600D01*
X61733100Y-91263600D02*
X60614600Y-92382100D01*
X138823000Y-56149000D02*
X136875300Y-54201300D01*
X46244800Y-82778600D02*
X45136000Y-81669800D01*
X28244800Y-82778600D02*
X29320200Y-81703200D01*
X94276000Y-83150000D02*
X94276000Y-84325300D01*
X53101400Y-65015100D02*
X54248900Y-65015100D01*
X40558200Y-96623900D02*
X48732400Y-96623900D01*
X52820000Y-66703100D02*
X53101400Y-66703100D01*
X54248900Y-65015100D02*
X63815700Y-65015100D01*
X150725900Y-35397400D02*
X150725900Y-35884900D01*
X135937600Y-80456300D02*
X135937600Y-66430000D01*
X137456000Y-83150000D02*
X137456000Y-84325300D01*
X53101400Y-55417800D02*
X53101400Y-54292500D01*
X48920400Y-49875400D02*
X48895000Y-49850000D01*
X65555100Y-78191400D02*
X71416000Y-78191400D01*
X52324000Y-49875400D02*
X48920400Y-49875400D01*
X121614300Y-91210400D02*
X120573800Y-92250900D01*
X51976100Y-68117700D02*
X51976100Y-67547000D01*
X150700500Y-35372000D02*
X150725900Y-35397400D01*
X53101400Y-65577800D02*
X53101400Y-66703100D01*
X53101400Y-54292500D02*
X53397600Y-53996300D01*
X120573800Y-92250900D02*
X120573800Y-92276300D01*
X111328500Y-61982500D02*
X112880000Y-63534000D01*
X146040000Y-56149000D02*
X144914700Y-56149000D01*
X71416000Y-84325300D02*
X71048700Y-84325300D01*
X138823000Y-56149000D02*
X138823000Y-56693300D01*
X70240300Y-91263600D02*
X61733100Y-91263600D01*
X53382700Y-61623100D02*
X53101400Y-61623100D01*
X136875300Y-54201300D02*
X137975900Y-53100700D01*
X45481400Y-68117800D02*
X46606700Y-68117800D01*
X137456000Y-81974700D02*
X135937600Y-80456300D01*
X39520500Y-85054200D02*
X40558200Y-86092000D01*
X137456000Y-83150000D02*
X137456000Y-81974700D01*
X45330000Y-50011400D02*
X40484500Y-50011400D01*
X71416000Y-78191400D02*
X71416000Y-83150000D01*
X107890900Y-77759600D02*
X102994700Y-77759600D01*
X39456600Y-48983500D02*
X39456600Y-44770200D01*
X45762700Y-64163100D02*
X45481400Y-64163100D01*
X40558200Y-97447900D02*
X39494700Y-98511400D01*
X71422500Y-78191400D02*
X78982500Y-78191400D01*
X40484500Y-50011400D02*
X39456600Y-48983500D01*
X143232900Y-35372000D02*
X139118300Y-35372000D01*
X94838300Y-63446900D02*
X96302700Y-61982500D01*
X78982500Y-78191400D02*
X83840000Y-73333900D01*
X121037900Y-79206000D02*
X121037900Y-84476400D01*
X29320200Y-81703200D02*
X36169400Y-81703200D01*
X107899200Y-77751300D02*
X107890900Y-77759600D01*
X40558200Y-86092000D02*
X40558200Y-96623900D01*
X51976100Y-68117700D02*
X46606700Y-68117700D01*
X54958800Y-50949000D02*
X56032400Y-49875400D01*
X53101400Y-65577800D02*
X53101400Y-65015100D01*
X107899200Y-77751300D02*
X109880000Y-77751300D01*
X54248900Y-62489300D02*
X53382700Y-61623100D01*
X144914700Y-56149000D02*
X144914700Y-59259800D01*
X42821300Y-81669800D02*
X41657700Y-82833400D01*
X129684300Y-51246200D02*
X129684300Y-50804400D01*
X119634000Y-77802100D02*
X121037900Y-79206000D01*
X71416000Y-83150000D02*
X71416000Y-84325300D01*
X139118300Y-35372000D02*
X138630300Y-34884000D01*
X102994700Y-77759600D02*
X102307100Y-78447200D01*
X143232900Y-35372000D02*
X150700500Y-35372000D01*
X95451300Y-82782600D02*
X95451300Y-83150000D01*
X45136000Y-81669800D02*
X42821300Y-81669800D01*
X45466000Y-49875400D02*
X45330000Y-50011400D01*
X111887000Y-77776700D02*
X111912400Y-77802100D01*
X137975900Y-53100700D02*
X137975900Y-51458100D01*
X96302700Y-61982500D02*
X111328500Y-61982500D01*
X91766400Y-73333900D02*
X94274600Y-75842100D01*
X45466000Y-49875400D02*
X48869600Y-49875400D01*
X138823000Y-56693300D02*
X136408200Y-59108100D01*
X71048700Y-84325300D02*
X70240300Y-85133700D01*
X137455000Y-34884000D02*
X138630300Y-34884000D01*
X136408200Y-65959400D02*
X136408200Y-59108100D01*
X137456000Y-85690000D02*
X136280700Y-85690000D01*
X129684300Y-50804400D02*
X128293100Y-49413200D01*
X41657700Y-82833400D02*
X41657700Y-82917000D01*
X94350800Y-63446900D02*
X94838300Y-63446900D01*
X121614300Y-89745600D02*
X121614300Y-91210400D01*
X136280700Y-85322700D02*
X137278100Y-84325300D01*
X128597900Y-57007800D02*
X129684300Y-55921400D01*
X144914700Y-56149000D02*
X138823000Y-56149000D01*
X135937600Y-66430000D02*
X136408200Y-65959400D01*
X83840000Y-73333900D02*
X91766400Y-73333900D01*
X45481400Y-63037800D02*
X45481400Y-64163100D01*
X107950000Y-92225500D02*
X112674400Y-92225500D01*
X37244800Y-82778600D02*
X39520500Y-85054200D01*
X54248900Y-65015100D02*
X54248900Y-62489300D01*
X94276000Y-84325300D02*
X93908600Y-84325300D01*
X151806100Y-36965100D02*
X151806100Y-37627900D01*
X109880000Y-72534000D02*
X109880000Y-77751300D01*
X146040000Y-61229000D02*
X146040000Y-60103700D01*
X94276000Y-83150000D02*
X95451300Y-83150000D01*
X144914700Y-59259800D02*
X145758600Y-60103700D01*
X46606700Y-65007100D02*
X45762700Y-64163100D01*
X121037900Y-89169200D02*
X121614300Y-89745600D01*
X112674400Y-92225500D02*
X112699800Y-92250900D01*
X136280700Y-85322700D02*
X136280700Y-85690000D01*
X102307100Y-78447200D02*
X99786700Y-78447200D01*
X99786700Y-78447200D02*
X95451300Y-82782600D01*
%TO.N,+12V*%
X94615000Y-47599600D02*
X93489700Y-47599600D01*
X37429700Y-51174300D02*
X37429700Y-53847800D01*
X70281800Y-65481200D02*
X79981900Y-55781100D01*
X37429700Y-51174300D02*
X37663000Y-50941000D01*
X79981900Y-55781100D02*
X85192900Y-55781100D01*
X85192900Y-55781100D02*
X86840000Y-54134000D01*
X48086000Y-50941000D02*
X48895000Y-51750000D01*
X28244800Y-79778600D02*
X29320400Y-80854200D01*
X34655900Y-56621600D02*
X34003600Y-56621600D01*
X89005800Y-46474300D02*
X92645800Y-46474300D01*
X35785200Y-32566200D02*
X35785200Y-49529800D01*
X34003600Y-56621600D02*
X28244800Y-62380400D01*
X37663000Y-50941000D02*
X48086000Y-50941000D01*
X38854400Y-27633600D02*
X38110000Y-28378000D01*
X28244800Y-62380400D02*
X28244800Y-79778600D01*
X48920400Y-51775400D02*
X48895000Y-51750000D01*
X93489700Y-47318200D02*
X93489700Y-47599600D01*
X52324000Y-51775400D02*
X48920400Y-51775400D01*
X86840000Y-50533600D02*
X88265000Y-49108600D01*
X92645800Y-46474300D02*
X93489700Y-47318200D01*
X38110000Y-28378000D02*
X38110000Y-30241400D01*
X45799700Y-27633600D02*
X38854400Y-27633600D01*
X88265000Y-49108600D02*
X88265000Y-47215100D01*
X29320400Y-80854200D02*
X36169200Y-80854200D01*
X37429700Y-53847800D02*
X34655900Y-56621600D01*
X88265000Y-47215100D02*
X89005800Y-46474300D01*
X36169200Y-80854200D02*
X37244800Y-79778600D01*
X38110000Y-30241400D02*
X35785200Y-32566200D01*
X86840000Y-54134000D02*
X86840000Y-50533600D01*
X47322100Y-26111200D02*
X45799700Y-27633600D01*
X35785200Y-49529800D02*
X37429700Y-51174300D01*
%TO.N,+3.3V*%
X121812700Y-64687100D02*
X115252900Y-64687100D01*
X58716000Y-83150000D02*
X59891300Y-83150000D01*
X58716000Y-85690000D02*
X58716000Y-86865300D01*
X150700500Y-37272000D02*
X150725900Y-37297400D01*
X128293100Y-48000700D02*
X128293100Y-47513200D01*
X96174600Y-77461200D02*
X95737400Y-77461200D01*
X110971900Y-63103600D02*
X110971900Y-63215600D01*
X60280000Y-93460000D02*
X68584100Y-93460000D01*
X95737400Y-77461200D02*
X90466000Y-82732600D01*
X65555100Y-76291400D02*
X71422500Y-76291400D01*
X58714600Y-86866700D02*
X58716000Y-86865300D01*
X128293100Y-47513200D02*
X138534300Y-37272000D01*
X97264800Y-62432900D02*
X110301200Y-62432900D01*
X96174600Y-77461200D02*
X101880600Y-77461200D01*
X110971900Y-63215600D02*
X112443400Y-64687100D01*
X59891300Y-83150000D02*
X59891300Y-82442700D01*
X58714600Y-92382100D02*
X58714600Y-86866700D01*
X70070600Y-95442100D02*
X80673600Y-95442100D01*
X112880000Y-72534000D02*
X111804700Y-71458700D01*
X84070500Y-92534500D02*
X83581200Y-92534500D01*
X102994700Y-76347100D02*
X102994700Y-75859600D01*
X96174600Y-75842100D02*
X96174600Y-77461200D01*
X127220900Y-49072900D02*
X128293100Y-48000700D01*
X128597900Y-55107800D02*
X127220900Y-53730800D01*
X111804700Y-71458700D02*
X107395600Y-71458700D01*
X68584100Y-93955600D02*
X70070600Y-95442100D01*
X110301200Y-62432900D02*
X110971900Y-63103600D01*
X58714600Y-92382100D02*
X59202100Y-92382100D01*
X127528500Y-58971300D02*
X127528500Y-56664700D01*
X68584100Y-93460000D02*
X68584100Y-93955600D01*
X127528500Y-58971300D02*
X134371400Y-58971300D01*
X90466000Y-82732600D02*
X90466000Y-86139000D01*
X107395600Y-71458700D02*
X102994700Y-75859600D01*
X127528500Y-58971300D02*
X121812700Y-64687100D01*
X101880600Y-77461200D02*
X102994700Y-76347100D01*
X134371400Y-58971300D02*
X134508200Y-59108100D01*
X59891300Y-82442700D02*
X65555100Y-76778900D01*
X138534300Y-37272000D02*
X143232900Y-37272000D01*
X65555100Y-76778900D02*
X65555100Y-76291400D01*
X68584100Y-93460000D02*
X69560400Y-92483700D01*
X112443400Y-64687100D02*
X115252900Y-64687100D01*
X143232900Y-37272000D02*
X150700500Y-37272000D01*
X128597900Y-55595300D02*
X128597900Y-55107800D01*
X127528500Y-56664700D02*
X128597900Y-55595300D01*
X127220900Y-53730800D02*
X127220900Y-49072900D01*
X90466000Y-86139000D02*
X84070500Y-92534500D01*
X96250800Y-63446900D02*
X97264800Y-62432900D01*
X80673600Y-95442100D02*
X83581200Y-92534500D01*
X59202100Y-92382100D02*
X60280000Y-93460000D01*
%TO.N,D3*%
X101802100Y-72308300D02*
X101802100Y-76127200D01*
X100839900Y-56346600D02*
X100839900Y-57556400D01*
X101802100Y-76127200D02*
X101119700Y-76809600D01*
X100709400Y-56216100D02*
X100839900Y-56346600D01*
%TO.N,D4*%
X102108700Y-71082100D02*
X102002600Y-71082100D01*
X111380100Y-45774500D02*
X111380100Y-57581200D01*
X99117600Y-73967100D02*
X95224600Y-73967100D01*
X101851600Y-59435500D02*
X100865300Y-60421800D01*
X102002600Y-71082100D02*
X99117600Y-73967100D01*
X100865300Y-60421800D02*
X100865300Y-60528200D01*
X111380100Y-57581200D02*
X109525800Y-59435500D01*
X109525800Y-59435500D02*
X101851600Y-59435500D01*
%TO.N,D2*%
X101646400Y-53469600D02*
X101646400Y-53676500D01*
X100789100Y-54533800D02*
X95300800Y-60022100D01*
X101646400Y-53676500D02*
X100789100Y-54533800D01*
X95300800Y-60022100D02*
X95300800Y-61571900D01*
%TO.N,D5*%
X92879700Y-65030400D02*
X75657500Y-65030400D01*
X99922000Y-64519500D02*
X100890700Y-63550800D01*
X73491800Y-75660200D02*
X71910600Y-77241400D01*
X105843100Y-44063800D02*
X105511800Y-44063800D01*
X101676200Y-47899400D02*
X101676200Y-52192900D01*
X93700900Y-60053600D02*
X93700900Y-64209200D01*
X100706600Y-53047900D02*
X93700900Y-60053600D01*
X73491800Y-67196100D02*
X73491800Y-75660200D01*
X93700900Y-64209200D02*
X92879700Y-65030400D01*
X94011200Y-64519500D02*
X99922000Y-64519500D01*
X105511800Y-44063800D02*
X101676200Y-47899400D01*
X101676200Y-52192900D02*
X100821200Y-53047900D01*
X100821200Y-53047900D02*
X100706600Y-53047900D01*
X93700900Y-64209200D02*
X94011200Y-64519500D01*
X71910600Y-77241400D02*
X69547500Y-77241400D01*
X75657500Y-65030400D02*
X73491800Y-67196100D01*
%TO.N,D1*%
X88972100Y-61634000D02*
X86750300Y-61634000D01*
X107218200Y-40554100D02*
X99916600Y-47855700D01*
X86750300Y-61634000D02*
X85180700Y-63203600D01*
X99916600Y-47855700D02*
X99916600Y-50689500D01*
X112170400Y-40554100D02*
X107218200Y-40554100D01*
X75488200Y-64554000D02*
X63680100Y-76362100D01*
X99916600Y-50689500D02*
X88972100Y-61634000D01*
X85180700Y-63203600D02*
X85180700Y-63357500D01*
X83984200Y-64554000D02*
X75488200Y-64554000D01*
X63680100Y-76362100D02*
X63680100Y-77241400D01*
X99916600Y-50689500D02*
X100763700Y-51536600D01*
X85180700Y-63357500D02*
X83984200Y-64554000D01*
%TO.N,D6*%
X97238500Y-70225600D02*
X100941500Y-66522600D01*
X76201000Y-36322000D02*
X75130300Y-35251300D01*
X80678800Y-70225600D02*
X97238500Y-70225600D01*
X73955000Y-34884000D02*
X75130300Y-34884000D01*
X79478500Y-69025300D02*
X80678800Y-70225600D01*
X75130300Y-35251300D02*
X75130300Y-34884000D01*
X145107900Y-36322000D02*
X76201000Y-36322000D01*
%TO.N,D0*%
X100763700Y-48539400D02*
X100763700Y-48112100D01*
X123390300Y-34516700D02*
X124208800Y-33698200D01*
X100763700Y-48112100D02*
X106629100Y-42246700D01*
X106629100Y-42246700D02*
X113914200Y-42246700D01*
X124208800Y-33698200D02*
X150461300Y-33698200D01*
X150461300Y-33698200D02*
X152600900Y-35837800D01*
X122215000Y-34884000D02*
X123390300Y-34884000D01*
X152600900Y-35837800D02*
X152600900Y-36347400D01*
X123390300Y-34884000D02*
X123390300Y-34516700D01*
%TO.N,D7*%
X76261600Y-70676000D02*
X99810700Y-70676000D01*
X128407300Y-68034000D02*
X135458200Y-60983100D01*
X102452700Y-68034000D02*
X128407300Y-68034000D01*
X99810700Y-70676000D02*
X100941500Y-69545200D01*
X75811300Y-70225700D02*
X76261600Y-70676000D01*
X100941500Y-69545200D02*
X102452700Y-68034000D01*
%TO.N,VSYNC*%
X121587900Y-48463200D02*
X121537100Y-48514000D01*
X126418100Y-48463200D02*
X121587900Y-48463200D01*
%TO.N,Net-(D10-Pad3)*%
X137337800Y-52326300D02*
X136815000Y-52326300D01*
X129616400Y-65412400D02*
X98748200Y-65412400D01*
X77200200Y-67216100D02*
X76100300Y-66116200D01*
X136815000Y-52326300D02*
X135184000Y-53957300D01*
X135184000Y-59844800D02*
X129616400Y-65412400D01*
X98748200Y-65412400D02*
X96944500Y-67216100D01*
X96944500Y-67216100D02*
X77200200Y-67216100D01*
X135184000Y-53957300D02*
X135184000Y-59844800D01*
%TO.N,HSYNC*%
X126109100Y-56057800D02*
X126332300Y-56057800D01*
X126332300Y-56057800D02*
X126722900Y-56057800D01*
X121562500Y-51511200D02*
X126109100Y-56057800D01*
X126332300Y-57074500D02*
X126332300Y-56057800D01*
%TO.N,Net-(D12-Pad3)*%
X45156100Y-77976000D02*
X46068500Y-77063600D01*
X45156100Y-80247600D02*
X45762500Y-80854000D01*
X52232600Y-77063600D02*
X54533600Y-79364600D01*
X43256200Y-88038300D02*
X49682400Y-94464500D01*
X34325400Y-65511600D02*
X35450700Y-65511600D01*
X35450700Y-65511600D02*
X45156100Y-75217000D01*
X45156100Y-77976000D02*
X45156100Y-80247600D01*
X54533600Y-79364600D02*
X54533600Y-80592500D01*
X54533600Y-80592500D02*
X53467000Y-81659100D01*
X46068500Y-77063600D02*
X52232600Y-77063600D01*
X49682400Y-94464500D02*
X49682400Y-98498900D01*
X45156100Y-75217000D02*
X45156100Y-77976000D01*
X45762500Y-80854000D02*
X45891500Y-80854000D01*
X47343700Y-83950800D02*
X43256200Y-88038300D01*
X47343700Y-82306200D02*
X47343700Y-83950800D01*
X45891500Y-80854000D02*
X47343700Y-82306200D01*
%TO.N,PWM*%
X37619700Y-97561400D02*
X31244800Y-91186500D01*
X31244800Y-91186500D02*
X31244800Y-82778600D01*
%TO.N,PCLK*%
X70510400Y-94358700D02*
X77179300Y-94358700D01*
X77179300Y-94358700D02*
X85480700Y-86057300D01*
X86656000Y-85690000D02*
X85480700Y-85690000D01*
X85480700Y-86057300D02*
X85480700Y-85690000D01*
X121608400Y-55858700D02*
X121562500Y-55812800D01*
X121562500Y-55812800D02*
X121562500Y-54533800D01*
%TO.N,SCL*%
X75420400Y-44155900D02*
X69281300Y-50295000D01*
X111514300Y-38783200D02*
X76005900Y-38783200D01*
X57526400Y-92633900D02*
X59149600Y-94257100D01*
X59149600Y-94257100D02*
X59664600Y-94257100D01*
X75420400Y-39368700D02*
X75420400Y-44155900D01*
X81575000Y-32344000D02*
X80399700Y-32344000D01*
X76005900Y-38783200D02*
X75420400Y-39368700D01*
X73639900Y-33519300D02*
X79591800Y-33519300D01*
X121562500Y-57531000D02*
X120624600Y-56593100D01*
X69281300Y-67372300D02*
X57526400Y-79127200D01*
X120624600Y-47893500D02*
X111514300Y-38783200D01*
X80399700Y-32711400D02*
X80399700Y-32344000D01*
X72779600Y-34379600D02*
X73639900Y-33519300D01*
X69281300Y-50295000D02*
X69281300Y-67372300D01*
X72779600Y-35556900D02*
X72779600Y-34379600D01*
X120624600Y-56593100D02*
X120624600Y-47893500D01*
X57526400Y-79127200D02*
X57526400Y-92633900D01*
X79591800Y-33519300D02*
X80399700Y-32711400D01*
X76005900Y-38783200D02*
X72779600Y-35556900D01*
%TO.N,SDA*%
X105706000Y-85259000D02*
X105706000Y-86132200D01*
X121613300Y-60553600D02*
X120438400Y-59378700D01*
X97428700Y-94409500D02*
X84531200Y-94409500D01*
X105706000Y-86132200D02*
X97428700Y-94409500D01*
X120438400Y-59378700D02*
X116002400Y-59378700D01*
X110691400Y-83693000D02*
X109869800Y-84514600D01*
X106450400Y-84514600D02*
X105706000Y-85259000D01*
X110691400Y-82481300D02*
X110691400Y-83693000D01*
X113434900Y-79737800D02*
X110691400Y-82481300D01*
X109869800Y-84514600D02*
X106450400Y-84514600D01*
%TO.N,GNDPWR*%
X142578700Y-71389000D02*
X142542900Y-71424800D01*
X146040000Y-71389000D02*
X142578700Y-71389000D01*
%TO.N,VDD*%
X140794100Y-86410800D02*
X140794100Y-81381600D01*
X140895700Y-86512400D02*
X140794100Y-86410800D01*
X155727700Y-70231300D02*
X141911400Y-70231300D01*
X162840000Y-70646000D02*
X161756700Y-71729300D01*
X164894900Y-63017400D02*
X162840000Y-65072300D01*
X141911400Y-70231300D02*
X140717900Y-69037800D01*
X140717900Y-69037800D02*
X140717900Y-63804800D01*
X140895700Y-96570800D02*
X140971900Y-96647000D01*
X164894900Y-47228100D02*
X139866400Y-22199600D01*
X157225700Y-71729300D02*
X155727700Y-70231300D01*
X164894900Y-53644800D02*
X164894900Y-47228100D01*
X140717900Y-77470000D02*
X140692500Y-77495400D01*
X140895700Y-91541600D02*
X140895700Y-96570800D01*
X164894900Y-58648600D02*
X164894900Y-53644800D01*
X164894900Y-58648600D02*
X164894900Y-63017400D01*
X140895700Y-91541600D02*
X140895700Y-86512400D01*
X140794100Y-81381600D02*
X140692500Y-81280000D01*
X141911400Y-70231300D02*
X140717900Y-71424800D01*
X140692500Y-81280000D02*
X140692500Y-77495400D01*
X162840000Y-65072300D02*
X162840000Y-70646000D01*
X139866400Y-22199600D02*
X38656900Y-22199600D01*
X140717900Y-71424800D02*
X140717900Y-77470000D01*
X161756700Y-71729300D02*
X157225700Y-71729300D01*
%TO.N,Net-(J1-Pad11)*%
X161764100Y-80721900D02*
X159245300Y-80721900D01*
X159245300Y-80721900D02*
X158475300Y-79951900D01*
X148336000Y-79951900D02*
X147210700Y-78826600D01*
X146085400Y-78826600D02*
X147210700Y-78826600D01*
X162840000Y-79646000D02*
X161764100Y-80721900D01*
X158475300Y-79951900D02*
X148336000Y-79951900D01*
%TO.N,Net-(J1-Pad12)*%
X146085400Y-83906600D02*
X147210700Y-83906600D01*
X157484700Y-81544800D02*
X156248200Y-82781300D01*
X161738800Y-81544800D02*
X157484700Y-81544800D01*
X156248200Y-82781300D02*
X148336000Y-82781300D01*
X162840000Y-82646000D02*
X161738800Y-81544800D01*
X148336000Y-82781300D02*
X147210700Y-83906600D01*
%TO.N,Net-(J1-Pad13)*%
X162840000Y-85646000D02*
X161027000Y-87459000D01*
X156718400Y-87861300D02*
X148336000Y-87861300D01*
X157120700Y-87459000D02*
X156718400Y-87861300D01*
X161027000Y-87459000D02*
X157120700Y-87459000D01*
X148336000Y-87861300D02*
X147210700Y-88986600D01*
X146085400Y-88986600D02*
X147210700Y-88986600D01*
%TO.N,Net-(J1-Pad14)*%
X158544700Y-92941300D02*
X148336000Y-92941300D01*
X146085400Y-94066600D02*
X147210700Y-94066600D01*
X148336000Y-92941300D02*
X147210700Y-94066600D01*
X162840000Y-88646000D02*
X158544700Y-92941300D01*
%TO.N,PLC4*%
X61255000Y-36059300D02*
X58394600Y-38919700D01*
X61255000Y-34884000D02*
X61255000Y-36059300D01*
X58394600Y-38919700D02*
X58394600Y-39092500D01*
%TO.N,PLC2*%
X63795000Y-32344000D02*
X63795000Y-31168700D01*
X63795000Y-31168700D02*
X63804800Y-31158900D01*
X63804800Y-31158900D02*
X63804800Y-28446100D01*
%TO.N,PLC5*%
X63795000Y-34884000D02*
X63795000Y-36059300D01*
X62738000Y-39117900D02*
X62738000Y-37116300D01*
X62738000Y-37116300D02*
X63795000Y-36059300D01*
%TO.N,PLC3*%
X153705400Y-96606600D02*
X157238300Y-96606600D01*
X157238300Y-96606600D02*
X157304100Y-96672400D01*
%TO.N,PLC6*%
X66344800Y-39067100D02*
X66335000Y-39057300D01*
X66335000Y-39057300D02*
X66335000Y-34884000D01*
%TO.N,Net-(J2-Pad2)*%
X34300000Y-28809000D02*
X28351800Y-28809000D01*
X28351800Y-28809000D02*
X28321000Y-28778200D01*
%TO.N,Net-(J2-Pad3)*%
X36840000Y-22207700D02*
X36831900Y-22199600D01*
X36840000Y-26269000D02*
X36840000Y-22207700D01*
%TO.N,Net-(J2-Pad6)*%
X39380000Y-32326100D02*
X39344600Y-32361500D01*
X39380000Y-28809000D02*
X39380000Y-32326100D01*
%TO.N,Net-(J2-Pad7)*%
X43095300Y-26269000D02*
X44290400Y-25073900D01*
X41920000Y-26269000D02*
X43095300Y-26269000D01*
X44290400Y-25073900D02*
X48109800Y-25073900D01*
X48109800Y-25073900D02*
X49147100Y-26111200D01*
%TO.N,Net-(P1-Pad27)*%
X90559700Y-32344000D02*
X90559700Y-31976700D01*
X38092100Y-25831700D02*
X38092100Y-26738800D01*
X37386600Y-27444300D02*
X27829900Y-27444300D01*
X91735000Y-32344000D02*
X90559700Y-32344000D01*
X39311100Y-24612700D02*
X38092100Y-25831700D01*
X27829900Y-27444300D02*
X26496000Y-28778200D01*
X83195700Y-24612700D02*
X39311100Y-24612700D01*
X90559700Y-31976700D02*
X83195700Y-24612700D01*
X38092100Y-26738800D02*
X37386600Y-27444300D01*
%TO.N,Net-(J4-Pad1)*%
X109880000Y-48534000D02*
X102594100Y-48534000D01*
X102594100Y-48534000D02*
X102588700Y-48539400D01*
%TO.N,Net-(J4-Pad2)*%
X102591300Y-51534000D02*
X102588700Y-51536600D01*
X109880000Y-51534000D02*
X102591300Y-51534000D01*
%TO.N,Net-(J4-Pad3)*%
X102614300Y-54534000D02*
X102614100Y-54533800D01*
X109880000Y-54534000D02*
X102614300Y-54534000D01*
%TO.N,Net-(J4-Pad4)*%
X102687300Y-57534000D02*
X102664900Y-57556400D01*
X109880000Y-57534000D02*
X102687300Y-57534000D01*
%TO.N,Net-(J4-Pad5)*%
X102696100Y-60534000D02*
X102690300Y-60528200D01*
X109880000Y-60534000D02*
X102696100Y-60534000D01*
%TO.N,Net-(J4-Pad6)*%
X109880000Y-63534000D02*
X102732500Y-63534000D01*
X102732500Y-63534000D02*
X102715700Y-63550800D01*
%TO.N,Net-(J4-Pad7)*%
X102777900Y-66534000D02*
X102766500Y-66522600D01*
X109880000Y-66534000D02*
X102777900Y-66534000D01*
%TO.N,Net-(J4-Pad8)*%
X109880000Y-69534000D02*
X102777700Y-69534000D01*
X102777700Y-69534000D02*
X102766500Y-69545200D01*
%TO.N,Net-(J4-Pad10)*%
X112880000Y-48534000D02*
X119692100Y-48534000D01*
X119692100Y-48534000D02*
X119712100Y-48514000D01*
%TO.N,Net-(J4-Pad11)*%
X112880000Y-51534000D02*
X119714700Y-51534000D01*
X119714700Y-51534000D02*
X119737500Y-51511200D01*
%TO.N,Net-(J4-Pad12)*%
X112880000Y-54534000D02*
X119737300Y-54534000D01*
X119737300Y-54534000D02*
X119737500Y-54533800D01*
%TO.N,Net-(J4-Pad13)*%
X112883000Y-57531000D02*
X119737500Y-57531000D01*
X112880000Y-57534000D02*
X112883000Y-57531000D01*
%TO.N,Net-(J4-Pad14)*%
X112880000Y-60534000D02*
X119768700Y-60534000D01*
X119768700Y-60534000D02*
X119788300Y-60553600D01*
%TO.N,Net-(J5-Pad3)*%
X87042200Y-55511900D02*
X89535000Y-53019100D01*
X83840000Y-60134000D02*
X85340100Y-58633900D01*
X85340100Y-57089100D02*
X86917300Y-55511900D01*
X89535000Y-53019100D02*
X89535000Y-47599600D01*
X86917300Y-55511900D02*
X87042200Y-55511900D01*
X85340100Y-58633900D02*
X85340100Y-57089100D01*
%TO.N,Net-(J5-Pad4)*%
X83840000Y-63134000D02*
X85764700Y-61209300D01*
X85764700Y-59667600D02*
X86798300Y-58634000D01*
X86798300Y-58634000D02*
X86937900Y-58634000D01*
X86937900Y-58634000D02*
X92075000Y-53496900D01*
X85764700Y-61209300D02*
X85764700Y-59667600D01*
X92075000Y-53496900D02*
X92075000Y-47599600D01*
%TO.N,Net-(J5-Pad5)*%
X77943100Y-66134000D02*
X77925300Y-66116200D01*
X83840000Y-66134000D02*
X77943100Y-66134000D01*
%TO.N,czujnik optyczny*%
X41986200Y-49172500D02*
X44577000Y-46581700D01*
X41986200Y-49172500D02*
X40677700Y-49172500D01*
X44577000Y-46581700D02*
X51409600Y-46581700D01*
%TO.N,UART*%
X43244800Y-82778600D02*
X42219400Y-83804000D01*
X42219400Y-88826500D02*
X43256200Y-89863300D01*
X42219400Y-83804000D02*
X42219400Y-88826500D01*
%TO.N,S1.1*%
X107950000Y-87839300D02*
X107950000Y-90400500D01*
X106976000Y-85690000D02*
X106976000Y-86865300D01*
X106976000Y-86865300D02*
X107950000Y-87839300D01*
%TO.N,S1.2*%
X106976000Y-81974700D02*
X107899200Y-81051500D01*
X107899200Y-81051500D02*
X107899200Y-79576300D01*
X106976000Y-83150000D02*
X106976000Y-81974700D01*
%TO.N,S1.3*%
X109516000Y-87242100D02*
X112699800Y-90425900D01*
X109516000Y-85690000D02*
X109516000Y-87242100D01*
%TO.N,S1.4*%
X109516000Y-81972700D02*
X111887000Y-79601700D01*
X109516000Y-83150000D02*
X109516000Y-81972700D01*
%TO.N,S2.1*%
X112056000Y-85690000D02*
X113231300Y-85690000D01*
X113231300Y-85690000D02*
X113231300Y-86817200D01*
X113231300Y-86817200D02*
X116840000Y-90425900D01*
%TO.N,S2.2*%
X113231300Y-83150000D02*
X113231300Y-82194400D01*
X113231300Y-82194400D02*
X115798600Y-79627100D01*
X112056000Y-83150000D02*
X113231300Y-83150000D01*
%TO.N,S2.3*%
X115771300Y-86057300D02*
X120165300Y-90451300D01*
X115771300Y-85690000D02*
X115771300Y-86057300D01*
X114596000Y-85690000D02*
X115771300Y-85690000D01*
X120165300Y-90451300D02*
X120573800Y-90451300D01*
%TO.N,S2.4*%
X118926900Y-79627100D02*
X119634000Y-79627100D01*
X115771300Y-82782700D02*
X118926900Y-79627100D01*
X115771300Y-83150000D02*
X115771300Y-82782700D01*
X114596000Y-83150000D02*
X115771300Y-83150000D01*
%TO.N,uCOpt*%
X134952100Y-81938600D02*
X134916000Y-81974700D01*
X46768300Y-38275500D02*
X61403400Y-52910600D01*
X134952100Y-76581000D02*
X134952100Y-81938600D01*
X43121900Y-37150200D02*
X43121900Y-37431600D01*
X43121900Y-37431600D02*
X43965800Y-38275500D01*
X43965800Y-38275500D02*
X46768300Y-38275500D01*
X134916000Y-83150000D02*
X134916000Y-81974700D01*
X41996600Y-37150200D02*
X43121900Y-37150200D01*
%TO.N,Net-(R12-Pad2)*%
X31826200Y-35964500D02*
X31826200Y-34186500D01*
X31836600Y-37150200D02*
X31836600Y-35974900D01*
X31836600Y-35974900D02*
X31826200Y-35964500D01*
%TO.N,Net-(R13-Pad2)*%
X146085400Y-96606600D02*
X142837300Y-96606600D01*
X142837300Y-96606600D02*
X142796900Y-96647000D01*
%TO.N,Net-(R14-Pad2)*%
X142735700Y-91526600D02*
X142720700Y-91541600D01*
X146085400Y-91526600D02*
X142735700Y-91526600D01*
%TO.N,Net-(R15-Pad2)*%
X142654900Y-86446600D02*
X142619100Y-86410800D01*
X146085400Y-86446600D02*
X142654900Y-86446600D01*
%TO.N,Net-(R16-Pad2)*%
X142634100Y-81366600D02*
X142619100Y-81381600D01*
X146085400Y-81366600D02*
X142634100Y-81366600D01*
%TO.N,PG9*%
X34325400Y-57891600D02*
X39468500Y-57891600D01*
X39468500Y-57891600D02*
X39549700Y-57810400D01*
%TO.N,Net-(R26-Pad2)*%
X153660000Y-53609000D02*
X163034100Y-53609000D01*
X163034100Y-53609000D02*
X163069900Y-53644800D01*
%TO.N,Net-(R27-Pad2)*%
X162714300Y-58293000D02*
X163069900Y-58648600D01*
X155181300Y-58293000D02*
X162714300Y-58293000D01*
X154785300Y-58689000D02*
X155181300Y-58293000D01*
X153660000Y-58689000D02*
X154785300Y-58689000D01*
%TO.N,Net-(R28-Pad2)*%
X153660000Y-63769000D02*
X154785300Y-63769000D01*
X154785300Y-63769000D02*
X154793800Y-63777500D01*
X154793800Y-63777500D02*
X158978600Y-63777500D01*
%TO.N,Net-(R29-Pad2)*%
X163912600Y-57962100D02*
X163280200Y-57329700D01*
X153660000Y-68849000D02*
X155542000Y-68849000D01*
X163912600Y-60478400D02*
X163912600Y-57962100D01*
X163280200Y-57329700D02*
X158978600Y-57329700D01*
X155542000Y-68849000D02*
X163912600Y-60478400D01*
%TO.N,Net-(R34-Pad1)*%
X47076600Y-44770200D02*
X51396100Y-44770200D01*
X51396100Y-44770200D02*
X51409600Y-44756700D01*
%TO.N,Net-(R35-Pad1)*%
X41986200Y-45955900D02*
X41986200Y-47347500D01*
X41996600Y-45945500D02*
X41986200Y-45955900D01*
X41996600Y-44770200D02*
X41996600Y-45945500D01*
%TO.N,Net-(R36-Pad1)*%
X36906200Y-45955900D02*
X36906200Y-47296700D01*
X36916600Y-44770200D02*
X36916600Y-45945500D01*
X36916600Y-45945500D02*
X36906200Y-45955900D01*
%TO.N,reserved*%
X123451600Y-31944800D02*
X123451600Y-32830500D01*
X122762700Y-33519400D02*
X88669400Y-33519400D01*
X132375000Y-32344000D02*
X131199700Y-32344000D01*
X87925000Y-31871300D02*
X81812800Y-25759100D01*
X124259600Y-31136800D02*
X123451600Y-31944800D01*
X38300300Y-47727600D02*
X36906200Y-49121700D01*
X131199700Y-31976700D02*
X130359800Y-31136800D01*
X123451600Y-32830500D02*
X122762700Y-33519400D01*
X46341500Y-33274000D02*
X38641100Y-33274000D01*
X131199700Y-32344000D02*
X131199700Y-31976700D01*
X87925000Y-32775000D02*
X87925000Y-31871300D01*
X38300300Y-33614800D02*
X38300300Y-47727600D01*
X38641100Y-33274000D02*
X38300300Y-33614800D01*
X130359800Y-31136800D02*
X124259600Y-31136800D01*
X53856400Y-25759100D02*
X46341500Y-33274000D01*
X88669400Y-33519400D02*
X87925000Y-32775000D01*
X81812800Y-25759100D02*
X53856400Y-25759100D01*
%TO.N,Net-(R37-Pad1)*%
X31851600Y-45960500D02*
X31851600Y-47245900D01*
X31836600Y-45945500D02*
X31851600Y-45960500D01*
X31836600Y-44770200D02*
X31836600Y-45945500D01*
%TO.N,PLC1*%
X146040000Y-53609000D02*
X146040000Y-52483700D01*
X146026500Y-52470200D02*
X146026500Y-47193200D01*
X146040000Y-52483700D02*
X146026500Y-52470200D01*
%TO.N,Net-(R46-Pad1)*%
X142578700Y-63769000D02*
X142542900Y-63804800D01*
X146040000Y-63769000D02*
X142578700Y-63769000D01*
%TO.N,Net-(U1-Pad12)*%
X45481400Y-60497800D02*
X44306100Y-60497800D01*
X44239900Y-60431600D02*
X44306100Y-60497800D01*
X34325400Y-60431600D02*
X44239900Y-60431600D01*
%TO.N,Net-(J1-Pad1)*%
X159840000Y-70646000D02*
X159840000Y-66247300D01*
X159840000Y-66247300D02*
X163069900Y-63017400D01*
%TO.N,Net-(J1-Pad4)*%
X157689400Y-77495400D02*
X142517500Y-77495400D01*
X159840000Y-79646000D02*
X157689400Y-77495400D01*
%TD*%
M02*
