%TF.GenerationSoftware,KiCad,Pcbnew,(6.0.9)*%
%TF.CreationDate,2022-12-05T20:20:54+01:00*%
%TF.ProjectId,projekt,70726f6a-656b-4742-9e6b-696361645f70,rev?*%
%TF.SameCoordinates,Original*%
%TF.FileFunction,Legend,Top*%
%TF.FilePolarity,Positive*%
%FSLAX46Y46*%
G04 Gerber Fmt 4.6, Leading zero omitted, Abs format (unit mm)*
G04 Created by KiCad (PCBNEW (6.0.9)) date 2022-12-05 20:20:54*
%MOMM*%
%LPD*%
G01*
G04 APERTURE LIST*
%ADD10C,0.150000*%
%ADD11C,0.120000*%
G04 APERTURE END LIST*
D10*
%TO.C,R4*%
X110689380Y-78855866D02*
X110213190Y-79189200D01*
X110689380Y-79427295D02*
X109689380Y-79427295D01*
X109689380Y-79046342D01*
X109737000Y-78951104D01*
X109784619Y-78903485D01*
X109879857Y-78855866D01*
X110022714Y-78855866D01*
X110117952Y-78903485D01*
X110165571Y-78951104D01*
X110213190Y-79046342D01*
X110213190Y-79427295D01*
X110022714Y-77998723D02*
X110689380Y-77998723D01*
X109641761Y-78236819D02*
X110356047Y-78474914D01*
X110356047Y-77855866D01*
%TO.C,R15*%
X141063742Y-85213180D02*
X140730409Y-84736990D01*
X140492314Y-85213180D02*
X140492314Y-84213180D01*
X140873266Y-84213180D01*
X140968504Y-84260800D01*
X141016123Y-84308419D01*
X141063742Y-84403657D01*
X141063742Y-84546514D01*
X141016123Y-84641752D01*
X140968504Y-84689371D01*
X140873266Y-84736990D01*
X140492314Y-84736990D01*
X142016123Y-85213180D02*
X141444695Y-85213180D01*
X141730409Y-85213180D02*
X141730409Y-84213180D01*
X141635171Y-84356038D01*
X141539933Y-84451276D01*
X141444695Y-84498895D01*
X142920885Y-84213180D02*
X142444695Y-84213180D01*
X142397076Y-84689371D01*
X142444695Y-84641752D01*
X142539933Y-84594133D01*
X142778028Y-84594133D01*
X142873266Y-84641752D01*
X142920885Y-84689371D01*
X142968504Y-84784609D01*
X142968504Y-85022704D01*
X142920885Y-85117942D01*
X142873266Y-85165561D01*
X142778028Y-85213180D01*
X142539933Y-85213180D01*
X142444695Y-85165561D01*
X142397076Y-85117942D01*
%TO.C,R17*%
X101033342Y-47341780D02*
X100700009Y-46865590D01*
X100461914Y-47341780D02*
X100461914Y-46341780D01*
X100842866Y-46341780D01*
X100938104Y-46389400D01*
X100985723Y-46437019D01*
X101033342Y-46532257D01*
X101033342Y-46675114D01*
X100985723Y-46770352D01*
X100938104Y-46817971D01*
X100842866Y-46865590D01*
X100461914Y-46865590D01*
X101985723Y-47341780D02*
X101414295Y-47341780D01*
X101700009Y-47341780D02*
X101700009Y-46341780D01*
X101604771Y-46484638D01*
X101509533Y-46579876D01*
X101414295Y-46627495D01*
X102319057Y-46341780D02*
X102985723Y-46341780D01*
X102557152Y-47341780D01*
%TO.C,R23*%
X101211142Y-65324980D02*
X100877809Y-64848790D01*
X100639714Y-65324980D02*
X100639714Y-64324980D01*
X101020666Y-64324980D01*
X101115904Y-64372600D01*
X101163523Y-64420219D01*
X101211142Y-64515457D01*
X101211142Y-64658314D01*
X101163523Y-64753552D01*
X101115904Y-64801171D01*
X101020666Y-64848790D01*
X100639714Y-64848790D01*
X101592095Y-64420219D02*
X101639714Y-64372600D01*
X101734952Y-64324980D01*
X101973047Y-64324980D01*
X102068285Y-64372600D01*
X102115904Y-64420219D01*
X102163523Y-64515457D01*
X102163523Y-64610695D01*
X102115904Y-64753552D01*
X101544476Y-65324980D01*
X102163523Y-65324980D01*
X102496857Y-64324980D02*
X103115904Y-64324980D01*
X102782571Y-64705933D01*
X102925428Y-64705933D01*
X103020666Y-64753552D01*
X103068285Y-64801171D01*
X103115904Y-64896409D01*
X103115904Y-65134504D01*
X103068285Y-65229742D01*
X103020666Y-65277361D01*
X102925428Y-65324980D01*
X102639714Y-65324980D01*
X102544476Y-65277361D01*
X102496857Y-65229742D01*
%TO.C,R37*%
X33953980Y-48801257D02*
X33477790Y-49134590D01*
X33953980Y-49372685D02*
X32953980Y-49372685D01*
X32953980Y-48991733D01*
X33001600Y-48896495D01*
X33049219Y-48848876D01*
X33144457Y-48801257D01*
X33287314Y-48801257D01*
X33382552Y-48848876D01*
X33430171Y-48896495D01*
X33477790Y-48991733D01*
X33477790Y-49372685D01*
X32953980Y-48467923D02*
X32953980Y-47848876D01*
X33334933Y-48182209D01*
X33334933Y-48039352D01*
X33382552Y-47944114D01*
X33430171Y-47896495D01*
X33525409Y-47848876D01*
X33763504Y-47848876D01*
X33858742Y-47896495D01*
X33906361Y-47944114D01*
X33953980Y-48039352D01*
X33953980Y-48325066D01*
X33906361Y-48420304D01*
X33858742Y-48467923D01*
X32953980Y-47515542D02*
X32953980Y-46848876D01*
X33953980Y-47277447D01*
%TO.C,R14*%
X141165342Y-90343980D02*
X140832009Y-89867790D01*
X140593914Y-90343980D02*
X140593914Y-89343980D01*
X140974866Y-89343980D01*
X141070104Y-89391600D01*
X141117723Y-89439219D01*
X141165342Y-89534457D01*
X141165342Y-89677314D01*
X141117723Y-89772552D01*
X141070104Y-89820171D01*
X140974866Y-89867790D01*
X140593914Y-89867790D01*
X142117723Y-90343980D02*
X141546295Y-90343980D01*
X141832009Y-90343980D02*
X141832009Y-89343980D01*
X141736771Y-89486838D01*
X141641533Y-89582076D01*
X141546295Y-89629695D01*
X142974866Y-89677314D02*
X142974866Y-90343980D01*
X142736771Y-89296361D02*
X142498676Y-90010647D01*
X143117723Y-90010647D01*
%TO.C,R22*%
X101160342Y-62353180D02*
X100827009Y-61876990D01*
X100588914Y-62353180D02*
X100588914Y-61353180D01*
X100969866Y-61353180D01*
X101065104Y-61400800D01*
X101112723Y-61448419D01*
X101160342Y-61543657D01*
X101160342Y-61686514D01*
X101112723Y-61781752D01*
X101065104Y-61829371D01*
X100969866Y-61876990D01*
X100588914Y-61876990D01*
X101541295Y-61448419D02*
X101588914Y-61400800D01*
X101684152Y-61353180D01*
X101922247Y-61353180D01*
X102017485Y-61400800D01*
X102065104Y-61448419D01*
X102112723Y-61543657D01*
X102112723Y-61638895D01*
X102065104Y-61781752D01*
X101493676Y-62353180D01*
X102112723Y-62353180D01*
X102493676Y-61448419D02*
X102541295Y-61400800D01*
X102636533Y-61353180D01*
X102874628Y-61353180D01*
X102969866Y-61400800D01*
X103017485Y-61448419D01*
X103065104Y-61543657D01*
X103065104Y-61638895D01*
X103017485Y-61781752D01*
X102446057Y-62353180D01*
X103065104Y-62353180D01*
%TO.C,R28*%
X161080980Y-63507857D02*
X160604790Y-63841190D01*
X161080980Y-64079285D02*
X160080980Y-64079285D01*
X160080980Y-63698333D01*
X160128600Y-63603095D01*
X160176219Y-63555476D01*
X160271457Y-63507857D01*
X160414314Y-63507857D01*
X160509552Y-63555476D01*
X160557171Y-63603095D01*
X160604790Y-63698333D01*
X160604790Y-64079285D01*
X160176219Y-63126904D02*
X160128600Y-63079285D01*
X160080980Y-62984047D01*
X160080980Y-62745952D01*
X160128600Y-62650714D01*
X160176219Y-62603095D01*
X160271457Y-62555476D01*
X160366695Y-62555476D01*
X160509552Y-62603095D01*
X161080980Y-63174523D01*
X161080980Y-62555476D01*
X160509552Y-61984047D02*
X160461933Y-62079285D01*
X160414314Y-62126904D01*
X160319076Y-62174523D01*
X160271457Y-62174523D01*
X160176219Y-62126904D01*
X160128600Y-62079285D01*
X160080980Y-61984047D01*
X160080980Y-61793571D01*
X160128600Y-61698333D01*
X160176219Y-61650714D01*
X160271457Y-61603095D01*
X160319076Y-61603095D01*
X160414314Y-61650714D01*
X160461933Y-61698333D01*
X160509552Y-61793571D01*
X160509552Y-61984047D01*
X160557171Y-62079285D01*
X160604790Y-62126904D01*
X160700028Y-62174523D01*
X160890504Y-62174523D01*
X160985742Y-62126904D01*
X161033361Y-62079285D01*
X161080980Y-61984047D01*
X161080980Y-61793571D01*
X161033361Y-61698333D01*
X160985742Y-61650714D01*
X160890504Y-61603095D01*
X160700028Y-61603095D01*
X160604790Y-61650714D01*
X160557171Y-61698333D01*
X160509552Y-61793571D01*
%TO.C,R20*%
X101109542Y-56358780D02*
X100776209Y-55882590D01*
X100538114Y-56358780D02*
X100538114Y-55358780D01*
X100919066Y-55358780D01*
X101014304Y-55406400D01*
X101061923Y-55454019D01*
X101109542Y-55549257D01*
X101109542Y-55692114D01*
X101061923Y-55787352D01*
X101014304Y-55834971D01*
X100919066Y-55882590D01*
X100538114Y-55882590D01*
X101490495Y-55454019D02*
X101538114Y-55406400D01*
X101633352Y-55358780D01*
X101871447Y-55358780D01*
X101966685Y-55406400D01*
X102014304Y-55454019D01*
X102061923Y-55549257D01*
X102061923Y-55644495D01*
X102014304Y-55787352D01*
X101442876Y-56358780D01*
X102061923Y-56358780D01*
X102680971Y-55358780D02*
X102776209Y-55358780D01*
X102871447Y-55406400D01*
X102919066Y-55454019D01*
X102966685Y-55549257D01*
X103014304Y-55739733D01*
X103014304Y-55977828D01*
X102966685Y-56168304D01*
X102919066Y-56263542D01*
X102871447Y-56311161D01*
X102776209Y-56358780D01*
X102680971Y-56358780D01*
X102585733Y-56311161D01*
X102538114Y-56263542D01*
X102490495Y-56168304D01*
X102442876Y-55977828D01*
X102442876Y-55739733D01*
X102490495Y-55549257D01*
X102538114Y-55454019D01*
X102585733Y-55406400D01*
X102680971Y-55358780D01*
%TO.C,R45*%
X60496980Y-40647857D02*
X60020790Y-40981190D01*
X60496980Y-41219285D02*
X59496980Y-41219285D01*
X59496980Y-40838333D01*
X59544600Y-40743095D01*
X59592219Y-40695476D01*
X59687457Y-40647857D01*
X59830314Y-40647857D01*
X59925552Y-40695476D01*
X59973171Y-40743095D01*
X60020790Y-40838333D01*
X60020790Y-41219285D01*
X59830314Y-39790714D02*
X60496980Y-39790714D01*
X59449361Y-40028809D02*
X60163647Y-40266904D01*
X60163647Y-39647857D01*
X59496980Y-38790714D02*
X59496980Y-39266904D01*
X59973171Y-39314523D01*
X59925552Y-39266904D01*
X59877933Y-39171666D01*
X59877933Y-38933571D01*
X59925552Y-38838333D01*
X59973171Y-38790714D01*
X60068409Y-38743095D01*
X60306504Y-38743095D01*
X60401742Y-38790714D01*
X60449361Y-38838333D01*
X60496980Y-38933571D01*
X60496980Y-39171666D01*
X60449361Y-39266904D01*
X60401742Y-39314523D01*
%TO.C,D7*%
X150925304Y-34399780D02*
X150925304Y-33399780D01*
X151163400Y-33399780D01*
X151306257Y-33447400D01*
X151401495Y-33542638D01*
X151449114Y-33637876D01*
X151496733Y-33828352D01*
X151496733Y-33971209D01*
X151449114Y-34161685D01*
X151401495Y-34256923D01*
X151306257Y-34352161D01*
X151163400Y-34399780D01*
X150925304Y-34399780D01*
X151830066Y-33399780D02*
X152496733Y-33399780D01*
X152068161Y-34399780D01*
%TO.C,R35*%
X44088580Y-48902857D02*
X43612390Y-49236190D01*
X44088580Y-49474285D02*
X43088580Y-49474285D01*
X43088580Y-49093333D01*
X43136200Y-48998095D01*
X43183819Y-48950476D01*
X43279057Y-48902857D01*
X43421914Y-48902857D01*
X43517152Y-48950476D01*
X43564771Y-48998095D01*
X43612390Y-49093333D01*
X43612390Y-49474285D01*
X43088580Y-48569523D02*
X43088580Y-47950476D01*
X43469533Y-48283809D01*
X43469533Y-48140952D01*
X43517152Y-48045714D01*
X43564771Y-47998095D01*
X43660009Y-47950476D01*
X43898104Y-47950476D01*
X43993342Y-47998095D01*
X44040961Y-48045714D01*
X44088580Y-48140952D01*
X44088580Y-48426666D01*
X44040961Y-48521904D01*
X43993342Y-48569523D01*
X43088580Y-47045714D02*
X43088580Y-47521904D01*
X43564771Y-47569523D01*
X43517152Y-47521904D01*
X43469533Y-47426666D01*
X43469533Y-47188571D01*
X43517152Y-47093333D01*
X43564771Y-47045714D01*
X43660009Y-46998095D01*
X43898104Y-46998095D01*
X43993342Y-47045714D01*
X44040961Y-47093333D01*
X44088580Y-47188571D01*
X44088580Y-47426666D01*
X44040961Y-47521904D01*
X43993342Y-47569523D01*
%TO.C,R12*%
X33928580Y-33916857D02*
X33452390Y-34250190D01*
X33928580Y-34488285D02*
X32928580Y-34488285D01*
X32928580Y-34107333D01*
X32976200Y-34012095D01*
X33023819Y-33964476D01*
X33119057Y-33916857D01*
X33261914Y-33916857D01*
X33357152Y-33964476D01*
X33404771Y-34012095D01*
X33452390Y-34107333D01*
X33452390Y-34488285D01*
X33928580Y-32964476D02*
X33928580Y-33535904D01*
X33928580Y-33250190D02*
X32928580Y-33250190D01*
X33071438Y-33345428D01*
X33166676Y-33440666D01*
X33214295Y-33535904D01*
X33023819Y-32583523D02*
X32976200Y-32535904D01*
X32928580Y-32440666D01*
X32928580Y-32202571D01*
X32976200Y-32107333D01*
X33023819Y-32059714D01*
X33119057Y-32012095D01*
X33214295Y-32012095D01*
X33357152Y-32059714D01*
X33928580Y-32631142D01*
X33928580Y-32012095D01*
%TO.C,D10*%
X135390180Y-54478085D02*
X134390180Y-54478085D01*
X134390180Y-54239990D01*
X134437800Y-54097133D01*
X134533038Y-54001895D01*
X134628276Y-53954276D01*
X134818752Y-53906657D01*
X134961609Y-53906657D01*
X135152085Y-53954276D01*
X135247323Y-54001895D01*
X135342561Y-54097133D01*
X135390180Y-54239990D01*
X135390180Y-54478085D01*
X135390180Y-52954276D02*
X135390180Y-53525704D01*
X135390180Y-53239990D02*
X134390180Y-53239990D01*
X134533038Y-53335228D01*
X134628276Y-53430466D01*
X134675895Y-53525704D01*
X134390180Y-52335228D02*
X134390180Y-52239990D01*
X134437800Y-52144752D01*
X134485419Y-52097133D01*
X134580657Y-52049514D01*
X134771133Y-52001895D01*
X135009228Y-52001895D01*
X135199704Y-52049514D01*
X135294942Y-52097133D01*
X135342561Y-52144752D01*
X135390180Y-52239990D01*
X135390180Y-52335228D01*
X135342561Y-52430466D01*
X135294942Y-52478085D01*
X135199704Y-52525704D01*
X135009228Y-52573323D01*
X134771133Y-52573323D01*
X134580657Y-52525704D01*
X134485419Y-52478085D01*
X134437800Y-52430466D01*
X134390180Y-52335228D01*
%TO.C,R30*%
X157573742Y-98774780D02*
X157240409Y-98298590D01*
X157002314Y-98774780D02*
X157002314Y-97774780D01*
X157383266Y-97774780D01*
X157478504Y-97822400D01*
X157526123Y-97870019D01*
X157573742Y-97965257D01*
X157573742Y-98108114D01*
X157526123Y-98203352D01*
X157478504Y-98250971D01*
X157383266Y-98298590D01*
X157002314Y-98298590D01*
X157907076Y-97774780D02*
X158526123Y-97774780D01*
X158192790Y-98155733D01*
X158335647Y-98155733D01*
X158430885Y-98203352D01*
X158478504Y-98250971D01*
X158526123Y-98346209D01*
X158526123Y-98584304D01*
X158478504Y-98679542D01*
X158430885Y-98727161D01*
X158335647Y-98774780D01*
X158049933Y-98774780D01*
X157954695Y-98727161D01*
X157907076Y-98679542D01*
X159145171Y-97774780D02*
X159240409Y-97774780D01*
X159335647Y-97822400D01*
X159383266Y-97870019D01*
X159430885Y-97965257D01*
X159478504Y-98155733D01*
X159478504Y-98393828D01*
X159430885Y-98584304D01*
X159383266Y-98679542D01*
X159335647Y-98727161D01*
X159240409Y-98774780D01*
X159145171Y-98774780D01*
X159049933Y-98727161D01*
X159002314Y-98679542D01*
X158954695Y-98584304D01*
X158907076Y-98393828D01*
X158907076Y-98155733D01*
X158954695Y-97965257D01*
X159002314Y-97870019D01*
X159049933Y-97822400D01*
X159145171Y-97774780D01*
%TO.C,R7*%
X122676180Y-91530466D02*
X122199990Y-91863800D01*
X122676180Y-92101895D02*
X121676180Y-92101895D01*
X121676180Y-91720942D01*
X121723800Y-91625704D01*
X121771419Y-91578085D01*
X121866657Y-91530466D01*
X122009514Y-91530466D01*
X122104752Y-91578085D01*
X122152371Y-91625704D01*
X122199990Y-91720942D01*
X122199990Y-92101895D01*
X121676180Y-91197133D02*
X121676180Y-90530466D01*
X122676180Y-90959038D01*
%TO.C,REF1*%
X22498180Y-98080980D02*
X22164847Y-97604790D01*
X21926752Y-98080980D02*
X21926752Y-97080980D01*
X22307704Y-97080980D01*
X22402942Y-97128600D01*
X22450561Y-97176219D01*
X22498180Y-97271457D01*
X22498180Y-97414314D01*
X22450561Y-97509552D01*
X22402942Y-97557171D01*
X22307704Y-97604790D01*
X21926752Y-97604790D01*
X22926752Y-97557171D02*
X23260085Y-97557171D01*
X23402942Y-98080980D02*
X22926752Y-98080980D01*
X22926752Y-97080980D01*
X23402942Y-97080980D01*
X24164847Y-97557171D02*
X23831514Y-97557171D01*
X23831514Y-98080980D02*
X23831514Y-97080980D01*
X24307704Y-97080980D01*
X25212466Y-98080980D02*
X24641038Y-98080980D01*
X24926752Y-98080980D02*
X24926752Y-97080980D01*
X24831514Y-97223838D01*
X24736276Y-97319076D01*
X24641038Y-97366695D01*
%TO.C,R46*%
X140987542Y-65907180D02*
X140654209Y-65430990D01*
X140416114Y-65907180D02*
X140416114Y-64907180D01*
X140797066Y-64907180D01*
X140892304Y-64954800D01*
X140939923Y-65002419D01*
X140987542Y-65097657D01*
X140987542Y-65240514D01*
X140939923Y-65335752D01*
X140892304Y-65383371D01*
X140797066Y-65430990D01*
X140416114Y-65430990D01*
X141844685Y-65240514D02*
X141844685Y-65907180D01*
X141606590Y-64859561D02*
X141368495Y-65573847D01*
X141987542Y-65573847D01*
X142797066Y-64907180D02*
X142606590Y-64907180D01*
X142511352Y-64954800D01*
X142463733Y-65002419D01*
X142368495Y-65145276D01*
X142320876Y-65335752D01*
X142320876Y-65716704D01*
X142368495Y-65811942D01*
X142416114Y-65859561D01*
X142511352Y-65907180D01*
X142701828Y-65907180D01*
X142797066Y-65859561D01*
X142844685Y-65811942D01*
X142892304Y-65716704D01*
X142892304Y-65478609D01*
X142844685Y-65383371D01*
X142797066Y-65335752D01*
X142701828Y-65288133D01*
X142511352Y-65288133D01*
X142416114Y-65335752D01*
X142368495Y-65383371D01*
X142320876Y-65478609D01*
%TO.C,D11*%
X126446114Y-58910180D02*
X126446114Y-57910180D01*
X126684209Y-57910180D01*
X126827066Y-57957800D01*
X126922304Y-58053038D01*
X126969923Y-58148276D01*
X127017542Y-58338752D01*
X127017542Y-58481609D01*
X126969923Y-58672085D01*
X126922304Y-58767323D01*
X126827066Y-58862561D01*
X126684209Y-58910180D01*
X126446114Y-58910180D01*
X127969923Y-58910180D02*
X127398495Y-58910180D01*
X127684209Y-58910180D02*
X127684209Y-57910180D01*
X127588971Y-58053038D01*
X127493733Y-58148276D01*
X127398495Y-58195895D01*
X128922304Y-58910180D02*
X128350876Y-58910180D01*
X128636590Y-58910180D02*
X128636590Y-57910180D01*
X128541352Y-58053038D01*
X128446114Y-58148276D01*
X128350876Y-58195895D01*
%TO.C,R11*%
X140962142Y-76297780D02*
X140628809Y-75821590D01*
X140390714Y-76297780D02*
X140390714Y-75297780D01*
X140771666Y-75297780D01*
X140866904Y-75345400D01*
X140914523Y-75393019D01*
X140962142Y-75488257D01*
X140962142Y-75631114D01*
X140914523Y-75726352D01*
X140866904Y-75773971D01*
X140771666Y-75821590D01*
X140390714Y-75821590D01*
X141914523Y-76297780D02*
X141343095Y-76297780D01*
X141628809Y-76297780D02*
X141628809Y-75297780D01*
X141533571Y-75440638D01*
X141438333Y-75535876D01*
X141343095Y-75583495D01*
X142866904Y-76297780D02*
X142295476Y-76297780D01*
X142581190Y-76297780D02*
X142581190Y-75297780D01*
X142485952Y-75440638D01*
X142390714Y-75535876D01*
X142295476Y-75583495D01*
%TO.C,D12*%
X52534780Y-98775685D02*
X51534780Y-98775685D01*
X51534780Y-98537590D01*
X51582400Y-98394733D01*
X51677638Y-98299495D01*
X51772876Y-98251876D01*
X51963352Y-98204257D01*
X52106209Y-98204257D01*
X52296685Y-98251876D01*
X52391923Y-98299495D01*
X52487161Y-98394733D01*
X52534780Y-98537590D01*
X52534780Y-98775685D01*
X52534780Y-97251876D02*
X52534780Y-97823304D01*
X52534780Y-97537590D02*
X51534780Y-97537590D01*
X51677638Y-97632828D01*
X51772876Y-97728066D01*
X51820495Y-97823304D01*
X51630019Y-96870923D02*
X51582400Y-96823304D01*
X51534780Y-96728066D01*
X51534780Y-96489971D01*
X51582400Y-96394733D01*
X51630019Y-96347114D01*
X51725257Y-96299495D01*
X51820495Y-96299495D01*
X51963352Y-96347114D01*
X52534780Y-96918542D01*
X52534780Y-96299495D01*
%TO.C,R9*%
X163815733Y-65119780D02*
X163482400Y-64643590D01*
X163244304Y-65119780D02*
X163244304Y-64119780D01*
X163625257Y-64119780D01*
X163720495Y-64167400D01*
X163768114Y-64215019D01*
X163815733Y-64310257D01*
X163815733Y-64453114D01*
X163768114Y-64548352D01*
X163720495Y-64595971D01*
X163625257Y-64643590D01*
X163244304Y-64643590D01*
X164291923Y-65119780D02*
X164482400Y-65119780D01*
X164577638Y-65072161D01*
X164625257Y-65024542D01*
X164720495Y-64881685D01*
X164768114Y-64691209D01*
X164768114Y-64310257D01*
X164720495Y-64215019D01*
X164672876Y-64167400D01*
X164577638Y-64119780D01*
X164387161Y-64119780D01*
X164291923Y-64167400D01*
X164244304Y-64215019D01*
X164196685Y-64310257D01*
X164196685Y-64548352D01*
X164244304Y-64643590D01*
X164291923Y-64691209D01*
X164387161Y-64738828D01*
X164577638Y-64738828D01*
X164672876Y-64691209D01*
X164720495Y-64643590D01*
X164768114Y-64548352D01*
%TO.C,R18*%
X101033342Y-50338980D02*
X100700009Y-49862790D01*
X100461914Y-50338980D02*
X100461914Y-49338980D01*
X100842866Y-49338980D01*
X100938104Y-49386600D01*
X100985723Y-49434219D01*
X101033342Y-49529457D01*
X101033342Y-49672314D01*
X100985723Y-49767552D01*
X100938104Y-49815171D01*
X100842866Y-49862790D01*
X100461914Y-49862790D01*
X101985723Y-50338980D02*
X101414295Y-50338980D01*
X101700009Y-50338980D02*
X101700009Y-49338980D01*
X101604771Y-49481838D01*
X101509533Y-49577076D01*
X101414295Y-49624695D01*
X102557152Y-49767552D02*
X102461914Y-49719933D01*
X102414295Y-49672314D01*
X102366676Y-49577076D01*
X102366676Y-49529457D01*
X102414295Y-49434219D01*
X102461914Y-49386600D01*
X102557152Y-49338980D01*
X102747628Y-49338980D01*
X102842866Y-49386600D01*
X102890485Y-49434219D01*
X102938104Y-49529457D01*
X102938104Y-49577076D01*
X102890485Y-49672314D01*
X102842866Y-49719933D01*
X102747628Y-49767552D01*
X102557152Y-49767552D01*
X102461914Y-49815171D01*
X102414295Y-49862790D01*
X102366676Y-49958028D01*
X102366676Y-50148504D01*
X102414295Y-50243742D01*
X102461914Y-50291361D01*
X102557152Y-50338980D01*
X102747628Y-50338980D01*
X102842866Y-50291361D01*
X102890485Y-50243742D01*
X102938104Y-50148504D01*
X102938104Y-49958028D01*
X102890485Y-49862790D01*
X102842866Y-49815171D01*
X102747628Y-49767552D01*
%TO.C,D8*%
X138310580Y-60783695D02*
X137310580Y-60783695D01*
X137310580Y-60545600D01*
X137358200Y-60402742D01*
X137453438Y-60307504D01*
X137548676Y-60259885D01*
X137739152Y-60212266D01*
X137882009Y-60212266D01*
X138072485Y-60259885D01*
X138167723Y-60307504D01*
X138262961Y-60402742D01*
X138310580Y-60545600D01*
X138310580Y-60783695D01*
X137739152Y-59640838D02*
X137691533Y-59736076D01*
X137643914Y-59783695D01*
X137548676Y-59831314D01*
X137501057Y-59831314D01*
X137405819Y-59783695D01*
X137358200Y-59736076D01*
X137310580Y-59640838D01*
X137310580Y-59450361D01*
X137358200Y-59355123D01*
X137405819Y-59307504D01*
X137501057Y-59259885D01*
X137548676Y-59259885D01*
X137643914Y-59307504D01*
X137691533Y-59355123D01*
X137739152Y-59450361D01*
X137739152Y-59640838D01*
X137786771Y-59736076D01*
X137834390Y-59783695D01*
X137929628Y-59831314D01*
X138120104Y-59831314D01*
X138215342Y-59783695D01*
X138262961Y-59736076D01*
X138310580Y-59640838D01*
X138310580Y-59450361D01*
X138262961Y-59355123D01*
X138215342Y-59307504D01*
X138120104Y-59259885D01*
X137929628Y-59259885D01*
X137834390Y-59307504D01*
X137786771Y-59355123D01*
X137739152Y-59450361D01*
%TO.C,R5*%
X118942380Y-91505066D02*
X118466190Y-91838400D01*
X118942380Y-92076495D02*
X117942380Y-92076495D01*
X117942380Y-91695542D01*
X117990000Y-91600304D01*
X118037619Y-91552685D01*
X118132857Y-91505066D01*
X118275714Y-91505066D01*
X118370952Y-91552685D01*
X118418571Y-91600304D01*
X118466190Y-91695542D01*
X118466190Y-92076495D01*
X117942380Y-90600304D02*
X117942380Y-91076495D01*
X118418571Y-91124114D01*
X118370952Y-91076495D01*
X118323333Y-90981257D01*
X118323333Y-90743161D01*
X118370952Y-90647923D01*
X118418571Y-90600304D01*
X118513809Y-90552685D01*
X118751904Y-90552685D01*
X118847142Y-90600304D01*
X118894761Y-90647923D01*
X118942380Y-90743161D01*
X118942380Y-90981257D01*
X118894761Y-91076495D01*
X118847142Y-91124114D01*
%TO.C,D16*%
X87383580Y-94686285D02*
X86383580Y-94686285D01*
X86383580Y-94448190D01*
X86431200Y-94305333D01*
X86526438Y-94210095D01*
X86621676Y-94162476D01*
X86812152Y-94114857D01*
X86955009Y-94114857D01*
X87145485Y-94162476D01*
X87240723Y-94210095D01*
X87335961Y-94305333D01*
X87383580Y-94448190D01*
X87383580Y-94686285D01*
X87383580Y-93162476D02*
X87383580Y-93733904D01*
X87383580Y-93448190D02*
X86383580Y-93448190D01*
X86526438Y-93543428D01*
X86621676Y-93638666D01*
X86669295Y-93733904D01*
X86383580Y-92305333D02*
X86383580Y-92495809D01*
X86431200Y-92591047D01*
X86478819Y-92638666D01*
X86621676Y-92733904D01*
X86812152Y-92781523D01*
X87193104Y-92781523D01*
X87288342Y-92733904D01*
X87335961Y-92686285D01*
X87383580Y-92591047D01*
X87383580Y-92400571D01*
X87335961Y-92305333D01*
X87288342Y-92257714D01*
X87193104Y-92210095D01*
X86955009Y-92210095D01*
X86859771Y-92257714D01*
X86812152Y-92305333D01*
X86764533Y-92400571D01*
X86764533Y-92591047D01*
X86812152Y-92686285D01*
X86859771Y-92733904D01*
X86955009Y-92781523D01*
%TO.C,R13*%
X141241542Y-95449380D02*
X140908209Y-94973190D01*
X140670114Y-95449380D02*
X140670114Y-94449380D01*
X141051066Y-94449380D01*
X141146304Y-94497000D01*
X141193923Y-94544619D01*
X141241542Y-94639857D01*
X141241542Y-94782714D01*
X141193923Y-94877952D01*
X141146304Y-94925571D01*
X141051066Y-94973190D01*
X140670114Y-94973190D01*
X142193923Y-95449380D02*
X141622495Y-95449380D01*
X141908209Y-95449380D02*
X141908209Y-94449380D01*
X141812971Y-94592238D01*
X141717733Y-94687476D01*
X141622495Y-94735095D01*
X142527257Y-94449380D02*
X143146304Y-94449380D01*
X142812971Y-94830333D01*
X142955828Y-94830333D01*
X143051066Y-94877952D01*
X143098685Y-94925571D01*
X143146304Y-95020809D01*
X143146304Y-95258904D01*
X143098685Y-95354142D01*
X143051066Y-95401761D01*
X142955828Y-95449380D01*
X142670114Y-95449380D01*
X142574876Y-95401761D01*
X142527257Y-95354142D01*
%TO.C,D1*%
X101319104Y-79661980D02*
X101319104Y-78661980D01*
X101557200Y-78661980D01*
X101700057Y-78709600D01*
X101795295Y-78804838D01*
X101842914Y-78900076D01*
X101890533Y-79090552D01*
X101890533Y-79233409D01*
X101842914Y-79423885D01*
X101795295Y-79519123D01*
X101700057Y-79614361D01*
X101557200Y-79661980D01*
X101319104Y-79661980D01*
X102842914Y-79661980D02*
X102271485Y-79661980D01*
X102557200Y-79661980D02*
X102557200Y-78661980D01*
X102461961Y-78804838D01*
X102366723Y-78900076D01*
X102271485Y-78947695D01*
%TO.C,R44*%
X146296142Y-45995580D02*
X145962809Y-45519390D01*
X145724714Y-45995580D02*
X145724714Y-44995580D01*
X146105666Y-44995580D01*
X146200904Y-45043200D01*
X146248523Y-45090819D01*
X146296142Y-45186057D01*
X146296142Y-45328914D01*
X146248523Y-45424152D01*
X146200904Y-45471771D01*
X146105666Y-45519390D01*
X145724714Y-45519390D01*
X147153285Y-45328914D02*
X147153285Y-45995580D01*
X146915190Y-44947961D02*
X146677095Y-45662247D01*
X147296142Y-45662247D01*
X148105666Y-45328914D02*
X148105666Y-45995580D01*
X147867571Y-44947961D02*
X147629476Y-45662247D01*
X148248523Y-45662247D01*
%TO.C,R27*%
X163339542Y-60750980D02*
X163006209Y-60274790D01*
X162768114Y-60750980D02*
X162768114Y-59750980D01*
X163149066Y-59750980D01*
X163244304Y-59798600D01*
X163291923Y-59846219D01*
X163339542Y-59941457D01*
X163339542Y-60084314D01*
X163291923Y-60179552D01*
X163244304Y-60227171D01*
X163149066Y-60274790D01*
X162768114Y-60274790D01*
X163720495Y-59846219D02*
X163768114Y-59798600D01*
X163863352Y-59750980D01*
X164101447Y-59750980D01*
X164196685Y-59798600D01*
X164244304Y-59846219D01*
X164291923Y-59941457D01*
X164291923Y-60036695D01*
X164244304Y-60179552D01*
X163672876Y-60750980D01*
X164291923Y-60750980D01*
X164625257Y-59750980D02*
X165291923Y-59750980D01*
X164863352Y-60750980D01*
%TO.C,R53*%
X37101542Y-21001980D02*
X36768209Y-20525790D01*
X36530114Y-21001980D02*
X36530114Y-20001980D01*
X36911066Y-20001980D01*
X37006304Y-20049600D01*
X37053923Y-20097219D01*
X37101542Y-20192457D01*
X37101542Y-20335314D01*
X37053923Y-20430552D01*
X37006304Y-20478171D01*
X36911066Y-20525790D01*
X36530114Y-20525790D01*
X38006304Y-20001980D02*
X37530114Y-20001980D01*
X37482495Y-20478171D01*
X37530114Y-20430552D01*
X37625352Y-20382933D01*
X37863447Y-20382933D01*
X37958685Y-20430552D01*
X38006304Y-20478171D01*
X38053923Y-20573409D01*
X38053923Y-20811504D01*
X38006304Y-20906742D01*
X37958685Y-20954361D01*
X37863447Y-21001980D01*
X37625352Y-21001980D01*
X37530114Y-20954361D01*
X37482495Y-20906742D01*
X38387257Y-20001980D02*
X39006304Y-20001980D01*
X38672971Y-20382933D01*
X38815828Y-20382933D01*
X38911066Y-20430552D01*
X38958685Y-20478171D01*
X39006304Y-20573409D01*
X39006304Y-20811504D01*
X38958685Y-20906742D01*
X38911066Y-20954361D01*
X38815828Y-21001980D01*
X38530114Y-21001980D01*
X38434876Y-20954361D01*
X38387257Y-20906742D01*
%TO.C,R49*%
X45358580Y-89593657D02*
X44882390Y-89926990D01*
X45358580Y-90165085D02*
X44358580Y-90165085D01*
X44358580Y-89784133D01*
X44406200Y-89688895D01*
X44453819Y-89641276D01*
X44549057Y-89593657D01*
X44691914Y-89593657D01*
X44787152Y-89641276D01*
X44834771Y-89688895D01*
X44882390Y-89784133D01*
X44882390Y-90165085D01*
X44691914Y-88736514D02*
X45358580Y-88736514D01*
X44310961Y-88974609D02*
X45025247Y-89212704D01*
X45025247Y-88593657D01*
X45358580Y-88165085D02*
X45358580Y-87974609D01*
X45310961Y-87879371D01*
X45263342Y-87831752D01*
X45120485Y-87736514D01*
X44930009Y-87688895D01*
X44549057Y-87688895D01*
X44453819Y-87736514D01*
X44406200Y-87784133D01*
X44358580Y-87879371D01*
X44358580Y-88069847D01*
X44406200Y-88165085D01*
X44453819Y-88212704D01*
X44549057Y-88260323D01*
X44787152Y-88260323D01*
X44882390Y-88212704D01*
X44930009Y-88165085D01*
X44977628Y-88069847D01*
X44977628Y-87879371D01*
X44930009Y-87784133D01*
X44882390Y-87736514D01*
X44787152Y-87688895D01*
%TO.C,R29*%
X157780980Y-58885057D02*
X157304790Y-59218390D01*
X157780980Y-59456485D02*
X156780980Y-59456485D01*
X156780980Y-59075533D01*
X156828600Y-58980295D01*
X156876219Y-58932676D01*
X156971457Y-58885057D01*
X157114314Y-58885057D01*
X157209552Y-58932676D01*
X157257171Y-58980295D01*
X157304790Y-59075533D01*
X157304790Y-59456485D01*
X156876219Y-58504104D02*
X156828600Y-58456485D01*
X156780980Y-58361247D01*
X156780980Y-58123152D01*
X156828600Y-58027914D01*
X156876219Y-57980295D01*
X156971457Y-57932676D01*
X157066695Y-57932676D01*
X157209552Y-57980295D01*
X157780980Y-58551723D01*
X157780980Y-57932676D01*
X157780980Y-57456485D02*
X157780980Y-57266009D01*
X157733361Y-57170771D01*
X157685742Y-57123152D01*
X157542885Y-57027914D01*
X157352409Y-56980295D01*
X156971457Y-56980295D01*
X156876219Y-57027914D01*
X156828600Y-57075533D01*
X156780980Y-57170771D01*
X156780980Y-57361247D01*
X156828600Y-57456485D01*
X156876219Y-57504104D01*
X156971457Y-57551723D01*
X157209552Y-57551723D01*
X157304790Y-57504104D01*
X157352409Y-57456485D01*
X157400028Y-57361247D01*
X157400028Y-57170771D01*
X157352409Y-57075533D01*
X157304790Y-57027914D01*
X157209552Y-56980295D01*
%TO.C,R47*%
X140987542Y-73527180D02*
X140654209Y-73050990D01*
X140416114Y-73527180D02*
X140416114Y-72527180D01*
X140797066Y-72527180D01*
X140892304Y-72574800D01*
X140939923Y-72622419D01*
X140987542Y-72717657D01*
X140987542Y-72860514D01*
X140939923Y-72955752D01*
X140892304Y-73003371D01*
X140797066Y-73050990D01*
X140416114Y-73050990D01*
X141844685Y-72860514D02*
X141844685Y-73527180D01*
X141606590Y-72479561D02*
X141368495Y-73193847D01*
X141987542Y-73193847D01*
X142273257Y-72527180D02*
X142939923Y-72527180D01*
X142511352Y-73527180D01*
%TO.C,P2*%
X56398380Y-85158095D02*
X55398380Y-85158095D01*
X55398380Y-84777142D01*
X55446000Y-84681904D01*
X55493619Y-84634285D01*
X55588857Y-84586666D01*
X55731714Y-84586666D01*
X55826952Y-84634285D01*
X55874571Y-84681904D01*
X55922190Y-84777142D01*
X55922190Y-85158095D01*
X55493619Y-84205714D02*
X55446000Y-84158095D01*
X55398380Y-84062857D01*
X55398380Y-83824761D01*
X55446000Y-83729523D01*
X55493619Y-83681904D01*
X55588857Y-83634285D01*
X55684095Y-83634285D01*
X55826952Y-83681904D01*
X56398380Y-84253333D01*
X56398380Y-83634285D01*
%TO.C,R32*%
X62607180Y-28176457D02*
X62130990Y-28509790D01*
X62607180Y-28747885D02*
X61607180Y-28747885D01*
X61607180Y-28366933D01*
X61654800Y-28271695D01*
X61702419Y-28224076D01*
X61797657Y-28176457D01*
X61940514Y-28176457D01*
X62035752Y-28224076D01*
X62083371Y-28271695D01*
X62130990Y-28366933D01*
X62130990Y-28747885D01*
X61607180Y-27843123D02*
X61607180Y-27224076D01*
X61988133Y-27557409D01*
X61988133Y-27414552D01*
X62035752Y-27319314D01*
X62083371Y-27271695D01*
X62178609Y-27224076D01*
X62416704Y-27224076D01*
X62511942Y-27271695D01*
X62559561Y-27319314D01*
X62607180Y-27414552D01*
X62607180Y-27700266D01*
X62559561Y-27795504D01*
X62511942Y-27843123D01*
X61702419Y-26843123D02*
X61654800Y-26795504D01*
X61607180Y-26700266D01*
X61607180Y-26462171D01*
X61654800Y-26366933D01*
X61702419Y-26319314D01*
X61797657Y-26271695D01*
X61892895Y-26271695D01*
X62035752Y-26319314D01*
X62607180Y-26890742D01*
X62607180Y-26271695D01*
%TO.C,R33*%
X64840380Y-40673257D02*
X64364190Y-41006590D01*
X64840380Y-41244685D02*
X63840380Y-41244685D01*
X63840380Y-40863733D01*
X63888000Y-40768495D01*
X63935619Y-40720876D01*
X64030857Y-40673257D01*
X64173714Y-40673257D01*
X64268952Y-40720876D01*
X64316571Y-40768495D01*
X64364190Y-40863733D01*
X64364190Y-41244685D01*
X63840380Y-40339923D02*
X63840380Y-39720876D01*
X64221333Y-40054209D01*
X64221333Y-39911352D01*
X64268952Y-39816114D01*
X64316571Y-39768495D01*
X64411809Y-39720876D01*
X64649904Y-39720876D01*
X64745142Y-39768495D01*
X64792761Y-39816114D01*
X64840380Y-39911352D01*
X64840380Y-40197066D01*
X64792761Y-40292304D01*
X64745142Y-40339923D01*
X63840380Y-39387542D02*
X63840380Y-38768495D01*
X64221333Y-39101828D01*
X64221333Y-38958971D01*
X64268952Y-38863733D01*
X64316571Y-38816114D01*
X64411809Y-38768495D01*
X64649904Y-38768495D01*
X64745142Y-38816114D01*
X64792761Y-38863733D01*
X64840380Y-38958971D01*
X64840380Y-39244685D01*
X64792761Y-39339923D01*
X64745142Y-39387542D01*
%TO.C,R51*%
X38146980Y-33916857D02*
X37670790Y-34250190D01*
X38146980Y-34488285D02*
X37146980Y-34488285D01*
X37146980Y-34107333D01*
X37194600Y-34012095D01*
X37242219Y-33964476D01*
X37337457Y-33916857D01*
X37480314Y-33916857D01*
X37575552Y-33964476D01*
X37623171Y-34012095D01*
X37670790Y-34107333D01*
X37670790Y-34488285D01*
X37146980Y-33012095D02*
X37146980Y-33488285D01*
X37623171Y-33535904D01*
X37575552Y-33488285D01*
X37527933Y-33393047D01*
X37527933Y-33154952D01*
X37575552Y-33059714D01*
X37623171Y-33012095D01*
X37718409Y-32964476D01*
X37956504Y-32964476D01*
X38051742Y-33012095D01*
X38099361Y-33059714D01*
X38146980Y-33154952D01*
X38146980Y-33393047D01*
X38099361Y-33488285D01*
X38051742Y-33535904D01*
X38146980Y-32012095D02*
X38146980Y-32583523D01*
X38146980Y-32297809D02*
X37146980Y-32297809D01*
X37289838Y-32393047D01*
X37385076Y-32488285D01*
X37432695Y-32583523D01*
%TO.C,C4*%
X58069542Y-50992066D02*
X58117161Y-51039685D01*
X58164780Y-51182542D01*
X58164780Y-51277780D01*
X58117161Y-51420638D01*
X58021923Y-51515876D01*
X57926685Y-51563495D01*
X57736209Y-51611114D01*
X57593352Y-51611114D01*
X57402876Y-51563495D01*
X57307638Y-51515876D01*
X57212400Y-51420638D01*
X57164780Y-51277780D01*
X57164780Y-51182542D01*
X57212400Y-51039685D01*
X57260019Y-50992066D01*
X57498114Y-50134923D02*
X58164780Y-50134923D01*
X57117161Y-50373019D02*
X57831447Y-50611114D01*
X57831447Y-49992066D01*
%TO.C,R8*%
X118436380Y-78881266D02*
X117960190Y-79214600D01*
X118436380Y-79452695D02*
X117436380Y-79452695D01*
X117436380Y-79071742D01*
X117484000Y-78976504D01*
X117531619Y-78928885D01*
X117626857Y-78881266D01*
X117769714Y-78881266D01*
X117864952Y-78928885D01*
X117912571Y-78976504D01*
X117960190Y-79071742D01*
X117960190Y-79452695D01*
X117864952Y-78309838D02*
X117817333Y-78405076D01*
X117769714Y-78452695D01*
X117674476Y-78500314D01*
X117626857Y-78500314D01*
X117531619Y-78452695D01*
X117484000Y-78405076D01*
X117436380Y-78309838D01*
X117436380Y-78119361D01*
X117484000Y-78024123D01*
X117531619Y-77976504D01*
X117626857Y-77928885D01*
X117674476Y-77928885D01*
X117769714Y-77976504D01*
X117817333Y-78024123D01*
X117864952Y-78119361D01*
X117864952Y-78309838D01*
X117912571Y-78405076D01*
X117960190Y-78452695D01*
X118055428Y-78500314D01*
X118245904Y-78500314D01*
X118341142Y-78452695D01*
X118388761Y-78405076D01*
X118436380Y-78309838D01*
X118436380Y-78119361D01*
X118388761Y-78024123D01*
X118341142Y-77976504D01*
X118245904Y-77928885D01*
X118055428Y-77928885D01*
X117960190Y-77976504D01*
X117912571Y-78024123D01*
X117864952Y-78119361D01*
%TO.C,D3*%
X93353180Y-63247495D02*
X92353180Y-63247495D01*
X92353180Y-63009400D01*
X92400800Y-62866542D01*
X92496038Y-62771304D01*
X92591276Y-62723685D01*
X92781752Y-62676066D01*
X92924609Y-62676066D01*
X93115085Y-62723685D01*
X93210323Y-62771304D01*
X93305561Y-62866542D01*
X93353180Y-63009400D01*
X93353180Y-63247495D01*
X92353180Y-62342733D02*
X92353180Y-61723685D01*
X92734133Y-62057019D01*
X92734133Y-61914161D01*
X92781752Y-61818923D01*
X92829371Y-61771304D01*
X92924609Y-61723685D01*
X93162704Y-61723685D01*
X93257942Y-61771304D01*
X93305561Y-61818923D01*
X93353180Y-61914161D01*
X93353180Y-62199876D01*
X93305561Y-62295114D01*
X93257942Y-62342733D01*
%TO.C,R41*%
X120007142Y-53336180D02*
X119673809Y-52859990D01*
X119435714Y-53336180D02*
X119435714Y-52336180D01*
X119816666Y-52336180D01*
X119911904Y-52383800D01*
X119959523Y-52431419D01*
X120007142Y-52526657D01*
X120007142Y-52669514D01*
X119959523Y-52764752D01*
X119911904Y-52812371D01*
X119816666Y-52859990D01*
X119435714Y-52859990D01*
X120864285Y-52669514D02*
X120864285Y-53336180D01*
X120626190Y-52288561D02*
X120388095Y-53002847D01*
X121007142Y-53002847D01*
X121911904Y-53336180D02*
X121340476Y-53336180D01*
X121626190Y-53336180D02*
X121626190Y-52336180D01*
X121530952Y-52479038D01*
X121435714Y-52574276D01*
X121340476Y-52621895D01*
%TO.C,C1*%
X44143142Y-50992066D02*
X44190761Y-51039685D01*
X44238380Y-51182542D01*
X44238380Y-51277780D01*
X44190761Y-51420638D01*
X44095523Y-51515876D01*
X44000285Y-51563495D01*
X43809809Y-51611114D01*
X43666952Y-51611114D01*
X43476476Y-51563495D01*
X43381238Y-51515876D01*
X43286000Y-51420638D01*
X43238380Y-51277780D01*
X43238380Y-51182542D01*
X43286000Y-51039685D01*
X43333619Y-50992066D01*
X44238380Y-50039685D02*
X44238380Y-50611114D01*
X44238380Y-50325400D02*
X43238380Y-50325400D01*
X43381238Y-50420638D01*
X43476476Y-50515876D01*
X43524095Y-50611114D01*
%TO.C,REF4*%
X165462380Y-98062380D02*
X165129047Y-97586190D01*
X164890952Y-98062380D02*
X164890952Y-97062380D01*
X165271904Y-97062380D01*
X165367142Y-97110000D01*
X165414761Y-97157619D01*
X165462380Y-97252857D01*
X165462380Y-97395714D01*
X165414761Y-97490952D01*
X165367142Y-97538571D01*
X165271904Y-97586190D01*
X164890952Y-97586190D01*
X165890952Y-97538571D02*
X166224285Y-97538571D01*
X166367142Y-98062380D02*
X165890952Y-98062380D01*
X165890952Y-97062380D01*
X166367142Y-97062380D01*
X167129047Y-97538571D02*
X166795714Y-97538571D01*
X166795714Y-98062380D02*
X166795714Y-97062380D01*
X167271904Y-97062380D01*
X168081428Y-97395714D02*
X168081428Y-98062380D01*
X167843333Y-97014761D02*
X167605238Y-97729047D01*
X168224285Y-97729047D01*
%TO.C,R25*%
X39819342Y-59912780D02*
X39486009Y-59436590D01*
X39247914Y-59912780D02*
X39247914Y-58912780D01*
X39628866Y-58912780D01*
X39724104Y-58960400D01*
X39771723Y-59008019D01*
X39819342Y-59103257D01*
X39819342Y-59246114D01*
X39771723Y-59341352D01*
X39724104Y-59388971D01*
X39628866Y-59436590D01*
X39247914Y-59436590D01*
X40200295Y-59008019D02*
X40247914Y-58960400D01*
X40343152Y-58912780D01*
X40581247Y-58912780D01*
X40676485Y-58960400D01*
X40724104Y-59008019D01*
X40771723Y-59103257D01*
X40771723Y-59198495D01*
X40724104Y-59341352D01*
X40152676Y-59912780D01*
X40771723Y-59912780D01*
X41676485Y-58912780D02*
X41200295Y-58912780D01*
X41152676Y-59388971D01*
X41200295Y-59341352D01*
X41295533Y-59293733D01*
X41533628Y-59293733D01*
X41628866Y-59341352D01*
X41676485Y-59388971D01*
X41724104Y-59484209D01*
X41724104Y-59722304D01*
X41676485Y-59817542D01*
X41628866Y-59865161D01*
X41533628Y-59912780D01*
X41295533Y-59912780D01*
X41200295Y-59865161D01*
X41152676Y-59817542D01*
%TO.C,R24*%
X101211142Y-68347580D02*
X100877809Y-67871390D01*
X100639714Y-68347580D02*
X100639714Y-67347580D01*
X101020666Y-67347580D01*
X101115904Y-67395200D01*
X101163523Y-67442819D01*
X101211142Y-67538057D01*
X101211142Y-67680914D01*
X101163523Y-67776152D01*
X101115904Y-67823771D01*
X101020666Y-67871390D01*
X100639714Y-67871390D01*
X101592095Y-67442819D02*
X101639714Y-67395200D01*
X101734952Y-67347580D01*
X101973047Y-67347580D01*
X102068285Y-67395200D01*
X102115904Y-67442819D01*
X102163523Y-67538057D01*
X102163523Y-67633295D01*
X102115904Y-67776152D01*
X101544476Y-68347580D01*
X102163523Y-68347580D01*
X103020666Y-67680914D02*
X103020666Y-68347580D01*
X102782571Y-67299961D02*
X102544476Y-68014247D01*
X103163523Y-68014247D01*
%TO.C,R2*%
X106701580Y-78830466D02*
X106225390Y-79163800D01*
X106701580Y-79401895D02*
X105701580Y-79401895D01*
X105701580Y-79020942D01*
X105749200Y-78925704D01*
X105796819Y-78878085D01*
X105892057Y-78830466D01*
X106034914Y-78830466D01*
X106130152Y-78878085D01*
X106177771Y-78925704D01*
X106225390Y-79020942D01*
X106225390Y-79401895D01*
X105796819Y-78449514D02*
X105749200Y-78401895D01*
X105701580Y-78306657D01*
X105701580Y-78068561D01*
X105749200Y-77973323D01*
X105796819Y-77925704D01*
X105892057Y-77878085D01*
X105987295Y-77878085D01*
X106130152Y-77925704D01*
X106701580Y-78497133D01*
X106701580Y-77878085D01*
%TO.C,R34*%
X53511980Y-46312057D02*
X53035790Y-46645390D01*
X53511980Y-46883485D02*
X52511980Y-46883485D01*
X52511980Y-46502533D01*
X52559600Y-46407295D01*
X52607219Y-46359676D01*
X52702457Y-46312057D01*
X52845314Y-46312057D01*
X52940552Y-46359676D01*
X52988171Y-46407295D01*
X53035790Y-46502533D01*
X53035790Y-46883485D01*
X52511980Y-45978723D02*
X52511980Y-45359676D01*
X52892933Y-45693009D01*
X52892933Y-45550152D01*
X52940552Y-45454914D01*
X52988171Y-45407295D01*
X53083409Y-45359676D01*
X53321504Y-45359676D01*
X53416742Y-45407295D01*
X53464361Y-45454914D01*
X53511980Y-45550152D01*
X53511980Y-45835866D01*
X53464361Y-45931104D01*
X53416742Y-45978723D01*
X52845314Y-44502533D02*
X53511980Y-44502533D01*
X52464361Y-44740628D02*
X53178647Y-44978723D01*
X53178647Y-44359676D01*
%TO.C,R50*%
X47591742Y-24913580D02*
X47258409Y-24437390D01*
X47020314Y-24913580D02*
X47020314Y-23913580D01*
X47401266Y-23913580D01*
X47496504Y-23961200D01*
X47544123Y-24008819D01*
X47591742Y-24104057D01*
X47591742Y-24246914D01*
X47544123Y-24342152D01*
X47496504Y-24389771D01*
X47401266Y-24437390D01*
X47020314Y-24437390D01*
X48496504Y-23913580D02*
X48020314Y-23913580D01*
X47972695Y-24389771D01*
X48020314Y-24342152D01*
X48115552Y-24294533D01*
X48353647Y-24294533D01*
X48448885Y-24342152D01*
X48496504Y-24389771D01*
X48544123Y-24485009D01*
X48544123Y-24723104D01*
X48496504Y-24818342D01*
X48448885Y-24865961D01*
X48353647Y-24913580D01*
X48115552Y-24913580D01*
X48020314Y-24865961D01*
X47972695Y-24818342D01*
X49163171Y-23913580D02*
X49258409Y-23913580D01*
X49353647Y-23961200D01*
X49401266Y-24008819D01*
X49448885Y-24104057D01*
X49496504Y-24294533D01*
X49496504Y-24532628D01*
X49448885Y-24723104D01*
X49401266Y-24818342D01*
X49353647Y-24865961D01*
X49258409Y-24913580D01*
X49163171Y-24913580D01*
X49067933Y-24865961D01*
X49020314Y-24818342D01*
X48972695Y-24723104D01*
X48925076Y-24532628D01*
X48925076Y-24294533D01*
X48972695Y-24104057D01*
X49020314Y-24008819D01*
X49067933Y-23961200D01*
X49163171Y-23913580D01*
%TO.C,C2*%
X50932142Y-50966666D02*
X50979761Y-51014285D01*
X51027380Y-51157142D01*
X51027380Y-51252380D01*
X50979761Y-51395238D01*
X50884523Y-51490476D01*
X50789285Y-51538095D01*
X50598809Y-51585714D01*
X50455952Y-51585714D01*
X50265476Y-51538095D01*
X50170238Y-51490476D01*
X50075000Y-51395238D01*
X50027380Y-51252380D01*
X50027380Y-51157142D01*
X50075000Y-51014285D01*
X50122619Y-50966666D01*
X50122619Y-50585714D02*
X50075000Y-50538095D01*
X50027380Y-50442857D01*
X50027380Y-50204761D01*
X50075000Y-50109523D01*
X50122619Y-50061904D01*
X50217857Y-50014285D01*
X50313095Y-50014285D01*
X50455952Y-50061904D01*
X51027380Y-50633333D01*
X51027380Y-50014285D01*
%TO.C,R38*%
X76369942Y-68218580D02*
X76036609Y-67742390D01*
X75798514Y-68218580D02*
X75798514Y-67218580D01*
X76179466Y-67218580D01*
X76274704Y-67266200D01*
X76322323Y-67313819D01*
X76369942Y-67409057D01*
X76369942Y-67551914D01*
X76322323Y-67647152D01*
X76274704Y-67694771D01*
X76179466Y-67742390D01*
X75798514Y-67742390D01*
X76703276Y-67218580D02*
X77322323Y-67218580D01*
X76988990Y-67599533D01*
X77131847Y-67599533D01*
X77227085Y-67647152D01*
X77274704Y-67694771D01*
X77322323Y-67790009D01*
X77322323Y-68028104D01*
X77274704Y-68123342D01*
X77227085Y-68170961D01*
X77131847Y-68218580D01*
X76846133Y-68218580D01*
X76750895Y-68170961D01*
X76703276Y-68123342D01*
X77893752Y-67647152D02*
X77798514Y-67599533D01*
X77750895Y-67551914D01*
X77703276Y-67456676D01*
X77703276Y-67409057D01*
X77750895Y-67313819D01*
X77798514Y-67266200D01*
X77893752Y-67218580D01*
X78084228Y-67218580D01*
X78179466Y-67266200D01*
X78227085Y-67313819D01*
X78274704Y-67409057D01*
X78274704Y-67456676D01*
X78227085Y-67551914D01*
X78179466Y-67599533D01*
X78084228Y-67647152D01*
X77893752Y-67647152D01*
X77798514Y-67694771D01*
X77750895Y-67742390D01*
X77703276Y-67837628D01*
X77703276Y-68028104D01*
X77750895Y-68123342D01*
X77798514Y-68170961D01*
X77893752Y-68218580D01*
X78084228Y-68218580D01*
X78179466Y-68170961D01*
X78227085Y-68123342D01*
X78274704Y-68028104D01*
X78274704Y-67837628D01*
X78227085Y-67742390D01*
X78179466Y-67694771D01*
X78084228Y-67647152D01*
%TO.C,R1*%
X110052380Y-91479666D02*
X109576190Y-91813000D01*
X110052380Y-92051095D02*
X109052380Y-92051095D01*
X109052380Y-91670142D01*
X109100000Y-91574904D01*
X109147619Y-91527285D01*
X109242857Y-91479666D01*
X109385714Y-91479666D01*
X109480952Y-91527285D01*
X109528571Y-91574904D01*
X109576190Y-91670142D01*
X109576190Y-92051095D01*
X110052380Y-90527285D02*
X110052380Y-91098714D01*
X110052380Y-90813000D02*
X109052380Y-90813000D01*
X109195238Y-90908238D01*
X109290476Y-91003476D01*
X109338095Y-91098714D01*
%TO.C,R3*%
X114802180Y-91505066D02*
X114325990Y-91838400D01*
X114802180Y-92076495D02*
X113802180Y-92076495D01*
X113802180Y-91695542D01*
X113849800Y-91600304D01*
X113897419Y-91552685D01*
X113992657Y-91505066D01*
X114135514Y-91505066D01*
X114230752Y-91552685D01*
X114278371Y-91600304D01*
X114325990Y-91695542D01*
X114325990Y-92076495D01*
X113802180Y-91171733D02*
X113802180Y-90552685D01*
X114183133Y-90886019D01*
X114183133Y-90743161D01*
X114230752Y-90647923D01*
X114278371Y-90600304D01*
X114373609Y-90552685D01*
X114611704Y-90552685D01*
X114706942Y-90600304D01*
X114754561Y-90647923D01*
X114802180Y-90743161D01*
X114802180Y-91028876D01*
X114754561Y-91124114D01*
X114706942Y-91171733D01*
%TO.C,R21*%
X101134942Y-59330580D02*
X100801609Y-58854390D01*
X100563514Y-59330580D02*
X100563514Y-58330580D01*
X100944466Y-58330580D01*
X101039704Y-58378200D01*
X101087323Y-58425819D01*
X101134942Y-58521057D01*
X101134942Y-58663914D01*
X101087323Y-58759152D01*
X101039704Y-58806771D01*
X100944466Y-58854390D01*
X100563514Y-58854390D01*
X101515895Y-58425819D02*
X101563514Y-58378200D01*
X101658752Y-58330580D01*
X101896847Y-58330580D01*
X101992085Y-58378200D01*
X102039704Y-58425819D01*
X102087323Y-58521057D01*
X102087323Y-58616295D01*
X102039704Y-58759152D01*
X101468276Y-59330580D01*
X102087323Y-59330580D01*
X103039704Y-59330580D02*
X102468276Y-59330580D01*
X102753990Y-59330580D02*
X102753990Y-58330580D01*
X102658752Y-58473438D01*
X102563514Y-58568676D01*
X102468276Y-58616295D01*
%TO.C,REF2*%
X22482380Y-19752380D02*
X22149047Y-19276190D01*
X21910952Y-19752380D02*
X21910952Y-18752380D01*
X22291904Y-18752380D01*
X22387142Y-18800000D01*
X22434761Y-18847619D01*
X22482380Y-18942857D01*
X22482380Y-19085714D01*
X22434761Y-19180952D01*
X22387142Y-19228571D01*
X22291904Y-19276190D01*
X21910952Y-19276190D01*
X22910952Y-19228571D02*
X23244285Y-19228571D01*
X23387142Y-19752380D02*
X22910952Y-19752380D01*
X22910952Y-18752380D01*
X23387142Y-18752380D01*
X24149047Y-19228571D02*
X23815714Y-19228571D01*
X23815714Y-19752380D02*
X23815714Y-18752380D01*
X24291904Y-18752380D01*
X24625238Y-18847619D02*
X24672857Y-18800000D01*
X24768095Y-18752380D01*
X25006190Y-18752380D01*
X25101428Y-18800000D01*
X25149047Y-18847619D01*
X25196666Y-18942857D01*
X25196666Y-19038095D01*
X25149047Y-19180952D01*
X24577619Y-19752380D01*
X25196666Y-19752380D01*
%TO.C,R36*%
X39008580Y-48852057D02*
X38532390Y-49185390D01*
X39008580Y-49423485D02*
X38008580Y-49423485D01*
X38008580Y-49042533D01*
X38056200Y-48947295D01*
X38103819Y-48899676D01*
X38199057Y-48852057D01*
X38341914Y-48852057D01*
X38437152Y-48899676D01*
X38484771Y-48947295D01*
X38532390Y-49042533D01*
X38532390Y-49423485D01*
X38008580Y-48518723D02*
X38008580Y-47899676D01*
X38389533Y-48233009D01*
X38389533Y-48090152D01*
X38437152Y-47994914D01*
X38484771Y-47947295D01*
X38580009Y-47899676D01*
X38818104Y-47899676D01*
X38913342Y-47947295D01*
X38960961Y-47994914D01*
X39008580Y-48090152D01*
X39008580Y-48375866D01*
X38960961Y-48471104D01*
X38913342Y-48518723D01*
X38008580Y-47042533D02*
X38008580Y-47233009D01*
X38056200Y-47328247D01*
X38103819Y-47375866D01*
X38246676Y-47471104D01*
X38437152Y-47518723D01*
X38818104Y-47518723D01*
X38913342Y-47471104D01*
X38960961Y-47423485D01*
X39008580Y-47328247D01*
X39008580Y-47137771D01*
X38960961Y-47042533D01*
X38913342Y-46994914D01*
X38818104Y-46947295D01*
X38580009Y-46947295D01*
X38484771Y-46994914D01*
X38437152Y-47042533D01*
X38389533Y-47137771D01*
X38389533Y-47328247D01*
X38437152Y-47423485D01*
X38484771Y-47471104D01*
X38580009Y-47518723D01*
%TO.C,R6*%
X114600980Y-78881266D02*
X114124790Y-79214600D01*
X114600980Y-79452695D02*
X113600980Y-79452695D01*
X113600980Y-79071742D01*
X113648600Y-78976504D01*
X113696219Y-78928885D01*
X113791457Y-78881266D01*
X113934314Y-78881266D01*
X114029552Y-78928885D01*
X114077171Y-78976504D01*
X114124790Y-79071742D01*
X114124790Y-79452695D01*
X113600980Y-78024123D02*
X113600980Y-78214600D01*
X113648600Y-78309838D01*
X113696219Y-78357457D01*
X113839076Y-78452695D01*
X114029552Y-78500314D01*
X114410504Y-78500314D01*
X114505742Y-78452695D01*
X114553361Y-78405076D01*
X114600980Y-78309838D01*
X114600980Y-78119361D01*
X114553361Y-78024123D01*
X114505742Y-77976504D01*
X114410504Y-77928885D01*
X114172409Y-77928885D01*
X114077171Y-77976504D01*
X114029552Y-78024123D01*
X113981933Y-78119361D01*
X113981933Y-78309838D01*
X114029552Y-78405076D01*
X114077171Y-78452695D01*
X114172409Y-78500314D01*
%TO.C,D15*%
X62516980Y-94533885D02*
X61516980Y-94533885D01*
X61516980Y-94295790D01*
X61564600Y-94152933D01*
X61659838Y-94057695D01*
X61755076Y-94010076D01*
X61945552Y-93962457D01*
X62088409Y-93962457D01*
X62278885Y-94010076D01*
X62374123Y-94057695D01*
X62469361Y-94152933D01*
X62516980Y-94295790D01*
X62516980Y-94533885D01*
X62516980Y-93010076D02*
X62516980Y-93581504D01*
X62516980Y-93295790D02*
X61516980Y-93295790D01*
X61659838Y-93391028D01*
X61755076Y-93486266D01*
X61802695Y-93581504D01*
X61516980Y-92105314D02*
X61516980Y-92581504D01*
X61993171Y-92629123D01*
X61945552Y-92581504D01*
X61897933Y-92486266D01*
X61897933Y-92248171D01*
X61945552Y-92152933D01*
X61993171Y-92105314D01*
X62088409Y-92057695D01*
X62326504Y-92057695D01*
X62421742Y-92105314D01*
X62469361Y-92152933D01*
X62516980Y-92248171D01*
X62516980Y-92486266D01*
X62469361Y-92581504D01*
X62421742Y-92629123D01*
%TO.C,R16*%
X141063742Y-80183980D02*
X140730409Y-79707790D01*
X140492314Y-80183980D02*
X140492314Y-79183980D01*
X140873266Y-79183980D01*
X140968504Y-79231600D01*
X141016123Y-79279219D01*
X141063742Y-79374457D01*
X141063742Y-79517314D01*
X141016123Y-79612552D01*
X140968504Y-79660171D01*
X140873266Y-79707790D01*
X140492314Y-79707790D01*
X142016123Y-80183980D02*
X141444695Y-80183980D01*
X141730409Y-80183980D02*
X141730409Y-79183980D01*
X141635171Y-79326838D01*
X141539933Y-79422076D01*
X141444695Y-79469695D01*
X142873266Y-79183980D02*
X142682790Y-79183980D01*
X142587552Y-79231600D01*
X142539933Y-79279219D01*
X142444695Y-79422076D01*
X142397076Y-79612552D01*
X142397076Y-79993504D01*
X142444695Y-80088742D01*
X142492314Y-80136361D01*
X142587552Y-80183980D01*
X142778028Y-80183980D01*
X142873266Y-80136361D01*
X142920885Y-80088742D01*
X142968504Y-79993504D01*
X142968504Y-79755409D01*
X142920885Y-79660171D01*
X142873266Y-79612552D01*
X142778028Y-79564933D01*
X142587552Y-79564933D01*
X142492314Y-79612552D01*
X142444695Y-79660171D01*
X142397076Y-79755409D01*
%TO.C,D4*%
X69746904Y-80093780D02*
X69746904Y-79093780D01*
X69985000Y-79093780D01*
X70127857Y-79141400D01*
X70223095Y-79236638D01*
X70270714Y-79331876D01*
X70318333Y-79522352D01*
X70318333Y-79665209D01*
X70270714Y-79855685D01*
X70223095Y-79950923D01*
X70127857Y-80046161D01*
X69985000Y-80093780D01*
X69746904Y-80093780D01*
X71175476Y-79427114D02*
X71175476Y-80093780D01*
X70937380Y-79046161D02*
X70699285Y-79760447D01*
X71318333Y-79760447D01*
%TO.C,D2*%
X93276980Y-75642695D02*
X92276980Y-75642695D01*
X92276980Y-75404600D01*
X92324600Y-75261742D01*
X92419838Y-75166504D01*
X92515076Y-75118885D01*
X92705552Y-75071266D01*
X92848409Y-75071266D01*
X93038885Y-75118885D01*
X93134123Y-75166504D01*
X93229361Y-75261742D01*
X93276980Y-75404600D01*
X93276980Y-75642695D01*
X92372219Y-74690314D02*
X92324600Y-74642695D01*
X92276980Y-74547457D01*
X92276980Y-74309361D01*
X92324600Y-74214123D01*
X92372219Y-74166504D01*
X92467457Y-74118885D01*
X92562695Y-74118885D01*
X92705552Y-74166504D01*
X93276980Y-74737933D01*
X93276980Y-74118885D01*
%TO.C,R39*%
X119981742Y-47316380D02*
X119648409Y-46840190D01*
X119410314Y-47316380D02*
X119410314Y-46316380D01*
X119791266Y-46316380D01*
X119886504Y-46364000D01*
X119934123Y-46411619D01*
X119981742Y-46506857D01*
X119981742Y-46649714D01*
X119934123Y-46744952D01*
X119886504Y-46792571D01*
X119791266Y-46840190D01*
X119410314Y-46840190D01*
X120315076Y-46316380D02*
X120934123Y-46316380D01*
X120600790Y-46697333D01*
X120743647Y-46697333D01*
X120838885Y-46744952D01*
X120886504Y-46792571D01*
X120934123Y-46887809D01*
X120934123Y-47125904D01*
X120886504Y-47221142D01*
X120838885Y-47268761D01*
X120743647Y-47316380D01*
X120457933Y-47316380D01*
X120362695Y-47268761D01*
X120315076Y-47221142D01*
X121410314Y-47316380D02*
X121600790Y-47316380D01*
X121696028Y-47268761D01*
X121743647Y-47221142D01*
X121838885Y-47078285D01*
X121886504Y-46887809D01*
X121886504Y-46506857D01*
X121838885Y-46411619D01*
X121791266Y-46364000D01*
X121696028Y-46316380D01*
X121505552Y-46316380D01*
X121410314Y-46364000D01*
X121362695Y-46411619D01*
X121315076Y-46506857D01*
X121315076Y-46744952D01*
X121362695Y-46840190D01*
X121410314Y-46887809D01*
X121505552Y-46935428D01*
X121696028Y-46935428D01*
X121791266Y-46887809D01*
X121838885Y-46840190D01*
X121886504Y-46744952D01*
%TO.C,R48*%
X55569380Y-81389457D02*
X55093190Y-81722790D01*
X55569380Y-81960885D02*
X54569380Y-81960885D01*
X54569380Y-81579933D01*
X54617000Y-81484695D01*
X54664619Y-81437076D01*
X54759857Y-81389457D01*
X54902714Y-81389457D01*
X54997952Y-81437076D01*
X55045571Y-81484695D01*
X55093190Y-81579933D01*
X55093190Y-81960885D01*
X54902714Y-80532314D02*
X55569380Y-80532314D01*
X54521761Y-80770409D02*
X55236047Y-81008504D01*
X55236047Y-80389457D01*
X54997952Y-79865647D02*
X54950333Y-79960885D01*
X54902714Y-80008504D01*
X54807476Y-80056123D01*
X54759857Y-80056123D01*
X54664619Y-80008504D01*
X54617000Y-79960885D01*
X54569380Y-79865647D01*
X54569380Y-79675171D01*
X54617000Y-79579933D01*
X54664619Y-79532314D01*
X54759857Y-79484695D01*
X54807476Y-79484695D01*
X54902714Y-79532314D01*
X54950333Y-79579933D01*
X54997952Y-79675171D01*
X54997952Y-79865647D01*
X55045571Y-79960885D01*
X55093190Y-80008504D01*
X55188428Y-80056123D01*
X55378904Y-80056123D01*
X55474142Y-80008504D01*
X55521761Y-79960885D01*
X55569380Y-79865647D01*
X55569380Y-79675171D01*
X55521761Y-79579933D01*
X55474142Y-79532314D01*
X55378904Y-79484695D01*
X55188428Y-79484695D01*
X55093190Y-79532314D01*
X55045571Y-79579933D01*
X54997952Y-79675171D01*
%TO.C,R10*%
X135221742Y-78683380D02*
X134888409Y-78207190D01*
X134650314Y-78683380D02*
X134650314Y-77683380D01*
X135031266Y-77683380D01*
X135126504Y-77731000D01*
X135174123Y-77778619D01*
X135221742Y-77873857D01*
X135221742Y-78016714D01*
X135174123Y-78111952D01*
X135126504Y-78159571D01*
X135031266Y-78207190D01*
X134650314Y-78207190D01*
X136174123Y-78683380D02*
X135602695Y-78683380D01*
X135888409Y-78683380D02*
X135888409Y-77683380D01*
X135793171Y-77826238D01*
X135697933Y-77921476D01*
X135602695Y-77969095D01*
X136793171Y-77683380D02*
X136888409Y-77683380D01*
X136983647Y-77731000D01*
X137031266Y-77778619D01*
X137078885Y-77873857D01*
X137126504Y-78064333D01*
X137126504Y-78302428D01*
X137078885Y-78492904D01*
X137031266Y-78588142D01*
X136983647Y-78635761D01*
X136888409Y-78683380D01*
X136793171Y-78683380D01*
X136697933Y-78635761D01*
X136650314Y-78588142D01*
X136602695Y-78492904D01*
X136555076Y-78302428D01*
X136555076Y-78064333D01*
X136602695Y-77873857D01*
X136650314Y-77778619D01*
X136697933Y-77731000D01*
X136793171Y-77683380D01*
%TO.C,R19*%
X101058742Y-53336180D02*
X100725409Y-52859990D01*
X100487314Y-53336180D02*
X100487314Y-52336180D01*
X100868266Y-52336180D01*
X100963504Y-52383800D01*
X101011123Y-52431419D01*
X101058742Y-52526657D01*
X101058742Y-52669514D01*
X101011123Y-52764752D01*
X100963504Y-52812371D01*
X100868266Y-52859990D01*
X100487314Y-52859990D01*
X102011123Y-53336180D02*
X101439695Y-53336180D01*
X101725409Y-53336180D02*
X101725409Y-52336180D01*
X101630171Y-52479038D01*
X101534933Y-52574276D01*
X101439695Y-52621895D01*
X102487314Y-53336180D02*
X102677790Y-53336180D01*
X102773028Y-53288561D01*
X102820647Y-53240942D01*
X102915885Y-53098085D01*
X102963504Y-52907609D01*
X102963504Y-52526657D01*
X102915885Y-52431419D01*
X102868266Y-52383800D01*
X102773028Y-52336180D01*
X102582552Y-52336180D01*
X102487314Y-52383800D01*
X102439695Y-52431419D01*
X102392076Y-52526657D01*
X102392076Y-52764752D01*
X102439695Y-52859990D01*
X102487314Y-52907609D01*
X102582552Y-52955228D01*
X102773028Y-52955228D01*
X102868266Y-52907609D01*
X102915885Y-52859990D01*
X102963504Y-52764752D01*
%TO.C,R52*%
X26765642Y-27580580D02*
X26432309Y-27104390D01*
X26194214Y-27580580D02*
X26194214Y-26580580D01*
X26575166Y-26580580D01*
X26670404Y-26628200D01*
X26718023Y-26675819D01*
X26765642Y-26771057D01*
X26765642Y-26913914D01*
X26718023Y-27009152D01*
X26670404Y-27056771D01*
X26575166Y-27104390D01*
X26194214Y-27104390D01*
X27670404Y-26580580D02*
X27194214Y-26580580D01*
X27146595Y-27056771D01*
X27194214Y-27009152D01*
X27289452Y-26961533D01*
X27527547Y-26961533D01*
X27622785Y-27009152D01*
X27670404Y-27056771D01*
X27718023Y-27152009D01*
X27718023Y-27390104D01*
X27670404Y-27485342D01*
X27622785Y-27532961D01*
X27527547Y-27580580D01*
X27289452Y-27580580D01*
X27194214Y-27532961D01*
X27146595Y-27485342D01*
X28098976Y-26675819D02*
X28146595Y-26628200D01*
X28241833Y-26580580D01*
X28479928Y-26580580D01*
X28575166Y-26628200D01*
X28622785Y-26675819D01*
X28670404Y-26771057D01*
X28670404Y-26866295D01*
X28622785Y-27009152D01*
X28051357Y-27580580D01*
X28670404Y-27580580D01*
%TO.C,J2*%
X30982380Y-27872333D02*
X31696666Y-27872333D01*
X31839523Y-27919952D01*
X31934761Y-28015190D01*
X31982380Y-28158047D01*
X31982380Y-28253285D01*
X31077619Y-27443761D02*
X31030000Y-27396142D01*
X30982380Y-27300904D01*
X30982380Y-27062809D01*
X31030000Y-26967571D01*
X31077619Y-26919952D01*
X31172857Y-26872333D01*
X31268095Y-26872333D01*
X31410952Y-26919952D01*
X31982380Y-27491380D01*
X31982380Y-26872333D01*
%TO.C,R43*%
X120057942Y-59355980D02*
X119724609Y-58879790D01*
X119486514Y-59355980D02*
X119486514Y-58355980D01*
X119867466Y-58355980D01*
X119962704Y-58403600D01*
X120010323Y-58451219D01*
X120057942Y-58546457D01*
X120057942Y-58689314D01*
X120010323Y-58784552D01*
X119962704Y-58832171D01*
X119867466Y-58879790D01*
X119486514Y-58879790D01*
X120915085Y-58689314D02*
X120915085Y-59355980D01*
X120676990Y-58308361D02*
X120438895Y-59022647D01*
X121057942Y-59022647D01*
X121343657Y-58355980D02*
X121962704Y-58355980D01*
X121629371Y-58736933D01*
X121772228Y-58736933D01*
X121867466Y-58784552D01*
X121915085Y-58832171D01*
X121962704Y-58927409D01*
X121962704Y-59165504D01*
X121915085Y-59260742D01*
X121867466Y-59308361D01*
X121772228Y-59355980D01*
X121486514Y-59355980D01*
X121391276Y-59308361D01*
X121343657Y-59260742D01*
%TO.C,R26*%
X163339542Y-55747180D02*
X163006209Y-55270990D01*
X162768114Y-55747180D02*
X162768114Y-54747180D01*
X163149066Y-54747180D01*
X163244304Y-54794800D01*
X163291923Y-54842419D01*
X163339542Y-54937657D01*
X163339542Y-55080514D01*
X163291923Y-55175752D01*
X163244304Y-55223371D01*
X163149066Y-55270990D01*
X162768114Y-55270990D01*
X163720495Y-54842419D02*
X163768114Y-54794800D01*
X163863352Y-54747180D01*
X164101447Y-54747180D01*
X164196685Y-54794800D01*
X164244304Y-54842419D01*
X164291923Y-54937657D01*
X164291923Y-55032895D01*
X164244304Y-55175752D01*
X163672876Y-55747180D01*
X164291923Y-55747180D01*
X165149066Y-54747180D02*
X164958590Y-54747180D01*
X164863352Y-54794800D01*
X164815733Y-54842419D01*
X164720495Y-54985276D01*
X164672876Y-55175752D01*
X164672876Y-55556704D01*
X164720495Y-55651942D01*
X164768114Y-55699561D01*
X164863352Y-55747180D01*
X165053828Y-55747180D01*
X165149066Y-55699561D01*
X165196685Y-55651942D01*
X165244304Y-55556704D01*
X165244304Y-55318609D01*
X165196685Y-55223371D01*
X165149066Y-55175752D01*
X165053828Y-55128133D01*
X164863352Y-55128133D01*
X164768114Y-55175752D01*
X164720495Y-55223371D01*
X164672876Y-55318609D01*
%TO.C,R40*%
X120007142Y-50313580D02*
X119673809Y-49837390D01*
X119435714Y-50313580D02*
X119435714Y-49313580D01*
X119816666Y-49313580D01*
X119911904Y-49361200D01*
X119959523Y-49408819D01*
X120007142Y-49504057D01*
X120007142Y-49646914D01*
X119959523Y-49742152D01*
X119911904Y-49789771D01*
X119816666Y-49837390D01*
X119435714Y-49837390D01*
X120864285Y-49646914D02*
X120864285Y-50313580D01*
X120626190Y-49265961D02*
X120388095Y-49980247D01*
X121007142Y-49980247D01*
X121578571Y-49313580D02*
X121673809Y-49313580D01*
X121769047Y-49361200D01*
X121816666Y-49408819D01*
X121864285Y-49504057D01*
X121911904Y-49694533D01*
X121911904Y-49932628D01*
X121864285Y-50123104D01*
X121816666Y-50218342D01*
X121769047Y-50265961D01*
X121673809Y-50313580D01*
X121578571Y-50313580D01*
X121483333Y-50265961D01*
X121435714Y-50218342D01*
X121388095Y-50123104D01*
X121340476Y-49932628D01*
X121340476Y-49694533D01*
X121388095Y-49504057D01*
X121435714Y-49408819D01*
X121483333Y-49361200D01*
X121578571Y-49313580D01*
%TO.C,D14*%
X73362780Y-94635485D02*
X72362780Y-94635485D01*
X72362780Y-94397390D01*
X72410400Y-94254533D01*
X72505638Y-94159295D01*
X72600876Y-94111676D01*
X72791352Y-94064057D01*
X72934209Y-94064057D01*
X73124685Y-94111676D01*
X73219923Y-94159295D01*
X73315161Y-94254533D01*
X73362780Y-94397390D01*
X73362780Y-94635485D01*
X73362780Y-93111676D02*
X73362780Y-93683104D01*
X73362780Y-93397390D02*
X72362780Y-93397390D01*
X72505638Y-93492628D01*
X72600876Y-93587866D01*
X72648495Y-93683104D01*
X72696114Y-92254533D02*
X73362780Y-92254533D01*
X72315161Y-92492628D02*
X73029447Y-92730723D01*
X73029447Y-92111676D01*
%TO.C,D9*%
X126617504Y-51315580D02*
X126617504Y-50315580D01*
X126855600Y-50315580D01*
X126998457Y-50363200D01*
X127093695Y-50458438D01*
X127141314Y-50553676D01*
X127188933Y-50744152D01*
X127188933Y-50887009D01*
X127141314Y-51077485D01*
X127093695Y-51172723D01*
X126998457Y-51267961D01*
X126855600Y-51315580D01*
X126617504Y-51315580D01*
X127665123Y-51315580D02*
X127855600Y-51315580D01*
X127950838Y-51267961D01*
X127998457Y-51220342D01*
X128093695Y-51077485D01*
X128141314Y-50887009D01*
X128141314Y-50506057D01*
X128093695Y-50410819D01*
X128046076Y-50363200D01*
X127950838Y-50315580D01*
X127760361Y-50315580D01*
X127665123Y-50363200D01*
X127617504Y-50410819D01*
X127569885Y-50506057D01*
X127569885Y-50744152D01*
X127617504Y-50839390D01*
X127665123Y-50887009D01*
X127760361Y-50934628D01*
X127950838Y-50934628D01*
X128046076Y-50887009D01*
X128093695Y-50839390D01*
X128141314Y-50744152D01*
%TO.C,D13*%
X37342914Y-100413780D02*
X37342914Y-99413780D01*
X37581009Y-99413780D01*
X37723866Y-99461400D01*
X37819104Y-99556638D01*
X37866723Y-99651876D01*
X37914342Y-99842352D01*
X37914342Y-99985209D01*
X37866723Y-100175685D01*
X37819104Y-100270923D01*
X37723866Y-100366161D01*
X37581009Y-100413780D01*
X37342914Y-100413780D01*
X38866723Y-100413780D02*
X38295295Y-100413780D01*
X38581009Y-100413780D02*
X38581009Y-99413780D01*
X38485771Y-99556638D01*
X38390533Y-99651876D01*
X38295295Y-99699495D01*
X39200057Y-99413780D02*
X39819104Y-99413780D01*
X39485771Y-99794733D01*
X39628628Y-99794733D01*
X39723866Y-99842352D01*
X39771485Y-99889971D01*
X39819104Y-99985209D01*
X39819104Y-100223304D01*
X39771485Y-100318542D01*
X39723866Y-100366161D01*
X39628628Y-100413780D01*
X39342914Y-100413780D01*
X39247676Y-100366161D01*
X39200057Y-100318542D01*
%TO.C,P1*%
X56397380Y-34352095D02*
X55397380Y-34352095D01*
X55397380Y-33971142D01*
X55445000Y-33875904D01*
X55492619Y-33828285D01*
X55587857Y-33780666D01*
X55730714Y-33780666D01*
X55825952Y-33828285D01*
X55873571Y-33875904D01*
X55921190Y-33971142D01*
X55921190Y-34352095D01*
X56397380Y-32828285D02*
X56397380Y-33399714D01*
X56397380Y-33114000D02*
X55397380Y-33114000D01*
X55540238Y-33209238D01*
X55635476Y-33304476D01*
X55683095Y-33399714D01*
%TO.C,D5*%
X63879504Y-80093780D02*
X63879504Y-79093780D01*
X64117600Y-79093780D01*
X64260457Y-79141400D01*
X64355695Y-79236638D01*
X64403314Y-79331876D01*
X64450933Y-79522352D01*
X64450933Y-79665209D01*
X64403314Y-79855685D01*
X64355695Y-79950923D01*
X64260457Y-80046161D01*
X64117600Y-80093780D01*
X63879504Y-80093780D01*
X65355695Y-79093780D02*
X64879504Y-79093780D01*
X64831885Y-79569971D01*
X64879504Y-79522352D01*
X64974742Y-79474733D01*
X65212838Y-79474733D01*
X65308076Y-79522352D01*
X65355695Y-79569971D01*
X65403314Y-79665209D01*
X65403314Y-79903304D01*
X65355695Y-79998542D01*
X65308076Y-80046161D01*
X65212838Y-80093780D01*
X64974742Y-80093780D01*
X64879504Y-80046161D01*
X64831885Y-79998542D01*
%TO.C,C3*%
X54361142Y-50992066D02*
X54408761Y-51039685D01*
X54456380Y-51182542D01*
X54456380Y-51277780D01*
X54408761Y-51420638D01*
X54313523Y-51515876D01*
X54218285Y-51563495D01*
X54027809Y-51611114D01*
X53884952Y-51611114D01*
X53694476Y-51563495D01*
X53599238Y-51515876D01*
X53504000Y-51420638D01*
X53456380Y-51277780D01*
X53456380Y-51182542D01*
X53504000Y-51039685D01*
X53551619Y-50992066D01*
X53456380Y-50658733D02*
X53456380Y-50039685D01*
X53837333Y-50373019D01*
X53837333Y-50230161D01*
X53884952Y-50134923D01*
X53932571Y-50087304D01*
X54027809Y-50039685D01*
X54265904Y-50039685D01*
X54361142Y-50087304D01*
X54408761Y-50134923D01*
X54456380Y-50230161D01*
X54456380Y-50515876D01*
X54408761Y-50611114D01*
X54361142Y-50658733D01*
%TO.C,D6*%
X143432304Y-34374380D02*
X143432304Y-33374380D01*
X143670400Y-33374380D01*
X143813257Y-33422000D01*
X143908495Y-33517238D01*
X143956114Y-33612476D01*
X144003733Y-33802952D01*
X144003733Y-33945809D01*
X143956114Y-34136285D01*
X143908495Y-34231523D01*
X143813257Y-34326761D01*
X143670400Y-34374380D01*
X143432304Y-34374380D01*
X144860876Y-33374380D02*
X144670400Y-33374380D01*
X144575161Y-33422000D01*
X144527542Y-33469619D01*
X144432304Y-33612476D01*
X144384685Y-33802952D01*
X144384685Y-34183904D01*
X144432304Y-34279142D01*
X144479923Y-34326761D01*
X144575161Y-34374380D01*
X144765638Y-34374380D01*
X144860876Y-34326761D01*
X144908495Y-34279142D01*
X144956114Y-34183904D01*
X144956114Y-33945809D01*
X144908495Y-33850571D01*
X144860876Y-33802952D01*
X144765638Y-33755333D01*
X144575161Y-33755333D01*
X144479923Y-33802952D01*
X144432304Y-33850571D01*
X144384685Y-33945809D01*
%TO.C,R42*%
X120007142Y-56333380D02*
X119673809Y-55857190D01*
X119435714Y-56333380D02*
X119435714Y-55333380D01*
X119816666Y-55333380D01*
X119911904Y-55381000D01*
X119959523Y-55428619D01*
X120007142Y-55523857D01*
X120007142Y-55666714D01*
X119959523Y-55761952D01*
X119911904Y-55809571D01*
X119816666Y-55857190D01*
X119435714Y-55857190D01*
X120864285Y-55666714D02*
X120864285Y-56333380D01*
X120626190Y-55285761D02*
X120388095Y-56000047D01*
X121007142Y-56000047D01*
X121340476Y-55428619D02*
X121388095Y-55381000D01*
X121483333Y-55333380D01*
X121721428Y-55333380D01*
X121816666Y-55381000D01*
X121864285Y-55428619D01*
X121911904Y-55523857D01*
X121911904Y-55619095D01*
X121864285Y-55761952D01*
X121292857Y-56333380D01*
X121911904Y-56333380D01*
%TO.C,R31*%
X68447180Y-40622457D02*
X67970990Y-40955790D01*
X68447180Y-41193885D02*
X67447180Y-41193885D01*
X67447180Y-40812933D01*
X67494800Y-40717695D01*
X67542419Y-40670076D01*
X67637657Y-40622457D01*
X67780514Y-40622457D01*
X67875752Y-40670076D01*
X67923371Y-40717695D01*
X67970990Y-40812933D01*
X67970990Y-41193885D01*
X67447180Y-40289123D02*
X67447180Y-39670076D01*
X67828133Y-40003409D01*
X67828133Y-39860552D01*
X67875752Y-39765314D01*
X67923371Y-39717695D01*
X68018609Y-39670076D01*
X68256704Y-39670076D01*
X68351942Y-39717695D01*
X68399561Y-39765314D01*
X68447180Y-39860552D01*
X68447180Y-40146266D01*
X68399561Y-40241504D01*
X68351942Y-40289123D01*
X68447180Y-38717695D02*
X68447180Y-39289123D01*
X68447180Y-39003409D02*
X67447180Y-39003409D01*
X67590038Y-39098647D01*
X67685276Y-39193885D01*
X67732895Y-39289123D01*
%TO.C,REF3*%
X165392380Y-19782380D02*
X165059047Y-19306190D01*
X164820952Y-19782380D02*
X164820952Y-18782380D01*
X165201904Y-18782380D01*
X165297142Y-18830000D01*
X165344761Y-18877619D01*
X165392380Y-18972857D01*
X165392380Y-19115714D01*
X165344761Y-19210952D01*
X165297142Y-19258571D01*
X165201904Y-19306190D01*
X164820952Y-19306190D01*
X165820952Y-19258571D02*
X166154285Y-19258571D01*
X166297142Y-19782380D02*
X165820952Y-19782380D01*
X165820952Y-18782380D01*
X166297142Y-18782380D01*
X167059047Y-19258571D02*
X166725714Y-19258571D01*
X166725714Y-19782380D02*
X166725714Y-18782380D01*
X167201904Y-18782380D01*
X167487619Y-18782380D02*
X168106666Y-18782380D01*
X167773333Y-19163333D01*
X167916190Y-19163333D01*
X168011428Y-19210952D01*
X168059047Y-19258571D01*
X168106666Y-19353809D01*
X168106666Y-19591904D01*
X168059047Y-19687142D01*
X168011428Y-19734761D01*
X167916190Y-19782380D01*
X167630476Y-19782380D01*
X167535238Y-19734761D01*
X167487619Y-19687142D01*
D11*
%TO.C,R4*%
X111152000Y-78916264D02*
X111152000Y-78462136D01*
X112622000Y-78916264D02*
X112622000Y-78462136D01*
%TO.C,R15*%
X141479536Y-87145800D02*
X141933664Y-87145800D01*
X141479536Y-85675800D02*
X141933664Y-85675800D01*
%TO.C,R17*%
X101449136Y-47804400D02*
X101903264Y-47804400D01*
X101449136Y-49274400D02*
X101903264Y-49274400D01*
%TO.C,R23*%
X101626936Y-65787600D02*
X102081064Y-65787600D01*
X101626936Y-67257600D02*
X102081064Y-67257600D01*
%TO.C,R37*%
X31116600Y-47931336D02*
X31116600Y-48385464D01*
X32586600Y-47931336D02*
X32586600Y-48385464D01*
%TO.C,R14*%
X141581136Y-90806600D02*
X142035264Y-90806600D01*
X141581136Y-92276600D02*
X142035264Y-92276600D01*
%TO.C,R22*%
X101576136Y-64285800D02*
X102030264Y-64285800D01*
X101576136Y-62815800D02*
X102030264Y-62815800D01*
%TO.C,R28*%
X159713600Y-62637936D02*
X159713600Y-63092064D01*
X158243600Y-62637936D02*
X158243600Y-63092064D01*
%TO.C,R20*%
X101525336Y-56821400D02*
X101979464Y-56821400D01*
X101525336Y-58291400D02*
X101979464Y-58291400D01*
%TO.C,R45*%
X57659600Y-39777936D02*
X57659600Y-40232064D01*
X59129600Y-39777936D02*
X59129600Y-40232064D01*
%TO.C,D7*%
X151663400Y-37907400D02*
X152313400Y-37907400D01*
X151663400Y-34787400D02*
X149988400Y-34787400D01*
X151663400Y-37907400D02*
X151013400Y-37907400D01*
X151663400Y-34787400D02*
X152313400Y-34787400D01*
%TO.C,R35*%
X41251200Y-48032936D02*
X41251200Y-48487064D01*
X42721200Y-48032936D02*
X42721200Y-48487064D01*
%TO.C,R12*%
X31091200Y-33046936D02*
X31091200Y-33501064D01*
X32561200Y-33046936D02*
X32561200Y-33501064D01*
%TO.C,D10*%
X135777800Y-53263800D02*
X135777800Y-54938800D01*
X138897800Y-53263800D02*
X138897800Y-53913800D01*
X138897800Y-53263800D02*
X138897800Y-52613800D01*
X135777800Y-53263800D02*
X135777800Y-52613800D01*
%TO.C,R30*%
X158443664Y-95937400D02*
X157989536Y-95937400D01*
X158443664Y-97407400D02*
X157989536Y-97407400D01*
%TO.C,R7*%
X119838800Y-91136736D02*
X119838800Y-91590864D01*
X121308800Y-91136736D02*
X121308800Y-91590864D01*
%TO.C,R46*%
X141857464Y-64539800D02*
X141403336Y-64539800D01*
X141857464Y-63069800D02*
X141403336Y-63069800D01*
%TO.C,D11*%
X127660400Y-57617800D02*
X129335400Y-57617800D01*
X127660400Y-57617800D02*
X127010400Y-57617800D01*
X127660400Y-54497800D02*
X127010400Y-54497800D01*
X127660400Y-54497800D02*
X128310400Y-54497800D01*
%TO.C,R11*%
X141377936Y-78230400D02*
X141832064Y-78230400D01*
X141377936Y-76760400D02*
X141832064Y-76760400D01*
%TO.C,D12*%
X51242400Y-97561400D02*
X51242400Y-98211400D01*
X48122400Y-97561400D02*
X48122400Y-98211400D01*
X51242400Y-97561400D02*
X51242400Y-95886400D01*
X48122400Y-97561400D02*
X48122400Y-96911400D01*
%TO.C,R9*%
X164209464Y-63752400D02*
X163755336Y-63752400D01*
X164209464Y-62282400D02*
X163755336Y-62282400D01*
%TO.C,R18*%
X101449136Y-52271600D02*
X101903264Y-52271600D01*
X101449136Y-50801600D02*
X101903264Y-50801600D01*
%TO.C,D8*%
X133898200Y-60045600D02*
X133898200Y-59395600D01*
X137018200Y-60045600D02*
X137018200Y-58370600D01*
X137018200Y-60045600D02*
X137018200Y-60695600D01*
X133898200Y-60045600D02*
X133898200Y-60695600D01*
%TO.C,R5*%
X116105000Y-91111336D02*
X116105000Y-91565464D01*
X117575000Y-91111336D02*
X117575000Y-91565464D01*
%TO.C,D16*%
X82971200Y-93472000D02*
X82971200Y-94122000D01*
X86091200Y-93472000D02*
X86091200Y-94122000D01*
X86091200Y-93472000D02*
X86091200Y-91797000D01*
X82971200Y-93472000D02*
X82971200Y-92822000D01*
%TO.C,R13*%
X141657336Y-97382000D02*
X142111464Y-97382000D01*
X141657336Y-95912000D02*
X142111464Y-95912000D01*
%TO.C,D1*%
X102057200Y-78369600D02*
X101407200Y-78369600D01*
X102057200Y-78369600D02*
X103732200Y-78369600D01*
X102057200Y-75249600D02*
X102707200Y-75249600D01*
X102057200Y-75249600D02*
X101407200Y-75249600D01*
%TO.C,R44*%
X146711936Y-47928200D02*
X147166064Y-47928200D01*
X146711936Y-46458200D02*
X147166064Y-46458200D01*
%TO.C,R27*%
X164209464Y-57913600D02*
X163755336Y-57913600D01*
X164209464Y-59383600D02*
X163755336Y-59383600D01*
%TO.C,R53*%
X37517336Y-21464600D02*
X37971464Y-21464600D01*
X37517336Y-22934600D02*
X37971464Y-22934600D01*
%TO.C,R49*%
X42521200Y-88723736D02*
X42521200Y-89177864D01*
X43991200Y-88723736D02*
X43991200Y-89177864D01*
%TO.C,R29*%
X158243600Y-58469264D02*
X158243600Y-58015136D01*
X159713600Y-58469264D02*
X159713600Y-58015136D01*
%TO.C,R47*%
X141857464Y-70689800D02*
X141403336Y-70689800D01*
X141857464Y-72159800D02*
X141403336Y-72159800D01*
%TO.C,P2*%
X57386000Y-87020000D02*
X138786000Y-87020000D01*
X57386000Y-84420000D02*
X59986000Y-84420000D01*
X59986000Y-84420000D02*
X59986000Y-81820000D01*
X57386000Y-83150000D02*
X57386000Y-81820000D01*
X59986000Y-81820000D02*
X138786000Y-81820000D01*
X57386000Y-81820000D02*
X58716000Y-81820000D01*
X57386000Y-87020000D02*
X57386000Y-84420000D01*
X138786000Y-87020000D02*
X138786000Y-81820000D01*
%TO.C,R32*%
X63069800Y-27760664D02*
X63069800Y-27306536D01*
X64539800Y-27760664D02*
X64539800Y-27306536D01*
%TO.C,R33*%
X63473000Y-39803336D02*
X63473000Y-40257464D01*
X62003000Y-39803336D02*
X62003000Y-40257464D01*
%TO.C,R51*%
X38609600Y-33501064D02*
X38609600Y-33046936D01*
X40079600Y-33501064D02*
X40079600Y-33046936D01*
%TO.C,C4*%
X56767400Y-50564148D02*
X56767400Y-51086652D01*
X55297400Y-50564148D02*
X55297400Y-51086652D01*
%TO.C,R8*%
X118899000Y-78941664D02*
X118899000Y-78487536D01*
X120369000Y-78941664D02*
X120369000Y-78487536D01*
%TO.C,D3*%
X96860800Y-62509400D02*
X96860800Y-63159400D01*
X93740800Y-62509400D02*
X93740800Y-64184400D01*
X93740800Y-62509400D02*
X93740800Y-61859400D01*
X96860800Y-62509400D02*
X96860800Y-61859400D01*
%TO.C,R41*%
X120422936Y-55268800D02*
X120877064Y-55268800D01*
X120422936Y-53798800D02*
X120877064Y-53798800D01*
%TO.C,C1*%
X44731000Y-51086652D02*
X44731000Y-50564148D01*
X46201000Y-51086652D02*
X46201000Y-50564148D01*
%TO.C,R25*%
X40689264Y-58545400D02*
X40235136Y-58545400D01*
X40689264Y-57075400D02*
X40235136Y-57075400D01*
%TO.C,R24*%
X101626936Y-70280200D02*
X102081064Y-70280200D01*
X101626936Y-68810200D02*
X102081064Y-68810200D01*
%TO.C,R2*%
X108634200Y-78890864D02*
X108634200Y-78436736D01*
X107164200Y-78890864D02*
X107164200Y-78436736D01*
%TO.C,R34*%
X50674600Y-45442136D02*
X50674600Y-45896264D01*
X52144600Y-45442136D02*
X52144600Y-45896264D01*
%TO.C,R50*%
X48007536Y-25376200D02*
X48461664Y-25376200D01*
X48007536Y-26846200D02*
X48461664Y-26846200D01*
%TO.C,C2*%
X49630000Y-50538748D02*
X49630000Y-51061252D01*
X48160000Y-50538748D02*
X48160000Y-51061252D01*
%TO.C,R38*%
X77239864Y-66851200D02*
X76785736Y-66851200D01*
X77239864Y-65381200D02*
X76785736Y-65381200D01*
%TO.C,R1*%
X108685000Y-91085936D02*
X108685000Y-91540064D01*
X107215000Y-91085936D02*
X107215000Y-91540064D01*
%TO.C,R3*%
X113434800Y-91111336D02*
X113434800Y-91565464D01*
X111964800Y-91111336D02*
X111964800Y-91565464D01*
%TO.C,R21*%
X101550736Y-59793200D02*
X102004864Y-59793200D01*
X101550736Y-61263200D02*
X102004864Y-61263200D01*
%TO.C,R36*%
X37641200Y-47982136D02*
X37641200Y-48436264D01*
X36171200Y-47982136D02*
X36171200Y-48436264D01*
%TO.C,R6*%
X116533600Y-78941664D02*
X116533600Y-78487536D01*
X115063600Y-78941664D02*
X115063600Y-78487536D01*
%TO.C,D15*%
X58104600Y-93319600D02*
X58104600Y-93969600D01*
X61224600Y-93319600D02*
X61224600Y-93969600D01*
X58104600Y-93319600D02*
X58104600Y-92669600D01*
X61224600Y-93319600D02*
X61224600Y-91644600D01*
%TO.C,R16*%
X141479536Y-80646600D02*
X141933664Y-80646600D01*
X141479536Y-82116600D02*
X141933664Y-82116600D01*
%TO.C,D4*%
X70485000Y-75681400D02*
X71135000Y-75681400D01*
X70485000Y-78801400D02*
X69835000Y-78801400D01*
X70485000Y-78801400D02*
X72160000Y-78801400D01*
X70485000Y-75681400D02*
X69835000Y-75681400D01*
%TO.C,D2*%
X96784600Y-74904600D02*
X96784600Y-75554600D01*
X96784600Y-74904600D02*
X96784600Y-74254600D01*
X93664600Y-74904600D02*
X93664600Y-76579600D01*
X93664600Y-74904600D02*
X93664600Y-74254600D01*
%TO.C,R39*%
X120397536Y-47779000D02*
X120851664Y-47779000D01*
X120397536Y-49249000D02*
X120851664Y-49249000D01*
%TO.C,R48*%
X52732000Y-80519536D02*
X52732000Y-80973664D01*
X54202000Y-80519536D02*
X54202000Y-80973664D01*
%TO.C,R10*%
X136091664Y-77316000D02*
X135637536Y-77316000D01*
X136091664Y-75846000D02*
X135637536Y-75846000D01*
%TO.C,R19*%
X101474536Y-55268800D02*
X101928664Y-55268800D01*
X101474536Y-53798800D02*
X101928664Y-53798800D01*
%TO.C,R52*%
X27181436Y-28043200D02*
X27635564Y-28043200D01*
X27181436Y-29513200D02*
X27635564Y-29513200D01*
%TO.C,J2*%
X32970000Y-24939000D02*
X34300000Y-24939000D01*
X32970000Y-27539000D02*
X35570000Y-27539000D01*
X32970000Y-26269000D02*
X32970000Y-24939000D01*
X32970000Y-30139000D02*
X43250000Y-30139000D01*
X43250000Y-30139000D02*
X43250000Y-24939000D01*
X32970000Y-30139000D02*
X32970000Y-27539000D01*
X35570000Y-27539000D02*
X35570000Y-24939000D01*
X35570000Y-24939000D02*
X43250000Y-24939000D01*
%TO.C,R43*%
X120473736Y-59818600D02*
X120927864Y-59818600D01*
X120473736Y-61288600D02*
X120927864Y-61288600D01*
%TO.C,R26*%
X164209464Y-54379800D02*
X163755336Y-54379800D01*
X164209464Y-52909800D02*
X163755336Y-52909800D01*
%TO.C,R40*%
X120422936Y-52246200D02*
X120877064Y-52246200D01*
X120422936Y-50776200D02*
X120877064Y-50776200D01*
%TO.C,D14*%
X68950400Y-93421200D02*
X68950400Y-92771200D01*
X68950400Y-93421200D02*
X68950400Y-94071200D01*
X72070400Y-93421200D02*
X72070400Y-91746200D01*
X72070400Y-93421200D02*
X72070400Y-94071200D01*
%TO.C,D9*%
X127355600Y-46903200D02*
X128005600Y-46903200D01*
X127355600Y-50023200D02*
X126705600Y-50023200D01*
X127355600Y-50023200D02*
X129030600Y-50023200D01*
X127355600Y-46903200D02*
X126705600Y-46903200D01*
%TO.C,D13*%
X38557200Y-96001400D02*
X39207200Y-96001400D01*
X38557200Y-96001400D02*
X37907200Y-96001400D01*
X38557200Y-99121400D02*
X40232200Y-99121400D01*
X38557200Y-99121400D02*
X37907200Y-99121400D01*
%TO.C,P1*%
X57385000Y-33614000D02*
X59985000Y-33614000D01*
X57385000Y-36214000D02*
X57385000Y-33614000D01*
X138785000Y-36214000D02*
X138785000Y-31014000D01*
X59985000Y-31014000D02*
X138785000Y-31014000D01*
X57385000Y-32344000D02*
X57385000Y-31014000D01*
X57385000Y-31014000D02*
X58715000Y-31014000D01*
X57385000Y-36214000D02*
X138785000Y-36214000D01*
X59985000Y-33614000D02*
X59985000Y-31014000D01*
%TO.C,D5*%
X64617600Y-75681400D02*
X63967600Y-75681400D01*
X64617600Y-78801400D02*
X63967600Y-78801400D01*
X64617600Y-78801400D02*
X66292600Y-78801400D01*
X64617600Y-75681400D02*
X65267600Y-75681400D01*
%TO.C,C3*%
X53059000Y-50564148D02*
X53059000Y-51086652D01*
X51589000Y-50564148D02*
X51589000Y-51086652D01*
%TO.C,D6*%
X144170400Y-34762000D02*
X144820400Y-34762000D01*
X144170400Y-37882000D02*
X144820400Y-37882000D01*
X144170400Y-34762000D02*
X142495400Y-34762000D01*
X144170400Y-37882000D02*
X143520400Y-37882000D01*
%TO.C,R42*%
X120422936Y-58266000D02*
X120877064Y-58266000D01*
X120422936Y-56796000D02*
X120877064Y-56796000D01*
%TO.C,R31*%
X65609800Y-39752536D02*
X65609800Y-40206664D01*
X67079800Y-39752536D02*
X67079800Y-40206664D01*
%TD*%
M02*
