%TF.GenerationSoftware,KiCad,Pcbnew,(6.0.9)*%
%TF.CreationDate,2022-12-05T20:21:47+01:00*%
%TF.ProjectId,projekt,70726f6a-656b-4742-9e6b-696361645f70,rev?*%
%TF.SameCoordinates,Original*%
%TF.FileFunction,Drillmap*%
%TF.FilePolarity,Positive*%
%FSLAX45Y45*%
G04 Gerber Fmt 4.5, Leading zero omitted, Abs format (unit mm)*
G04 Created by KiCad (PCBNEW (6.0.9)) date 2022-12-05 20:21:47*
%MOMM*%
%LPD*%
G01*
G04 APERTURE LIST*
%ADD10C,0.150000*%
%ADD11C,0.200000*%
%ADD12C,0.100000*%
%ADD13C,0.320000*%
G04 APERTURE END LIST*
D10*
X2000000Y-2000000D02*
X17000000Y-2000000D01*
X17000000Y-2000000D02*
X17000000Y-10533000D01*
X17000000Y-10533000D02*
X2000000Y-10533000D01*
X2000000Y-10533000D02*
X2000000Y-2000000D01*
D11*
D12*
X2474480Y-7833860D02*
X2574480Y-7933860D01*
X2574480Y-7833860D02*
X2474480Y-7933860D01*
X4874480Y-7833860D02*
X4974480Y-7933860D01*
X4974480Y-7833860D02*
X4874480Y-7933860D01*
X8728000Y-5063400D02*
X8828000Y-5163400D01*
X8828000Y-5063400D02*
X8728000Y-5163400D01*
X8728000Y-7463400D02*
X8828000Y-7563400D01*
X8828000Y-7463400D02*
X8728000Y-7563400D01*
X11332000Y-4503400D02*
X11432000Y-4603400D01*
X11432000Y-4503400D02*
X11332000Y-4603400D01*
X11332000Y-7503400D02*
X11432000Y-7603400D01*
X11432000Y-7503400D02*
X11332000Y-7603400D01*
X16328000Y-6714600D02*
X16428000Y-6814600D01*
X16428000Y-6714600D02*
X16328000Y-6814600D01*
X16328000Y-9114600D02*
X16428000Y-9214600D01*
X16428000Y-9114600D02*
X16328000Y-9214600D01*
D13*
X2513000Y-2350000D02*
G75*
G03*
X2513000Y-2350000I-160000J0D01*
G01*
X2514580Y-10182860D02*
G75*
G03*
X2514580Y-10182860I-160000J0D01*
G01*
X16804000Y-2353000D02*
G75*
G03*
X16804000Y-2353000I-160000J0D01*
G01*
X16811000Y-10181000D02*
G75*
G03*
X16811000Y-10181000I-160000J0D01*
G01*
D11*
X2250119Y-10850976D02*
X2250119Y-10650976D01*
X2297738Y-10650976D01*
X2326310Y-10660500D01*
X2345357Y-10679548D01*
X2354881Y-10698595D01*
X2364405Y-10736690D01*
X2364405Y-10765262D01*
X2354881Y-10803357D01*
X2345357Y-10822405D01*
X2326310Y-10841452D01*
X2297738Y-10850976D01*
X2250119Y-10850976D01*
X2450119Y-10850976D02*
X2450119Y-10717643D01*
X2450119Y-10755738D02*
X2459643Y-10736690D01*
X2469167Y-10727167D01*
X2488214Y-10717643D01*
X2507262Y-10717643D01*
X2573929Y-10850976D02*
X2573929Y-10717643D01*
X2573929Y-10650976D02*
X2564405Y-10660500D01*
X2573929Y-10670024D01*
X2583452Y-10660500D01*
X2573929Y-10650976D01*
X2573929Y-10670024D01*
X2697738Y-10850976D02*
X2678690Y-10841452D01*
X2669167Y-10822405D01*
X2669167Y-10650976D01*
X2802500Y-10850976D02*
X2783452Y-10841452D01*
X2773929Y-10822405D01*
X2773929Y-10650976D01*
X3031071Y-10850976D02*
X3031071Y-10650976D01*
X3097738Y-10793833D01*
X3164405Y-10650976D01*
X3164405Y-10850976D01*
X3345357Y-10850976D02*
X3345357Y-10746214D01*
X3335833Y-10727167D01*
X3316786Y-10717643D01*
X3278690Y-10717643D01*
X3259643Y-10727167D01*
X3345357Y-10841452D02*
X3326309Y-10850976D01*
X3278690Y-10850976D01*
X3259643Y-10841452D01*
X3250119Y-10822405D01*
X3250119Y-10803357D01*
X3259643Y-10784310D01*
X3278690Y-10774786D01*
X3326309Y-10774786D01*
X3345357Y-10765262D01*
X3440595Y-10717643D02*
X3440595Y-10917643D01*
X3440595Y-10727167D02*
X3459643Y-10717643D01*
X3497738Y-10717643D01*
X3516786Y-10727167D01*
X3526309Y-10736690D01*
X3535833Y-10755738D01*
X3535833Y-10812881D01*
X3526309Y-10831929D01*
X3516786Y-10841452D01*
X3497738Y-10850976D01*
X3459643Y-10850976D01*
X3440595Y-10841452D01*
X3621548Y-10831929D02*
X3631071Y-10841452D01*
X3621548Y-10850976D01*
X3612024Y-10841452D01*
X3621548Y-10831929D01*
X3621548Y-10850976D01*
X3621548Y-10727167D02*
X3631071Y-10736690D01*
X3621548Y-10746214D01*
X3612024Y-10736690D01*
X3621548Y-10727167D01*
X3621548Y-10746214D01*
D12*
X1892500Y-11130500D02*
X1992500Y-11230500D01*
X1992500Y-11130500D02*
X1892500Y-11230500D01*
D11*
X2354881Y-11270976D02*
X2240595Y-11270976D01*
X2297738Y-11270976D02*
X2297738Y-11070976D01*
X2278690Y-11099548D01*
X2259643Y-11118595D01*
X2240595Y-11128119D01*
X2440595Y-11251928D02*
X2450119Y-11261452D01*
X2440595Y-11270976D01*
X2431071Y-11261452D01*
X2440595Y-11251928D01*
X2440595Y-11270976D01*
X2573929Y-11070976D02*
X2592976Y-11070976D01*
X2612024Y-11080500D01*
X2621548Y-11090024D01*
X2631071Y-11109071D01*
X2640595Y-11147167D01*
X2640595Y-11194786D01*
X2631071Y-11232881D01*
X2621548Y-11251928D01*
X2612024Y-11261452D01*
X2592976Y-11270976D01*
X2573929Y-11270976D01*
X2554881Y-11261452D01*
X2545357Y-11251928D01*
X2535833Y-11232881D01*
X2526310Y-11194786D01*
X2526310Y-11147167D01*
X2535833Y-11109071D01*
X2545357Y-11090024D01*
X2554881Y-11080500D01*
X2573929Y-11070976D01*
X2764405Y-11070976D02*
X2783452Y-11070976D01*
X2802500Y-11080500D01*
X2812024Y-11090024D01*
X2821548Y-11109071D01*
X2831071Y-11147167D01*
X2831071Y-11194786D01*
X2821548Y-11232881D01*
X2812024Y-11251928D01*
X2802500Y-11261452D01*
X2783452Y-11270976D01*
X2764405Y-11270976D01*
X2745357Y-11261452D01*
X2735833Y-11251928D01*
X2726310Y-11232881D01*
X2716786Y-11194786D01*
X2716786Y-11147167D01*
X2726310Y-11109071D01*
X2735833Y-11090024D01*
X2745357Y-11080500D01*
X2764405Y-11070976D01*
X2954881Y-11070976D02*
X2973928Y-11070976D01*
X2992976Y-11080500D01*
X3002500Y-11090024D01*
X3012024Y-11109071D01*
X3021548Y-11147167D01*
X3021548Y-11194786D01*
X3012024Y-11232881D01*
X3002500Y-11251928D01*
X2992976Y-11261452D01*
X2973928Y-11270976D01*
X2954881Y-11270976D01*
X2935833Y-11261452D01*
X2926309Y-11251928D01*
X2916786Y-11232881D01*
X2907262Y-11194786D01*
X2907262Y-11147167D01*
X2916786Y-11109071D01*
X2926309Y-11090024D01*
X2935833Y-11080500D01*
X2954881Y-11070976D01*
X3107262Y-11270976D02*
X3107262Y-11137643D01*
X3107262Y-11156690D02*
X3116786Y-11147167D01*
X3135833Y-11137643D01*
X3164405Y-11137643D01*
X3183452Y-11147167D01*
X3192976Y-11166214D01*
X3192976Y-11270976D01*
X3192976Y-11166214D02*
X3202500Y-11147167D01*
X3221548Y-11137643D01*
X3250119Y-11137643D01*
X3269167Y-11147167D01*
X3278690Y-11166214D01*
X3278690Y-11270976D01*
X3373928Y-11270976D02*
X3373928Y-11137643D01*
X3373928Y-11156690D02*
X3383452Y-11147167D01*
X3402500Y-11137643D01*
X3431071Y-11137643D01*
X3450119Y-11147167D01*
X3459643Y-11166214D01*
X3459643Y-11270976D01*
X3459643Y-11166214D02*
X3469167Y-11147167D01*
X3488214Y-11137643D01*
X3516786Y-11137643D01*
X3535833Y-11147167D01*
X3545357Y-11166214D01*
X3545357Y-11270976D01*
X3935833Y-11061452D02*
X3764405Y-11318595D01*
X4192976Y-11070976D02*
X4212024Y-11070976D01*
X4231071Y-11080500D01*
X4240595Y-11090024D01*
X4250119Y-11109071D01*
X4259643Y-11147167D01*
X4259643Y-11194786D01*
X4250119Y-11232881D01*
X4240595Y-11251928D01*
X4231071Y-11261452D01*
X4212024Y-11270976D01*
X4192976Y-11270976D01*
X4173928Y-11261452D01*
X4164405Y-11251928D01*
X4154881Y-11232881D01*
X4145357Y-11194786D01*
X4145357Y-11147167D01*
X4154881Y-11109071D01*
X4164405Y-11090024D01*
X4173928Y-11080500D01*
X4192976Y-11070976D01*
X4345357Y-11251928D02*
X4354881Y-11261452D01*
X4345357Y-11270976D01*
X4335833Y-11261452D01*
X4345357Y-11251928D01*
X4345357Y-11270976D01*
X4478690Y-11070976D02*
X4497738Y-11070976D01*
X4516786Y-11080500D01*
X4526310Y-11090024D01*
X4535833Y-11109071D01*
X4545357Y-11147167D01*
X4545357Y-11194786D01*
X4535833Y-11232881D01*
X4526310Y-11251928D01*
X4516786Y-11261452D01*
X4497738Y-11270976D01*
X4478690Y-11270976D01*
X4459643Y-11261452D01*
X4450119Y-11251928D01*
X4440595Y-11232881D01*
X4431071Y-11194786D01*
X4431071Y-11147167D01*
X4440595Y-11109071D01*
X4450119Y-11090024D01*
X4459643Y-11080500D01*
X4478690Y-11070976D01*
X4612024Y-11070976D02*
X4735833Y-11070976D01*
X4669167Y-11147167D01*
X4697738Y-11147167D01*
X4716786Y-11156690D01*
X4726310Y-11166214D01*
X4735833Y-11185262D01*
X4735833Y-11232881D01*
X4726310Y-11251928D01*
X4716786Y-11261452D01*
X4697738Y-11270976D01*
X4640595Y-11270976D01*
X4621548Y-11261452D01*
X4612024Y-11251928D01*
X4831071Y-11270976D02*
X4869167Y-11270976D01*
X4888214Y-11261452D01*
X4897738Y-11251928D01*
X4916786Y-11223357D01*
X4926310Y-11185262D01*
X4926310Y-11109071D01*
X4916786Y-11090024D01*
X4907262Y-11080500D01*
X4888214Y-11070976D01*
X4850119Y-11070976D01*
X4831071Y-11080500D01*
X4821548Y-11090024D01*
X4812024Y-11109071D01*
X4812024Y-11156690D01*
X4821548Y-11175738D01*
X4831071Y-11185262D01*
X4850119Y-11194786D01*
X4888214Y-11194786D01*
X4907262Y-11185262D01*
X4916786Y-11175738D01*
X4926310Y-11156690D01*
X5097738Y-11137643D02*
X5097738Y-11270976D01*
X5050119Y-11061452D02*
X5002500Y-11204309D01*
X5126310Y-11204309D01*
X5192976Y-11070976D02*
X5192976Y-11109071D01*
X5269167Y-11070976D02*
X5269167Y-11109071D01*
X5564405Y-11347167D02*
X5554881Y-11337643D01*
X5535833Y-11309071D01*
X5526310Y-11290024D01*
X5516786Y-11261452D01*
X5507262Y-11213833D01*
X5507262Y-11175738D01*
X5516786Y-11128119D01*
X5526310Y-11099548D01*
X5535833Y-11080500D01*
X5554881Y-11051929D01*
X5564405Y-11042405D01*
X5669167Y-11156690D02*
X5650119Y-11147167D01*
X5640595Y-11137643D01*
X5631071Y-11118595D01*
X5631071Y-11109071D01*
X5640595Y-11090024D01*
X5650119Y-11080500D01*
X5669167Y-11070976D01*
X5707262Y-11070976D01*
X5726309Y-11080500D01*
X5735833Y-11090024D01*
X5745357Y-11109071D01*
X5745357Y-11118595D01*
X5735833Y-11137643D01*
X5726309Y-11147167D01*
X5707262Y-11156690D01*
X5669167Y-11156690D01*
X5650119Y-11166214D01*
X5640595Y-11175738D01*
X5631071Y-11194786D01*
X5631071Y-11232881D01*
X5640595Y-11251928D01*
X5650119Y-11261452D01*
X5669167Y-11270976D01*
X5707262Y-11270976D01*
X5726309Y-11261452D01*
X5735833Y-11251928D01*
X5745357Y-11232881D01*
X5745357Y-11194786D01*
X5735833Y-11175738D01*
X5726309Y-11166214D01*
X5707262Y-11156690D01*
X5983452Y-11270976D02*
X5983452Y-11070976D01*
X6069167Y-11270976D02*
X6069167Y-11166214D01*
X6059643Y-11147167D01*
X6040595Y-11137643D01*
X6012024Y-11137643D01*
X5992976Y-11147167D01*
X5983452Y-11156690D01*
X6192976Y-11270976D02*
X6173928Y-11261452D01*
X6164405Y-11251928D01*
X6154881Y-11232881D01*
X6154881Y-11175738D01*
X6164405Y-11156690D01*
X6173928Y-11147167D01*
X6192976Y-11137643D01*
X6221548Y-11137643D01*
X6240595Y-11147167D01*
X6250119Y-11156690D01*
X6259643Y-11175738D01*
X6259643Y-11232881D01*
X6250119Y-11251928D01*
X6240595Y-11261452D01*
X6221548Y-11270976D01*
X6192976Y-11270976D01*
X6373928Y-11270976D02*
X6354881Y-11261452D01*
X6345357Y-11242405D01*
X6345357Y-11070976D01*
X6526309Y-11261452D02*
X6507262Y-11270976D01*
X6469167Y-11270976D01*
X6450119Y-11261452D01*
X6440595Y-11242405D01*
X6440595Y-11166214D01*
X6450119Y-11147167D01*
X6469167Y-11137643D01*
X6507262Y-11137643D01*
X6526309Y-11147167D01*
X6535833Y-11166214D01*
X6535833Y-11185262D01*
X6440595Y-11204309D01*
X6612024Y-11261452D02*
X6631071Y-11270976D01*
X6669167Y-11270976D01*
X6688214Y-11261452D01*
X6697738Y-11242405D01*
X6697738Y-11232881D01*
X6688214Y-11213833D01*
X6669167Y-11204309D01*
X6640595Y-11204309D01*
X6621548Y-11194786D01*
X6612024Y-11175738D01*
X6612024Y-11166214D01*
X6621548Y-11147167D01*
X6640595Y-11137643D01*
X6669167Y-11137643D01*
X6688214Y-11147167D01*
X6764405Y-11347167D02*
X6773928Y-11337643D01*
X6792976Y-11309071D01*
X6802500Y-11290024D01*
X6812024Y-11261452D01*
X6821548Y-11213833D01*
X6821548Y-11175738D01*
X6812024Y-11128119D01*
X6802500Y-11099548D01*
X6792976Y-11080500D01*
X6773928Y-11051929D01*
X6764405Y-11042405D01*
X7126309Y-11347167D02*
X7116786Y-11337643D01*
X7097738Y-11309071D01*
X7088214Y-11290024D01*
X7078690Y-11261452D01*
X7069167Y-11213833D01*
X7069167Y-11175738D01*
X7078690Y-11128119D01*
X7088214Y-11099548D01*
X7097738Y-11080500D01*
X7116786Y-11051929D01*
X7126309Y-11042405D01*
X7202500Y-11137643D02*
X7202500Y-11270976D01*
X7202500Y-11156690D02*
X7212024Y-11147167D01*
X7231071Y-11137643D01*
X7259643Y-11137643D01*
X7278690Y-11147167D01*
X7288214Y-11166214D01*
X7288214Y-11270976D01*
X7412024Y-11270976D02*
X7392976Y-11261452D01*
X7383452Y-11251928D01*
X7373928Y-11232881D01*
X7373928Y-11175738D01*
X7383452Y-11156690D01*
X7392976Y-11147167D01*
X7412024Y-11137643D01*
X7440595Y-11137643D01*
X7459643Y-11147167D01*
X7469167Y-11156690D01*
X7478690Y-11175738D01*
X7478690Y-11232881D01*
X7469167Y-11251928D01*
X7459643Y-11261452D01*
X7440595Y-11270976D01*
X7412024Y-11270976D01*
X7535833Y-11137643D02*
X7612024Y-11137643D01*
X7564405Y-11070976D02*
X7564405Y-11242405D01*
X7573928Y-11261452D01*
X7592976Y-11270976D01*
X7612024Y-11270976D01*
X7831071Y-11137643D02*
X7831071Y-11337643D01*
X7831071Y-11147167D02*
X7850119Y-11137643D01*
X7888214Y-11137643D01*
X7907262Y-11147167D01*
X7916786Y-11156690D01*
X7926309Y-11175738D01*
X7926309Y-11232881D01*
X7916786Y-11251928D01*
X7907262Y-11261452D01*
X7888214Y-11270976D01*
X7850119Y-11270976D01*
X7831071Y-11261452D01*
X8040595Y-11270976D02*
X8021548Y-11261452D01*
X8012024Y-11242405D01*
X8012024Y-11070976D01*
X8202500Y-11270976D02*
X8202500Y-11166214D01*
X8192976Y-11147167D01*
X8173928Y-11137643D01*
X8135833Y-11137643D01*
X8116786Y-11147167D01*
X8202500Y-11261452D02*
X8183452Y-11270976D01*
X8135833Y-11270976D01*
X8116786Y-11261452D01*
X8107262Y-11242405D01*
X8107262Y-11223357D01*
X8116786Y-11204309D01*
X8135833Y-11194786D01*
X8183452Y-11194786D01*
X8202500Y-11185262D01*
X8269167Y-11137643D02*
X8345357Y-11137643D01*
X8297738Y-11070976D02*
X8297738Y-11242405D01*
X8307262Y-11261452D01*
X8326309Y-11270976D01*
X8345357Y-11270976D01*
X8488214Y-11261452D02*
X8469167Y-11270976D01*
X8431071Y-11270976D01*
X8412024Y-11261452D01*
X8402500Y-11242405D01*
X8402500Y-11166214D01*
X8412024Y-11147167D01*
X8431071Y-11137643D01*
X8469167Y-11137643D01*
X8488214Y-11147167D01*
X8497738Y-11166214D01*
X8497738Y-11185262D01*
X8402500Y-11204309D01*
X8669167Y-11270976D02*
X8669167Y-11070976D01*
X8669167Y-11261452D02*
X8650119Y-11270976D01*
X8612024Y-11270976D01*
X8592976Y-11261452D01*
X8583452Y-11251928D01*
X8573929Y-11232881D01*
X8573929Y-11175738D01*
X8583452Y-11156690D01*
X8592976Y-11147167D01*
X8612024Y-11137643D01*
X8650119Y-11137643D01*
X8669167Y-11147167D01*
X8745357Y-11347167D02*
X8754881Y-11337643D01*
X8773929Y-11309071D01*
X8783452Y-11290024D01*
X8792976Y-11261452D01*
X8802500Y-11213833D01*
X8802500Y-11175738D01*
X8792976Y-11128119D01*
X8783452Y-11099548D01*
X8773929Y-11080500D01*
X8754881Y-11051929D01*
X8745357Y-11042405D01*
X1992500Y-11444500D02*
G75*
G03*
X1992500Y-11444500I-100000J0D01*
G01*
X2231071Y-11334976D02*
X2354881Y-11334976D01*
X2288214Y-11411167D01*
X2316786Y-11411167D01*
X2335833Y-11420690D01*
X2345357Y-11430214D01*
X2354881Y-11449262D01*
X2354881Y-11496881D01*
X2345357Y-11515928D01*
X2335833Y-11525452D01*
X2316786Y-11534976D01*
X2259643Y-11534976D01*
X2240595Y-11525452D01*
X2231071Y-11515928D01*
X2440595Y-11515928D02*
X2450119Y-11525452D01*
X2440595Y-11534976D01*
X2431071Y-11525452D01*
X2440595Y-11515928D01*
X2440595Y-11534976D01*
X2526310Y-11354024D02*
X2535833Y-11344500D01*
X2554881Y-11334976D01*
X2602500Y-11334976D01*
X2621548Y-11344500D01*
X2631071Y-11354024D01*
X2640595Y-11373071D01*
X2640595Y-11392119D01*
X2631071Y-11420690D01*
X2516786Y-11534976D01*
X2640595Y-11534976D01*
X2764405Y-11334976D02*
X2783452Y-11334976D01*
X2802500Y-11344500D01*
X2812024Y-11354024D01*
X2821548Y-11373071D01*
X2831071Y-11411167D01*
X2831071Y-11458786D01*
X2821548Y-11496881D01*
X2812024Y-11515928D01*
X2802500Y-11525452D01*
X2783452Y-11534976D01*
X2764405Y-11534976D01*
X2745357Y-11525452D01*
X2735833Y-11515928D01*
X2726310Y-11496881D01*
X2716786Y-11458786D01*
X2716786Y-11411167D01*
X2726310Y-11373071D01*
X2735833Y-11354024D01*
X2745357Y-11344500D01*
X2764405Y-11334976D01*
X2954881Y-11334976D02*
X2973928Y-11334976D01*
X2992976Y-11344500D01*
X3002500Y-11354024D01*
X3012024Y-11373071D01*
X3021548Y-11411167D01*
X3021548Y-11458786D01*
X3012024Y-11496881D01*
X3002500Y-11515928D01*
X2992976Y-11525452D01*
X2973928Y-11534976D01*
X2954881Y-11534976D01*
X2935833Y-11525452D01*
X2926309Y-11515928D01*
X2916786Y-11496881D01*
X2907262Y-11458786D01*
X2907262Y-11411167D01*
X2916786Y-11373071D01*
X2926309Y-11354024D01*
X2935833Y-11344500D01*
X2954881Y-11334976D01*
X3107262Y-11534976D02*
X3107262Y-11401643D01*
X3107262Y-11420690D02*
X3116786Y-11411167D01*
X3135833Y-11401643D01*
X3164405Y-11401643D01*
X3183452Y-11411167D01*
X3192976Y-11430214D01*
X3192976Y-11534976D01*
X3192976Y-11430214D02*
X3202500Y-11411167D01*
X3221548Y-11401643D01*
X3250119Y-11401643D01*
X3269167Y-11411167D01*
X3278690Y-11430214D01*
X3278690Y-11534976D01*
X3373928Y-11534976D02*
X3373928Y-11401643D01*
X3373928Y-11420690D02*
X3383452Y-11411167D01*
X3402500Y-11401643D01*
X3431071Y-11401643D01*
X3450119Y-11411167D01*
X3459643Y-11430214D01*
X3459643Y-11534976D01*
X3459643Y-11430214D02*
X3469167Y-11411167D01*
X3488214Y-11401643D01*
X3516786Y-11401643D01*
X3535833Y-11411167D01*
X3545357Y-11430214D01*
X3545357Y-11534976D01*
X3935833Y-11325452D02*
X3764405Y-11582595D01*
X4192976Y-11334976D02*
X4212024Y-11334976D01*
X4231071Y-11344500D01*
X4240595Y-11354024D01*
X4250119Y-11373071D01*
X4259643Y-11411167D01*
X4259643Y-11458786D01*
X4250119Y-11496881D01*
X4240595Y-11515928D01*
X4231071Y-11525452D01*
X4212024Y-11534976D01*
X4192976Y-11534976D01*
X4173928Y-11525452D01*
X4164405Y-11515928D01*
X4154881Y-11496881D01*
X4145357Y-11458786D01*
X4145357Y-11411167D01*
X4154881Y-11373071D01*
X4164405Y-11354024D01*
X4173928Y-11344500D01*
X4192976Y-11334976D01*
X4345357Y-11515928D02*
X4354881Y-11525452D01*
X4345357Y-11534976D01*
X4335833Y-11525452D01*
X4345357Y-11515928D01*
X4345357Y-11534976D01*
X4545357Y-11534976D02*
X4431071Y-11534976D01*
X4488214Y-11534976D02*
X4488214Y-11334976D01*
X4469167Y-11363548D01*
X4450119Y-11382595D01*
X4431071Y-11392119D01*
X4621548Y-11354024D02*
X4631071Y-11344500D01*
X4650119Y-11334976D01*
X4697738Y-11334976D01*
X4716786Y-11344500D01*
X4726310Y-11354024D01*
X4735833Y-11373071D01*
X4735833Y-11392119D01*
X4726310Y-11420690D01*
X4612024Y-11534976D01*
X4735833Y-11534976D01*
X4907262Y-11334976D02*
X4869167Y-11334976D01*
X4850119Y-11344500D01*
X4840595Y-11354024D01*
X4821548Y-11382595D01*
X4812024Y-11420690D01*
X4812024Y-11496881D01*
X4821548Y-11515928D01*
X4831071Y-11525452D01*
X4850119Y-11534976D01*
X4888214Y-11534976D01*
X4907262Y-11525452D01*
X4916786Y-11515928D01*
X4926310Y-11496881D01*
X4926310Y-11449262D01*
X4916786Y-11430214D01*
X4907262Y-11420690D01*
X4888214Y-11411167D01*
X4850119Y-11411167D01*
X4831071Y-11420690D01*
X4821548Y-11430214D01*
X4812024Y-11449262D01*
X5050119Y-11334976D02*
X5069167Y-11334976D01*
X5088214Y-11344500D01*
X5097738Y-11354024D01*
X5107262Y-11373071D01*
X5116786Y-11411167D01*
X5116786Y-11458786D01*
X5107262Y-11496881D01*
X5097738Y-11515928D01*
X5088214Y-11525452D01*
X5069167Y-11534976D01*
X5050119Y-11534976D01*
X5031071Y-11525452D01*
X5021548Y-11515928D01*
X5012024Y-11496881D01*
X5002500Y-11458786D01*
X5002500Y-11411167D01*
X5012024Y-11373071D01*
X5021548Y-11354024D01*
X5031071Y-11344500D01*
X5050119Y-11334976D01*
X5192976Y-11334976D02*
X5192976Y-11373071D01*
X5269167Y-11334976D02*
X5269167Y-11373071D01*
X5564405Y-11611167D02*
X5554881Y-11601643D01*
X5535833Y-11573071D01*
X5526310Y-11554024D01*
X5516786Y-11525452D01*
X5507262Y-11477833D01*
X5507262Y-11439738D01*
X5516786Y-11392119D01*
X5526310Y-11363548D01*
X5535833Y-11344500D01*
X5554881Y-11315928D01*
X5564405Y-11306405D01*
X5726309Y-11401643D02*
X5726309Y-11534976D01*
X5678690Y-11325452D02*
X5631071Y-11468309D01*
X5754881Y-11468309D01*
X5983452Y-11534976D02*
X5983452Y-11334976D01*
X6069167Y-11534976D02*
X6069167Y-11430214D01*
X6059643Y-11411167D01*
X6040595Y-11401643D01*
X6012024Y-11401643D01*
X5992976Y-11411167D01*
X5983452Y-11420690D01*
X6192976Y-11534976D02*
X6173928Y-11525452D01*
X6164405Y-11515928D01*
X6154881Y-11496881D01*
X6154881Y-11439738D01*
X6164405Y-11420690D01*
X6173928Y-11411167D01*
X6192976Y-11401643D01*
X6221548Y-11401643D01*
X6240595Y-11411167D01*
X6250119Y-11420690D01*
X6259643Y-11439738D01*
X6259643Y-11496881D01*
X6250119Y-11515928D01*
X6240595Y-11525452D01*
X6221548Y-11534976D01*
X6192976Y-11534976D01*
X6373928Y-11534976D02*
X6354881Y-11525452D01*
X6345357Y-11506405D01*
X6345357Y-11334976D01*
X6526309Y-11525452D02*
X6507262Y-11534976D01*
X6469167Y-11534976D01*
X6450119Y-11525452D01*
X6440595Y-11506405D01*
X6440595Y-11430214D01*
X6450119Y-11411167D01*
X6469167Y-11401643D01*
X6507262Y-11401643D01*
X6526309Y-11411167D01*
X6535833Y-11430214D01*
X6535833Y-11449262D01*
X6440595Y-11468309D01*
X6612024Y-11525452D02*
X6631071Y-11534976D01*
X6669167Y-11534976D01*
X6688214Y-11525452D01*
X6697738Y-11506405D01*
X6697738Y-11496881D01*
X6688214Y-11477833D01*
X6669167Y-11468309D01*
X6640595Y-11468309D01*
X6621548Y-11458786D01*
X6612024Y-11439738D01*
X6612024Y-11430214D01*
X6621548Y-11411167D01*
X6640595Y-11401643D01*
X6669167Y-11401643D01*
X6688214Y-11411167D01*
X6764405Y-11611167D02*
X6773928Y-11601643D01*
X6792976Y-11573071D01*
X6802500Y-11554024D01*
X6812024Y-11525452D01*
X6821548Y-11477833D01*
X6821548Y-11439738D01*
X6812024Y-11392119D01*
X6802500Y-11363548D01*
X6792976Y-11344500D01*
X6773928Y-11315928D01*
X6764405Y-11306405D01*
X7126309Y-11611167D02*
X7116786Y-11601643D01*
X7097738Y-11573071D01*
X7088214Y-11554024D01*
X7078690Y-11525452D01*
X7069167Y-11477833D01*
X7069167Y-11439738D01*
X7078690Y-11392119D01*
X7088214Y-11363548D01*
X7097738Y-11344500D01*
X7116786Y-11315928D01*
X7126309Y-11306405D01*
X7202500Y-11401643D02*
X7202500Y-11534976D01*
X7202500Y-11420690D02*
X7212024Y-11411167D01*
X7231071Y-11401643D01*
X7259643Y-11401643D01*
X7278690Y-11411167D01*
X7288214Y-11430214D01*
X7288214Y-11534976D01*
X7412024Y-11534976D02*
X7392976Y-11525452D01*
X7383452Y-11515928D01*
X7373928Y-11496881D01*
X7373928Y-11439738D01*
X7383452Y-11420690D01*
X7392976Y-11411167D01*
X7412024Y-11401643D01*
X7440595Y-11401643D01*
X7459643Y-11411167D01*
X7469167Y-11420690D01*
X7478690Y-11439738D01*
X7478690Y-11496881D01*
X7469167Y-11515928D01*
X7459643Y-11525452D01*
X7440595Y-11534976D01*
X7412024Y-11534976D01*
X7535833Y-11401643D02*
X7612024Y-11401643D01*
X7564405Y-11334976D02*
X7564405Y-11506405D01*
X7573928Y-11525452D01*
X7592976Y-11534976D01*
X7612024Y-11534976D01*
X7831071Y-11401643D02*
X7831071Y-11601643D01*
X7831071Y-11411167D02*
X7850119Y-11401643D01*
X7888214Y-11401643D01*
X7907262Y-11411167D01*
X7916786Y-11420690D01*
X7926309Y-11439738D01*
X7926309Y-11496881D01*
X7916786Y-11515928D01*
X7907262Y-11525452D01*
X7888214Y-11534976D01*
X7850119Y-11534976D01*
X7831071Y-11525452D01*
X8040595Y-11534976D02*
X8021548Y-11525452D01*
X8012024Y-11506405D01*
X8012024Y-11334976D01*
X8202500Y-11534976D02*
X8202500Y-11430214D01*
X8192976Y-11411167D01*
X8173928Y-11401643D01*
X8135833Y-11401643D01*
X8116786Y-11411167D01*
X8202500Y-11525452D02*
X8183452Y-11534976D01*
X8135833Y-11534976D01*
X8116786Y-11525452D01*
X8107262Y-11506405D01*
X8107262Y-11487357D01*
X8116786Y-11468309D01*
X8135833Y-11458786D01*
X8183452Y-11458786D01*
X8202500Y-11449262D01*
X8269167Y-11401643D02*
X8345357Y-11401643D01*
X8297738Y-11334976D02*
X8297738Y-11506405D01*
X8307262Y-11525452D01*
X8326309Y-11534976D01*
X8345357Y-11534976D01*
X8488214Y-11525452D02*
X8469167Y-11534976D01*
X8431071Y-11534976D01*
X8412024Y-11525452D01*
X8402500Y-11506405D01*
X8402500Y-11430214D01*
X8412024Y-11411167D01*
X8431071Y-11401643D01*
X8469167Y-11401643D01*
X8488214Y-11411167D01*
X8497738Y-11430214D01*
X8497738Y-11449262D01*
X8402500Y-11468309D01*
X8669167Y-11534976D02*
X8669167Y-11334976D01*
X8669167Y-11525452D02*
X8650119Y-11534976D01*
X8612024Y-11534976D01*
X8592976Y-11525452D01*
X8583452Y-11515928D01*
X8573929Y-11496881D01*
X8573929Y-11439738D01*
X8583452Y-11420690D01*
X8592976Y-11411167D01*
X8612024Y-11401643D01*
X8650119Y-11401643D01*
X8669167Y-11411167D01*
X8745357Y-11611167D02*
X8754881Y-11601643D01*
X8773929Y-11573071D01*
X8783452Y-11554024D01*
X8792976Y-11525452D01*
X8802500Y-11477833D01*
X8802500Y-11439738D01*
X8792976Y-11392119D01*
X8783452Y-11363548D01*
X8773929Y-11344500D01*
X8754881Y-11315928D01*
X8745357Y-11306405D01*
M02*
