M48
; DRILL file {KiCad (6.0.9)} date Mon Dec  5 20:21:48 2022
; FORMAT={-:-/ absolute / inch / decimal}
; #@! TF.CreationDate,2022-12-05T20:21:48+01:00
; #@! TF.GenerationSoftware,Kicad,Pcbnew,(6.0.9)
; #@! TF.FileFunction,Plated,1,2,PTH
FMAT,2
INCH
; #@! TA.AperFunction,Plated,PTH,ViaDrill
T1C0.0157
; #@! TA.AperFunction,Plated,PTH,ComponentDrill
T2C0.0315
; #@! TA.AperFunction,Plated,PTH,ComponentDrill
T3C0.0394
%
G90
G05
T1
X1.6015Y-1.9359
X2.4175Y-2.0831
X2.9847Y-2.7648
X3.1291Y-2.7175
X3.9649Y-2.2132
X4.0018Y-2.1051
X4.008Y-2.8468
X4.0099Y-2.34
X4.02Y-2.7985
X4.1671Y-1.7348
X4.385Y-1.8021
X4.4162Y-1.5966
X4.4659Y-3.1393
X4.4848Y-1.6633
X4.5375Y-2.5467
X4.567Y-2.3377
X4.7877Y-2.1992
X4.9737Y-2.247
T2
X1.0514Y-2.1792
X1.0514Y-2.2792
X1.0514Y-2.3792
X1.0514Y-2.4792
X1.0514Y-2.5792
X1.0514Y-2.6792
X1.0514Y-2.7792
X1.1534Y-1.4626
X1.1534Y-1.7626
X1.2534Y-1.4626
X1.2534Y-1.7626
X1.3514Y-2.1792
X1.3514Y-2.2792
X1.3514Y-2.3792
X1.3514Y-2.4792
X1.3514Y-2.5792
X1.3514Y-2.6792
X1.3514Y-2.7792
X1.3534Y-1.4626
X1.3534Y-1.7626
X1.4534Y-1.4626
X1.4534Y-1.7626
X1.5534Y-1.4626
X1.5534Y-1.7626
X1.6534Y-1.4626
X1.6534Y-1.7626
X1.7534Y-1.4626
X1.7534Y-1.7626
X1.7906Y-2.1818
X1.7906Y-2.2818
X1.7906Y-2.3818
X1.7906Y-2.4818
X1.7906Y-2.5818
X1.7906Y-2.6818
X1.7906Y-2.7818
X1.8534Y-1.4626
X1.8534Y-1.7626
X2.0906Y-2.1818
X2.0906Y-2.2818
X2.0906Y-2.3818
X2.0906Y-2.4818
X2.0906Y-2.5818
X2.0906Y-2.6818
X2.0906Y-2.7818
X2.5308Y-2.578
X2.6095Y-2.578
X2.6883Y-2.578
X2.767Y-2.578
X2.925Y-1.574
X2.925Y-1.874
X3.025Y-1.574
X3.025Y-1.874
X3.125Y-1.574
X3.125Y-1.874
X3.225Y-1.574
X3.225Y-1.874
X3.325Y-1.574
X3.325Y-1.874
X3.425Y-1.574
X3.425Y-1.874
X3.525Y-1.574
X3.525Y-1.874
X3.625Y-1.574
X3.625Y-1.874
X3.725Y-1.574
X3.725Y-1.874
X5.7496Y-2.1106
X5.7496Y-2.2106
X5.7496Y-2.3106
X5.7496Y-2.4106
X5.7496Y-2.5106
X5.7496Y-2.6106
X5.7496Y-2.7106
X5.7496Y-2.8106
X5.7514Y-3.1034
X5.7514Y-3.2034
X5.7514Y-3.3034
X5.7514Y-3.4034
X5.7514Y-3.5034
X5.7514Y-3.6034
X5.7514Y-3.7034
X5.7514Y-3.8034
X6.0496Y-2.1106
X6.0496Y-2.2106
X6.0496Y-2.3106
X6.0496Y-2.4106
X6.0496Y-2.5106
X6.0496Y-2.6106
X6.0496Y-2.7106
X6.0496Y-2.8106
X6.0514Y-3.1034
X6.0514Y-3.2034
X6.0514Y-3.3034
X6.0514Y-3.4034
X6.0514Y-3.5034
X6.0514Y-3.6034
X6.0514Y-3.7034
X6.0514Y-3.8034
T3
X1.112Y-3.1409
X1.112Y-3.259
X1.2301Y-3.1409
X1.2301Y-3.259
X1.3482Y-3.1409
X1.3482Y-3.259
X1.3504Y-1.0342
X1.3504Y-1.1342
X1.4504Y-1.0342
X1.4504Y-1.1342
X1.4663Y-3.1409
X1.4663Y-3.259
X1.5504Y-1.0342
X1.5504Y-1.1342
X1.5844Y-3.1409
X1.5844Y-3.259
X1.6504Y-1.0342
X1.6504Y-1.1342
X1.7026Y-3.1409
X1.7026Y-3.259
X1.8207Y-3.1409
X1.8207Y-3.259
X2.3116Y-1.2734
X2.3116Y-1.3734
X2.3117Y-3.2736
X2.3117Y-3.3736
X2.4116Y-1.2734
X2.4116Y-1.3734
X2.4117Y-3.2736
X2.4117Y-3.3736
X2.5116Y-1.2734
X2.5116Y-1.3734
X2.5117Y-3.2736
X2.5117Y-3.3736
X2.6116Y-1.2734
X2.6116Y-1.3734
X2.6117Y-3.2736
X2.6117Y-3.3736
X2.7116Y-1.2734
X2.7116Y-1.3734
X2.7117Y-3.2736
X2.7117Y-3.3736
X2.8116Y-1.2734
X2.8116Y-1.3734
X2.8117Y-3.2736
X2.8117Y-3.3736
X2.9116Y-1.2734
X2.9116Y-1.3734
X2.9117Y-3.2736
X2.9117Y-3.3736
X3.0116Y-1.2734
X3.0116Y-1.3734
X3.0117Y-3.2736
X3.0117Y-3.3736
X3.1116Y-1.2734
X3.1116Y-1.3734
X3.1117Y-3.2736
X3.1117Y-3.3736
X3.2116Y-1.2734
X3.2116Y-1.3734
X3.2117Y-3.2736
X3.2117Y-3.3736
X3.3008Y-2.1313
X3.3008Y-2.2494
X3.3008Y-2.3675
X3.3008Y-2.4856
X3.3008Y-2.6037
X3.3008Y-2.7218
X3.3008Y-2.8399
X3.3116Y-1.2734
X3.3116Y-1.3734
X3.3117Y-3.2736
X3.3117Y-3.3736
X3.4116Y-1.2734
X3.4116Y-1.3734
X3.4117Y-3.2736
X3.4117Y-3.3736
X3.4189Y-2.1313
X3.4189Y-2.2494
X3.4189Y-2.3675
X3.4189Y-2.4856
X3.4189Y-2.6037
X3.4189Y-2.7218
X3.4189Y-2.8399
X3.5116Y-1.2734
X3.5116Y-1.3734
X3.5117Y-3.2736
X3.5117Y-3.3736
X3.6116Y-1.2734
X3.6116Y-1.3734
X3.6117Y-3.2736
X3.6117Y-3.3736
X3.7116Y-1.2734
X3.7116Y-1.3734
X3.7117Y-3.2736
X3.7117Y-3.3736
X3.8116Y-1.2734
X3.8116Y-1.3734
X3.8117Y-3.2736
X3.8117Y-3.3736
X3.9116Y-1.2734
X3.9116Y-1.3734
X3.9117Y-3.2736
X3.9117Y-3.3736
X4.0116Y-1.2734
X4.0116Y-1.3734
X4.0117Y-3.2736
X4.0117Y-3.3736
X4.1116Y-1.2734
X4.1116Y-1.3734
X4.1117Y-3.2736
X4.1117Y-3.3736
X4.2116Y-1.2734
X4.2116Y-1.3734
X4.2117Y-3.2736
X4.2117Y-3.3736
X4.3116Y-1.2734
X4.3116Y-1.3734
X4.3117Y-3.2736
X4.3117Y-3.3736
X4.326Y-1.9108
X4.326Y-2.0289
X4.326Y-2.147
X4.326Y-2.2651
X4.326Y-2.3832
X4.326Y-2.5013
X4.326Y-2.6194
X4.326Y-2.7376
X4.326Y-2.8557
X4.4116Y-1.2734
X4.4116Y-1.3734
X4.4117Y-3.2736
X4.4117Y-3.3736
X4.4441Y-1.9108
X4.4441Y-2.0289
X4.4441Y-2.147
X4.4441Y-2.2651
X4.4441Y-2.3832
X4.4441Y-2.5013
X4.4441Y-2.6194
X4.4441Y-2.7376
X4.4441Y-2.8557
X4.5116Y-1.2734
X4.5116Y-1.3734
X4.5117Y-3.2736
X4.5117Y-3.3736
X4.6116Y-1.2734
X4.6116Y-1.3734
X4.6117Y-3.2736
X4.6117Y-3.3736
X4.7116Y-1.2734
X4.7116Y-1.3734
X4.7117Y-3.2736
X4.7117Y-3.3736
X4.8116Y-1.2734
X4.8116Y-1.3734
X4.8117Y-3.2736
X4.8117Y-3.3736
X4.9116Y-1.2734
X4.9116Y-1.3734
X4.9117Y-3.2736
X4.9117Y-3.3736
X5.0116Y-1.2734
X5.0116Y-1.3734
X5.0117Y-3.2736
X5.0117Y-3.3736
X5.1116Y-1.2734
X5.1116Y-1.3734
X5.1117Y-3.2736
X5.1117Y-3.3736
X5.2116Y-1.2734
X5.2116Y-1.3734
X5.2117Y-3.2736
X5.2117Y-3.3736
X5.3116Y-1.2734
X5.3116Y-1.3734
X5.3117Y-3.2736
X5.3117Y-3.3736
X5.4116Y-1.2734
X5.4116Y-1.3734
X5.4117Y-3.2736
X5.4117Y-3.3736
X6.2929Y-2.7813
X6.2929Y-2.8994
X6.2929Y-3.0176
X6.2929Y-3.1357
X6.2929Y-3.2538
X6.2929Y-3.3719
X6.2929Y-3.49
X6.411Y-2.7813
X6.411Y-2.8994
X6.411Y-3.0176
X6.411Y-3.1357
X6.411Y-3.2538
X6.411Y-3.3719
X6.411Y-3.49
T0
M30
