%TF.GenerationSoftware,KiCad,Pcbnew,(6.0.9)*%
%TF.CreationDate,2022-12-05T20:21:47+01:00*%
%TF.ProjectId,projekt,70726f6a-656b-4742-9e6b-696361645f70,rev?*%
%TF.SameCoordinates,Original*%
%TF.FileFunction,Drillmap*%
%TF.FilePolarity,Positive*%
%FSLAX45Y45*%
G04 Gerber Fmt 4.5, Leading zero omitted, Abs format (unit mm)*
G04 Created by KiCad (PCBNEW (6.0.9)) date 2022-12-05 20:21:47*
%MOMM*%
%LPD*%
G01*
G04 APERTURE LIST*
%ADD10C,0.150000*%
%ADD11C,0.200000*%
%ADD12C,0.040000*%
%ADD13C,0.080000*%
%ADD14C,0.100000*%
G04 APERTURE END LIST*
D10*
X2000000Y-2000000D02*
X17000000Y-2000000D01*
X17000000Y-2000000D02*
X17000000Y-10533000D01*
X17000000Y-10533000D02*
X2000000Y-10533000D01*
X2000000Y-10533000D02*
X2000000Y-2000000D01*
D11*
D12*
X4047770Y-4897250D02*
X4087770Y-4937250D01*
X4087770Y-4897250D02*
X4047770Y-4937250D01*
X6120340Y-5271060D02*
X6160340Y-5311060D01*
X6160340Y-5271060D02*
X6120340Y-5311060D01*
X7561130Y-7002570D02*
X7601130Y-7042570D01*
X7601130Y-7002570D02*
X7561130Y-7042570D01*
X7927850Y-6882530D02*
X7967850Y-6922530D01*
X7967850Y-6882530D02*
X7927850Y-6922530D01*
X10050940Y-5601610D02*
X10090940Y-5641610D01*
X10090940Y-5601610D02*
X10050940Y-5641610D01*
X10144640Y-5326960D02*
X10184640Y-5366960D01*
X10184640Y-5326960D02*
X10144640Y-5366960D01*
X10160210Y-7210830D02*
X10200210Y-7250830D01*
X10200210Y-7210830D02*
X10160210Y-7250830D01*
X10165160Y-5923550D02*
X10205160Y-5963550D01*
X10205160Y-5923550D02*
X10165160Y-5963550D01*
X10190870Y-7088210D02*
X10230870Y-7128210D01*
X10230870Y-7088210D02*
X10190870Y-7128210D01*
X10564310Y-4386380D02*
X10604310Y-4426380D01*
X10604310Y-4386380D02*
X10564310Y-4426380D01*
X11118010Y-4557450D02*
X11158010Y-4597450D01*
X11158010Y-4557450D02*
X11118010Y-4597450D01*
X11197040Y-4035410D02*
X11237040Y-4075410D01*
X11237040Y-4035410D02*
X11197040Y-4075410D01*
X11323490Y-7953780D02*
X11363490Y-7993780D01*
X11363490Y-7953780D02*
X11323490Y-7993780D01*
X11371420Y-4204670D02*
X11411420Y-4244670D01*
X11411420Y-4204670D02*
X11371420Y-4244670D01*
X11505290Y-6448710D02*
X11545290Y-6488710D01*
X11545290Y-6448710D02*
X11505290Y-6488710D01*
X11580240Y-5917870D02*
X11620240Y-5957870D01*
X11620240Y-5917870D02*
X11580240Y-5957870D01*
X12140840Y-5565870D02*
X12180840Y-5605870D01*
X12180840Y-5565870D02*
X12140840Y-5605870D01*
X12613230Y-5687450D02*
X12653230Y-5727450D01*
X12653230Y-5687450D02*
X12613230Y-5727450D01*
D13*
X2710540Y-5535160D02*
G75*
G03*
X2710540Y-5535160I-40000J0D01*
G01*
X2710540Y-5789160D02*
G75*
G03*
X2710540Y-5789160I-40000J0D01*
G01*
X2710540Y-6043160D02*
G75*
G03*
X2710540Y-6043160I-40000J0D01*
G01*
X2710540Y-6297160D02*
G75*
G03*
X2710540Y-6297160I-40000J0D01*
G01*
X2710540Y-6551160D02*
G75*
G03*
X2710540Y-6551160I-40000J0D01*
G01*
X2710540Y-6805160D02*
G75*
G03*
X2710540Y-6805160I-40000J0D01*
G01*
X2710540Y-7059160D02*
G75*
G03*
X2710540Y-7059160I-40000J0D01*
G01*
X2969660Y-3715020D02*
G75*
G03*
X2969660Y-3715020I-40000J0D01*
G01*
X2969660Y-4477020D02*
G75*
G03*
X2969660Y-4477020I-40000J0D01*
G01*
X3223660Y-3715020D02*
G75*
G03*
X3223660Y-3715020I-40000J0D01*
G01*
X3223660Y-4477020D02*
G75*
G03*
X3223660Y-4477020I-40000J0D01*
G01*
X3472540Y-5535160D02*
G75*
G03*
X3472540Y-5535160I-40000J0D01*
G01*
X3472540Y-5789160D02*
G75*
G03*
X3472540Y-5789160I-40000J0D01*
G01*
X3472540Y-6043160D02*
G75*
G03*
X3472540Y-6043160I-40000J0D01*
G01*
X3472540Y-6297160D02*
G75*
G03*
X3472540Y-6297160I-40000J0D01*
G01*
X3472540Y-6551160D02*
G75*
G03*
X3472540Y-6551160I-40000J0D01*
G01*
X3472540Y-6805160D02*
G75*
G03*
X3472540Y-6805160I-40000J0D01*
G01*
X3472540Y-7059160D02*
G75*
G03*
X3472540Y-7059160I-40000J0D01*
G01*
X3477660Y-3715020D02*
G75*
G03*
X3477660Y-3715020I-40000J0D01*
G01*
X3477660Y-4477020D02*
G75*
G03*
X3477660Y-4477020I-40000J0D01*
G01*
X3731660Y-3715020D02*
G75*
G03*
X3731660Y-3715020I-40000J0D01*
G01*
X3731660Y-4477020D02*
G75*
G03*
X3731660Y-4477020I-40000J0D01*
G01*
X3985660Y-3715020D02*
G75*
G03*
X3985660Y-3715020I-40000J0D01*
G01*
X3985660Y-4477020D02*
G75*
G03*
X3985660Y-4477020I-40000J0D01*
G01*
X4239660Y-3715020D02*
G75*
G03*
X4239660Y-3715020I-40000J0D01*
G01*
X4239660Y-4477020D02*
G75*
G03*
X4239660Y-4477020I-40000J0D01*
G01*
X4493660Y-3715020D02*
G75*
G03*
X4493660Y-3715020I-40000J0D01*
G01*
X4493660Y-4477020D02*
G75*
G03*
X4493660Y-4477020I-40000J0D01*
G01*
X4588140Y-5541780D02*
G75*
G03*
X4588140Y-5541780I-40000J0D01*
G01*
X4588140Y-5795780D02*
G75*
G03*
X4588140Y-5795780I-40000J0D01*
G01*
X4588140Y-6049780D02*
G75*
G03*
X4588140Y-6049780I-40000J0D01*
G01*
X4588140Y-6303780D02*
G75*
G03*
X4588140Y-6303780I-40000J0D01*
G01*
X4588140Y-6557780D02*
G75*
G03*
X4588140Y-6557780I-40000J0D01*
G01*
X4588140Y-6811780D02*
G75*
G03*
X4588140Y-6811780I-40000J0D01*
G01*
X4588140Y-7065780D02*
G75*
G03*
X4588140Y-7065780I-40000J0D01*
G01*
X4747660Y-3715020D02*
G75*
G03*
X4747660Y-3715020I-40000J0D01*
G01*
X4747660Y-4477020D02*
G75*
G03*
X4747660Y-4477020I-40000J0D01*
G01*
X5350140Y-5541780D02*
G75*
G03*
X5350140Y-5541780I-40000J0D01*
G01*
X5350140Y-5795780D02*
G75*
G03*
X5350140Y-5795780I-40000J0D01*
G01*
X5350140Y-6049780D02*
G75*
G03*
X5350140Y-6049780I-40000J0D01*
G01*
X5350140Y-6303780D02*
G75*
G03*
X5350140Y-6303780I-40000J0D01*
G01*
X5350140Y-6557780D02*
G75*
G03*
X5350140Y-6557780I-40000J0D01*
G01*
X5350140Y-6811780D02*
G75*
G03*
X5350140Y-6811780I-40000J0D01*
G01*
X5350140Y-7065780D02*
G75*
G03*
X5350140Y-7065780I-40000J0D01*
G01*
X6468180Y-6548120D02*
G75*
G03*
X6468180Y-6548120I-40000J0D01*
G01*
X6668180Y-6548120D02*
G75*
G03*
X6668180Y-6548120I-40000J0D01*
G01*
X6868180Y-6548120D02*
G75*
G03*
X6868180Y-6548120I-40000J0D01*
G01*
X7068180Y-6548120D02*
G75*
G03*
X7068180Y-6548120I-40000J0D01*
G01*
X7469500Y-3997960D02*
G75*
G03*
X7469500Y-3997960I-40000J0D01*
G01*
X7469500Y-4759960D02*
G75*
G03*
X7469500Y-4759960I-40000J0D01*
G01*
X7723500Y-3997960D02*
G75*
G03*
X7723500Y-3997960I-40000J0D01*
G01*
X7723500Y-4759960D02*
G75*
G03*
X7723500Y-4759960I-40000J0D01*
G01*
X7977500Y-3997960D02*
G75*
G03*
X7977500Y-3997960I-40000J0D01*
G01*
X7977500Y-4759960D02*
G75*
G03*
X7977500Y-4759960I-40000J0D01*
G01*
X8231500Y-3997960D02*
G75*
G03*
X8231500Y-3997960I-40000J0D01*
G01*
X8231500Y-4759960D02*
G75*
G03*
X8231500Y-4759960I-40000J0D01*
G01*
X8485500Y-3997960D02*
G75*
G03*
X8485500Y-3997960I-40000J0D01*
G01*
X8485500Y-4759960D02*
G75*
G03*
X8485500Y-4759960I-40000J0D01*
G01*
X8739500Y-3997960D02*
G75*
G03*
X8739500Y-3997960I-40000J0D01*
G01*
X8739500Y-4759960D02*
G75*
G03*
X8739500Y-4759960I-40000J0D01*
G01*
X8993500Y-3997960D02*
G75*
G03*
X8993500Y-3997960I-40000J0D01*
G01*
X8993500Y-4759960D02*
G75*
G03*
X8993500Y-4759960I-40000J0D01*
G01*
X9247500Y-3997960D02*
G75*
G03*
X9247500Y-3997960I-40000J0D01*
G01*
X9247500Y-4759960D02*
G75*
G03*
X9247500Y-4759960I-40000J0D01*
G01*
X9501500Y-3997960D02*
G75*
G03*
X9501500Y-3997960I-40000J0D01*
G01*
X9501500Y-4759960D02*
G75*
G03*
X9501500Y-4759960I-40000J0D01*
G01*
X14644000Y-5360900D02*
G75*
G03*
X14644000Y-5360900I-40000J0D01*
G01*
X14644000Y-5614900D02*
G75*
G03*
X14644000Y-5614900I-40000J0D01*
G01*
X14644000Y-5868900D02*
G75*
G03*
X14644000Y-5868900I-40000J0D01*
G01*
X14644000Y-6122900D02*
G75*
G03*
X14644000Y-6122900I-40000J0D01*
G01*
X14644000Y-6376900D02*
G75*
G03*
X14644000Y-6376900I-40000J0D01*
G01*
X14644000Y-6630900D02*
G75*
G03*
X14644000Y-6630900I-40000J0D01*
G01*
X14644000Y-6884900D02*
G75*
G03*
X14644000Y-6884900I-40000J0D01*
G01*
X14644000Y-7138900D02*
G75*
G03*
X14644000Y-7138900I-40000J0D01*
G01*
X14648540Y-7882660D02*
G75*
G03*
X14648540Y-7882660I-40000J0D01*
G01*
X14648540Y-8136660D02*
G75*
G03*
X14648540Y-8136660I-40000J0D01*
G01*
X14648540Y-8390660D02*
G75*
G03*
X14648540Y-8390660I-40000J0D01*
G01*
X14648540Y-8644660D02*
G75*
G03*
X14648540Y-8644660I-40000J0D01*
G01*
X14648540Y-8898660D02*
G75*
G03*
X14648540Y-8898660I-40000J0D01*
G01*
X14648540Y-9152660D02*
G75*
G03*
X14648540Y-9152660I-40000J0D01*
G01*
X14648540Y-9406660D02*
G75*
G03*
X14648540Y-9406660I-40000J0D01*
G01*
X14648540Y-9660660D02*
G75*
G03*
X14648540Y-9660660I-40000J0D01*
G01*
X15406000Y-5360900D02*
G75*
G03*
X15406000Y-5360900I-40000J0D01*
G01*
X15406000Y-5614900D02*
G75*
G03*
X15406000Y-5614900I-40000J0D01*
G01*
X15406000Y-5868900D02*
G75*
G03*
X15406000Y-5868900I-40000J0D01*
G01*
X15406000Y-6122900D02*
G75*
G03*
X15406000Y-6122900I-40000J0D01*
G01*
X15406000Y-6376900D02*
G75*
G03*
X15406000Y-6376900I-40000J0D01*
G01*
X15406000Y-6630900D02*
G75*
G03*
X15406000Y-6630900I-40000J0D01*
G01*
X15406000Y-6884900D02*
G75*
G03*
X15406000Y-6884900I-40000J0D01*
G01*
X15406000Y-7138900D02*
G75*
G03*
X15406000Y-7138900I-40000J0D01*
G01*
X15410540Y-7882660D02*
G75*
G03*
X15410540Y-7882660I-40000J0D01*
G01*
X15410540Y-8136660D02*
G75*
G03*
X15410540Y-8136660I-40000J0D01*
G01*
X15410540Y-8390660D02*
G75*
G03*
X15410540Y-8390660I-40000J0D01*
G01*
X15410540Y-8644660D02*
G75*
G03*
X15410540Y-8644660I-40000J0D01*
G01*
X15410540Y-8898660D02*
G75*
G03*
X15410540Y-8898660I-40000J0D01*
G01*
X15410540Y-9152660D02*
G75*
G03*
X15410540Y-9152660I-40000J0D01*
G01*
X15410540Y-9406660D02*
G75*
G03*
X15410540Y-9406660I-40000J0D01*
G01*
X15410540Y-9660660D02*
G75*
G03*
X15410540Y-9660660I-40000J0D01*
G01*
D14*
X2824480Y-7927860D02*
X2824480Y-8027860D01*
X2774480Y-7977860D02*
X2874480Y-7977860D01*
X2824480Y-8227860D02*
X2824480Y-8327860D01*
X2774480Y-8277860D02*
X2874480Y-8277860D01*
X3124480Y-7927860D02*
X3124480Y-8027860D01*
X3074480Y-7977860D02*
X3174480Y-7977860D01*
X3124480Y-8227860D02*
X3124480Y-8327860D01*
X3074480Y-8277860D02*
X3174480Y-8277860D01*
X3424480Y-7927860D02*
X3424480Y-8027860D01*
X3374480Y-7977860D02*
X3474480Y-7977860D01*
X3424480Y-8227860D02*
X3424480Y-8327860D01*
X3374480Y-8277860D02*
X3474480Y-8277860D01*
X3430000Y-2576900D02*
X3430000Y-2676900D01*
X3380000Y-2626900D02*
X3480000Y-2626900D01*
X3430000Y-2830900D02*
X3430000Y-2930900D01*
X3380000Y-2880900D02*
X3480000Y-2880900D01*
X3684000Y-2576900D02*
X3684000Y-2676900D01*
X3634000Y-2626900D02*
X3734000Y-2626900D01*
X3684000Y-2830900D02*
X3684000Y-2930900D01*
X3634000Y-2880900D02*
X3734000Y-2880900D01*
X3724480Y-7927860D02*
X3724480Y-8027860D01*
X3674480Y-7977860D02*
X3774480Y-7977860D01*
X3724480Y-8227860D02*
X3724480Y-8327860D01*
X3674480Y-8277860D02*
X3774480Y-8277860D01*
X3938000Y-2576900D02*
X3938000Y-2676900D01*
X3888000Y-2626900D02*
X3988000Y-2626900D01*
X3938000Y-2830900D02*
X3938000Y-2930900D01*
X3888000Y-2880900D02*
X3988000Y-2880900D01*
X4024480Y-7927860D02*
X4024480Y-8027860D01*
X3974480Y-7977860D02*
X4074480Y-7977860D01*
X4024480Y-8227860D02*
X4024480Y-8327860D01*
X3974480Y-8277860D02*
X4074480Y-8277860D01*
X4192000Y-2576900D02*
X4192000Y-2676900D01*
X4142000Y-2626900D02*
X4242000Y-2626900D01*
X4192000Y-2830900D02*
X4192000Y-2930900D01*
X4142000Y-2880900D02*
X4242000Y-2880900D01*
X4324480Y-7927860D02*
X4324480Y-8027860D01*
X4274480Y-7977860D02*
X4374480Y-7977860D01*
X4324480Y-8227860D02*
X4324480Y-8327860D01*
X4274480Y-8277860D02*
X4374480Y-8277860D01*
X4624480Y-7927860D02*
X4624480Y-8027860D01*
X4574480Y-7977860D02*
X4674480Y-7977860D01*
X4624480Y-8227860D02*
X4624480Y-8327860D01*
X4574480Y-8277860D02*
X4674480Y-8277860D01*
X5871500Y-3184400D02*
X5871500Y-3284400D01*
X5821500Y-3234400D02*
X5921500Y-3234400D01*
X5871500Y-3438400D02*
X5871500Y-3538400D01*
X5821500Y-3488400D02*
X5921500Y-3488400D01*
X5871600Y-8265000D02*
X5871600Y-8365000D01*
X5821600Y-8315000D02*
X5921600Y-8315000D01*
X5871600Y-8519000D02*
X5871600Y-8619000D01*
X5821600Y-8569000D02*
X5921600Y-8569000D01*
X6125500Y-3184400D02*
X6125500Y-3284400D01*
X6075500Y-3234400D02*
X6175500Y-3234400D01*
X6125500Y-3438400D02*
X6125500Y-3538400D01*
X6075500Y-3488400D02*
X6175500Y-3488400D01*
X6125600Y-8265000D02*
X6125600Y-8365000D01*
X6075600Y-8315000D02*
X6175600Y-8315000D01*
X6125600Y-8519000D02*
X6125600Y-8619000D01*
X6075600Y-8569000D02*
X6175600Y-8569000D01*
X6379500Y-3184400D02*
X6379500Y-3284400D01*
X6329500Y-3234400D02*
X6429500Y-3234400D01*
X6379500Y-3438400D02*
X6379500Y-3538400D01*
X6329500Y-3488400D02*
X6429500Y-3488400D01*
X6379600Y-8265000D02*
X6379600Y-8365000D01*
X6329600Y-8315000D02*
X6429600Y-8315000D01*
X6379600Y-8519000D02*
X6379600Y-8619000D01*
X6329600Y-8569000D02*
X6429600Y-8569000D01*
X6633500Y-3184400D02*
X6633500Y-3284400D01*
X6583500Y-3234400D02*
X6683500Y-3234400D01*
X6633500Y-3438400D02*
X6633500Y-3538400D01*
X6583500Y-3488400D02*
X6683500Y-3488400D01*
X6633600Y-8265000D02*
X6633600Y-8365000D01*
X6583600Y-8315000D02*
X6683600Y-8315000D01*
X6633600Y-8519000D02*
X6633600Y-8619000D01*
X6583600Y-8569000D02*
X6683600Y-8569000D01*
X6887500Y-3184400D02*
X6887500Y-3284400D01*
X6837500Y-3234400D02*
X6937500Y-3234400D01*
X6887500Y-3438400D02*
X6887500Y-3538400D01*
X6837500Y-3488400D02*
X6937500Y-3488400D01*
X6887600Y-8265000D02*
X6887600Y-8365000D01*
X6837600Y-8315000D02*
X6937600Y-8315000D01*
X6887600Y-8519000D02*
X6887600Y-8619000D01*
X6837600Y-8569000D02*
X6937600Y-8569000D01*
X7141500Y-3184400D02*
X7141500Y-3284400D01*
X7091500Y-3234400D02*
X7191500Y-3234400D01*
X7141500Y-3438400D02*
X7141500Y-3538400D01*
X7091500Y-3488400D02*
X7191500Y-3488400D01*
X7141600Y-8265000D02*
X7141600Y-8365000D01*
X7091600Y-8315000D02*
X7191600Y-8315000D01*
X7141600Y-8519000D02*
X7141600Y-8619000D01*
X7091600Y-8569000D02*
X7191600Y-8569000D01*
X7395500Y-3184400D02*
X7395500Y-3284400D01*
X7345500Y-3234400D02*
X7445500Y-3234400D01*
X7395500Y-3438400D02*
X7395500Y-3538400D01*
X7345500Y-3488400D02*
X7445500Y-3488400D01*
X7395600Y-8265000D02*
X7395600Y-8365000D01*
X7345600Y-8315000D02*
X7445600Y-8315000D01*
X7395600Y-8519000D02*
X7395600Y-8619000D01*
X7345600Y-8569000D02*
X7445600Y-8569000D01*
X7649500Y-3184400D02*
X7649500Y-3284400D01*
X7599500Y-3234400D02*
X7699500Y-3234400D01*
X7649500Y-3438400D02*
X7649500Y-3538400D01*
X7599500Y-3488400D02*
X7699500Y-3488400D01*
X7649600Y-8265000D02*
X7649600Y-8365000D01*
X7599600Y-8315000D02*
X7699600Y-8315000D01*
X7649600Y-8519000D02*
X7649600Y-8619000D01*
X7599600Y-8569000D02*
X7699600Y-8569000D01*
X7903500Y-3184400D02*
X7903500Y-3284400D01*
X7853500Y-3234400D02*
X7953500Y-3234400D01*
X7903500Y-3438400D02*
X7903500Y-3538400D01*
X7853500Y-3488400D02*
X7953500Y-3488400D01*
X7903600Y-8265000D02*
X7903600Y-8365000D01*
X7853600Y-8315000D02*
X7953600Y-8315000D01*
X7903600Y-8519000D02*
X7903600Y-8619000D01*
X7853600Y-8569000D02*
X7953600Y-8569000D01*
X8157500Y-3184400D02*
X8157500Y-3284400D01*
X8107500Y-3234400D02*
X8207500Y-3234400D01*
X8157500Y-3438400D02*
X8157500Y-3538400D01*
X8107500Y-3488400D02*
X8207500Y-3488400D01*
X8157600Y-8265000D02*
X8157600Y-8365000D01*
X8107600Y-8315000D02*
X8207600Y-8315000D01*
X8157600Y-8519000D02*
X8157600Y-8619000D01*
X8107600Y-8569000D02*
X8207600Y-8569000D01*
X8384000Y-5363400D02*
X8384000Y-5463400D01*
X8334000Y-5413400D02*
X8434000Y-5413400D01*
X8384000Y-5663400D02*
X8384000Y-5763400D01*
X8334000Y-5713400D02*
X8434000Y-5713400D01*
X8384000Y-5963400D02*
X8384000Y-6063400D01*
X8334000Y-6013400D02*
X8434000Y-6013400D01*
X8384000Y-6263400D02*
X8384000Y-6363400D01*
X8334000Y-6313400D02*
X8434000Y-6313400D01*
X8384000Y-6563400D02*
X8384000Y-6663400D01*
X8334000Y-6613400D02*
X8434000Y-6613400D01*
X8384000Y-6863400D02*
X8384000Y-6963400D01*
X8334000Y-6913400D02*
X8434000Y-6913400D01*
X8384000Y-7163400D02*
X8384000Y-7263400D01*
X8334000Y-7213400D02*
X8434000Y-7213400D01*
X8411500Y-3184400D02*
X8411500Y-3284400D01*
X8361500Y-3234400D02*
X8461500Y-3234400D01*
X8411500Y-3438400D02*
X8411500Y-3538400D01*
X8361500Y-3488400D02*
X8461500Y-3488400D01*
X8411600Y-8265000D02*
X8411600Y-8365000D01*
X8361600Y-8315000D02*
X8461600Y-8315000D01*
X8411600Y-8519000D02*
X8411600Y-8619000D01*
X8361600Y-8569000D02*
X8461600Y-8569000D01*
X8665500Y-3184400D02*
X8665500Y-3284400D01*
X8615500Y-3234400D02*
X8715500Y-3234400D01*
X8665500Y-3438400D02*
X8665500Y-3538400D01*
X8615500Y-3488400D02*
X8715500Y-3488400D01*
X8665600Y-8265000D02*
X8665600Y-8365000D01*
X8615600Y-8315000D02*
X8715600Y-8315000D01*
X8665600Y-8519000D02*
X8665600Y-8619000D01*
X8615600Y-8569000D02*
X8715600Y-8569000D01*
X8684000Y-5363400D02*
X8684000Y-5463400D01*
X8634000Y-5413400D02*
X8734000Y-5413400D01*
X8684000Y-5663400D02*
X8684000Y-5763400D01*
X8634000Y-5713400D02*
X8734000Y-5713400D01*
X8684000Y-5963400D02*
X8684000Y-6063400D01*
X8634000Y-6013400D02*
X8734000Y-6013400D01*
X8684000Y-6263400D02*
X8684000Y-6363400D01*
X8634000Y-6313400D02*
X8734000Y-6313400D01*
X8684000Y-6563400D02*
X8684000Y-6663400D01*
X8634000Y-6613400D02*
X8734000Y-6613400D01*
X8684000Y-6863400D02*
X8684000Y-6963400D01*
X8634000Y-6913400D02*
X8734000Y-6913400D01*
X8684000Y-7163400D02*
X8684000Y-7263400D01*
X8634000Y-7213400D02*
X8734000Y-7213400D01*
X8919500Y-3184400D02*
X8919500Y-3284400D01*
X8869500Y-3234400D02*
X8969500Y-3234400D01*
X8919500Y-3438400D02*
X8919500Y-3538400D01*
X8869500Y-3488400D02*
X8969500Y-3488400D01*
X8919600Y-8265000D02*
X8919600Y-8365000D01*
X8869600Y-8315000D02*
X8969600Y-8315000D01*
X8919600Y-8519000D02*
X8919600Y-8619000D01*
X8869600Y-8569000D02*
X8969600Y-8569000D01*
X9173500Y-3184400D02*
X9173500Y-3284400D01*
X9123500Y-3234400D02*
X9223500Y-3234400D01*
X9173500Y-3438400D02*
X9173500Y-3538400D01*
X9123500Y-3488400D02*
X9223500Y-3488400D01*
X9173600Y-8265000D02*
X9173600Y-8365000D01*
X9123600Y-8315000D02*
X9223600Y-8315000D01*
X9173600Y-8519000D02*
X9173600Y-8619000D01*
X9123600Y-8569000D02*
X9223600Y-8569000D01*
X9427500Y-3184400D02*
X9427500Y-3284400D01*
X9377500Y-3234400D02*
X9477500Y-3234400D01*
X9427500Y-3438400D02*
X9427500Y-3538400D01*
X9377500Y-3488400D02*
X9477500Y-3488400D01*
X9427600Y-8265000D02*
X9427600Y-8365000D01*
X9377600Y-8315000D02*
X9477600Y-8315000D01*
X9427600Y-8519000D02*
X9427600Y-8619000D01*
X9377600Y-8569000D02*
X9477600Y-8569000D01*
X9681500Y-3184400D02*
X9681500Y-3284400D01*
X9631500Y-3234400D02*
X9731500Y-3234400D01*
X9681500Y-3438400D02*
X9681500Y-3538400D01*
X9631500Y-3488400D02*
X9731500Y-3488400D01*
X9681600Y-8265000D02*
X9681600Y-8365000D01*
X9631600Y-8315000D02*
X9731600Y-8315000D01*
X9681600Y-8519000D02*
X9681600Y-8619000D01*
X9631600Y-8569000D02*
X9731600Y-8569000D01*
X9935500Y-3184400D02*
X9935500Y-3284400D01*
X9885500Y-3234400D02*
X9985500Y-3234400D01*
X9935500Y-3438400D02*
X9935500Y-3538400D01*
X9885500Y-3488400D02*
X9985500Y-3488400D01*
X9935600Y-8265000D02*
X9935600Y-8365000D01*
X9885600Y-8315000D02*
X9985600Y-8315000D01*
X9935600Y-8519000D02*
X9935600Y-8619000D01*
X9885600Y-8569000D02*
X9985600Y-8569000D01*
X10189500Y-3184400D02*
X10189500Y-3284400D01*
X10139500Y-3234400D02*
X10239500Y-3234400D01*
X10189500Y-3438400D02*
X10189500Y-3538400D01*
X10139500Y-3488400D02*
X10239500Y-3488400D01*
X10189600Y-8265000D02*
X10189600Y-8365000D01*
X10139600Y-8315000D02*
X10239600Y-8315000D01*
X10189600Y-8519000D02*
X10189600Y-8619000D01*
X10139600Y-8569000D02*
X10239600Y-8569000D01*
X10443500Y-3184400D02*
X10443500Y-3284400D01*
X10393500Y-3234400D02*
X10493500Y-3234400D01*
X10443500Y-3438400D02*
X10443500Y-3538400D01*
X10393500Y-3488400D02*
X10493500Y-3488400D01*
X10443600Y-8265000D02*
X10443600Y-8365000D01*
X10393600Y-8315000D02*
X10493600Y-8315000D01*
X10443600Y-8519000D02*
X10443600Y-8619000D01*
X10393600Y-8569000D02*
X10493600Y-8569000D01*
X10697500Y-3184400D02*
X10697500Y-3284400D01*
X10647500Y-3234400D02*
X10747500Y-3234400D01*
X10697500Y-3438400D02*
X10697500Y-3538400D01*
X10647500Y-3488400D02*
X10747500Y-3488400D01*
X10697600Y-8265000D02*
X10697600Y-8365000D01*
X10647600Y-8315000D02*
X10747600Y-8315000D01*
X10697600Y-8519000D02*
X10697600Y-8619000D01*
X10647600Y-8569000D02*
X10747600Y-8569000D01*
X10951500Y-3184400D02*
X10951500Y-3284400D01*
X10901500Y-3234400D02*
X11001500Y-3234400D01*
X10951500Y-3438400D02*
X10951500Y-3538400D01*
X10901500Y-3488400D02*
X11001500Y-3488400D01*
X10951600Y-8265000D02*
X10951600Y-8365000D01*
X10901600Y-8315000D02*
X11001600Y-8315000D01*
X10951600Y-8519000D02*
X10951600Y-8619000D01*
X10901600Y-8569000D02*
X11001600Y-8569000D01*
X10988000Y-4803400D02*
X10988000Y-4903400D01*
X10938000Y-4853400D02*
X11038000Y-4853400D01*
X10988000Y-5103400D02*
X10988000Y-5203400D01*
X10938000Y-5153400D02*
X11038000Y-5153400D01*
X10988000Y-5403400D02*
X10988000Y-5503400D01*
X10938000Y-5453400D02*
X11038000Y-5453400D01*
X10988000Y-5703400D02*
X10988000Y-5803400D01*
X10938000Y-5753400D02*
X11038000Y-5753400D01*
X10988000Y-6003400D02*
X10988000Y-6103400D01*
X10938000Y-6053400D02*
X11038000Y-6053400D01*
X10988000Y-6303400D02*
X10988000Y-6403400D01*
X10938000Y-6353400D02*
X11038000Y-6353400D01*
X10988000Y-6603400D02*
X10988000Y-6703400D01*
X10938000Y-6653400D02*
X11038000Y-6653400D01*
X10988000Y-6903400D02*
X10988000Y-7003400D01*
X10938000Y-6953400D02*
X11038000Y-6953400D01*
X10988000Y-7203400D02*
X10988000Y-7303400D01*
X10938000Y-7253400D02*
X11038000Y-7253400D01*
X11205500Y-3184400D02*
X11205500Y-3284400D01*
X11155500Y-3234400D02*
X11255500Y-3234400D01*
X11205500Y-3438400D02*
X11205500Y-3538400D01*
X11155500Y-3488400D02*
X11255500Y-3488400D01*
X11205600Y-8265000D02*
X11205600Y-8365000D01*
X11155600Y-8315000D02*
X11255600Y-8315000D01*
X11205600Y-8519000D02*
X11205600Y-8619000D01*
X11155600Y-8569000D02*
X11255600Y-8569000D01*
X11288000Y-4803400D02*
X11288000Y-4903400D01*
X11238000Y-4853400D02*
X11338000Y-4853400D01*
X11288000Y-5103400D02*
X11288000Y-5203400D01*
X11238000Y-5153400D02*
X11338000Y-5153400D01*
X11288000Y-5403400D02*
X11288000Y-5503400D01*
X11238000Y-5453400D02*
X11338000Y-5453400D01*
X11288000Y-5703400D02*
X11288000Y-5803400D01*
X11238000Y-5753400D02*
X11338000Y-5753400D01*
X11288000Y-6003400D02*
X11288000Y-6103400D01*
X11238000Y-6053400D02*
X11338000Y-6053400D01*
X11288000Y-6303400D02*
X11288000Y-6403400D01*
X11238000Y-6353400D02*
X11338000Y-6353400D01*
X11288000Y-6603400D02*
X11288000Y-6703400D01*
X11238000Y-6653400D02*
X11338000Y-6653400D01*
X11288000Y-6903400D02*
X11288000Y-7003400D01*
X11238000Y-6953400D02*
X11338000Y-6953400D01*
X11288000Y-7203400D02*
X11288000Y-7303400D01*
X11238000Y-7253400D02*
X11338000Y-7253400D01*
X11459500Y-3184400D02*
X11459500Y-3284400D01*
X11409500Y-3234400D02*
X11509500Y-3234400D01*
X11459500Y-3438400D02*
X11459500Y-3538400D01*
X11409500Y-3488400D02*
X11509500Y-3488400D01*
X11459600Y-8265000D02*
X11459600Y-8365000D01*
X11409600Y-8315000D02*
X11509600Y-8315000D01*
X11459600Y-8519000D02*
X11459600Y-8619000D01*
X11409600Y-8569000D02*
X11509600Y-8569000D01*
X11713500Y-3184400D02*
X11713500Y-3284400D01*
X11663500Y-3234400D02*
X11763500Y-3234400D01*
X11713500Y-3438400D02*
X11713500Y-3538400D01*
X11663500Y-3488400D02*
X11763500Y-3488400D01*
X11713600Y-8265000D02*
X11713600Y-8365000D01*
X11663600Y-8315000D02*
X11763600Y-8315000D01*
X11713600Y-8519000D02*
X11713600Y-8619000D01*
X11663600Y-8569000D02*
X11763600Y-8569000D01*
X11967500Y-3184400D02*
X11967500Y-3284400D01*
X11917500Y-3234400D02*
X12017500Y-3234400D01*
X11967500Y-3438400D02*
X11967500Y-3538400D01*
X11917500Y-3488400D02*
X12017500Y-3488400D01*
X11967600Y-8265000D02*
X11967600Y-8365000D01*
X11917600Y-8315000D02*
X12017600Y-8315000D01*
X11967600Y-8519000D02*
X11967600Y-8619000D01*
X11917600Y-8569000D02*
X12017600Y-8569000D01*
X12221500Y-3184400D02*
X12221500Y-3284400D01*
X12171500Y-3234400D02*
X12271500Y-3234400D01*
X12221500Y-3438400D02*
X12221500Y-3538400D01*
X12171500Y-3488400D02*
X12271500Y-3488400D01*
X12221600Y-8265000D02*
X12221600Y-8365000D01*
X12171600Y-8315000D02*
X12271600Y-8315000D01*
X12221600Y-8519000D02*
X12221600Y-8619000D01*
X12171600Y-8569000D02*
X12271600Y-8569000D01*
X12475500Y-3184400D02*
X12475500Y-3284400D01*
X12425500Y-3234400D02*
X12525500Y-3234400D01*
X12475500Y-3438400D02*
X12475500Y-3538400D01*
X12425500Y-3488400D02*
X12525500Y-3488400D01*
X12475600Y-8265000D02*
X12475600Y-8365000D01*
X12425600Y-8315000D02*
X12525600Y-8315000D01*
X12475600Y-8519000D02*
X12475600Y-8619000D01*
X12425600Y-8569000D02*
X12525600Y-8569000D01*
X12729500Y-3184400D02*
X12729500Y-3284400D01*
X12679500Y-3234400D02*
X12779500Y-3234400D01*
X12729500Y-3438400D02*
X12729500Y-3538400D01*
X12679500Y-3488400D02*
X12779500Y-3488400D01*
X12729600Y-8265000D02*
X12729600Y-8365000D01*
X12679600Y-8315000D02*
X12779600Y-8315000D01*
X12729600Y-8519000D02*
X12729600Y-8619000D01*
X12679600Y-8569000D02*
X12779600Y-8569000D01*
X12983500Y-3184400D02*
X12983500Y-3284400D01*
X12933500Y-3234400D02*
X13033500Y-3234400D01*
X12983500Y-3438400D02*
X12983500Y-3538400D01*
X12933500Y-3488400D02*
X13033500Y-3488400D01*
X12983600Y-8265000D02*
X12983600Y-8365000D01*
X12933600Y-8315000D02*
X13033600Y-8315000D01*
X12983600Y-8519000D02*
X12983600Y-8619000D01*
X12933600Y-8569000D02*
X13033600Y-8569000D01*
X13237500Y-3184400D02*
X13237500Y-3284400D01*
X13187500Y-3234400D02*
X13287500Y-3234400D01*
X13237500Y-3438400D02*
X13237500Y-3538400D01*
X13187500Y-3488400D02*
X13287500Y-3488400D01*
X13237600Y-8265000D02*
X13237600Y-8365000D01*
X13187600Y-8315000D02*
X13287600Y-8315000D01*
X13237600Y-8519000D02*
X13237600Y-8619000D01*
X13187600Y-8569000D02*
X13287600Y-8569000D01*
X13491500Y-3184400D02*
X13491500Y-3284400D01*
X13441500Y-3234400D02*
X13541500Y-3234400D01*
X13491500Y-3438400D02*
X13491500Y-3538400D01*
X13441500Y-3488400D02*
X13541500Y-3488400D01*
X13491600Y-8265000D02*
X13491600Y-8365000D01*
X13441600Y-8315000D02*
X13541600Y-8315000D01*
X13491600Y-8519000D02*
X13491600Y-8619000D01*
X13441600Y-8569000D02*
X13541600Y-8569000D01*
X13745500Y-3184400D02*
X13745500Y-3284400D01*
X13695500Y-3234400D02*
X13795500Y-3234400D01*
X13745500Y-3438400D02*
X13745500Y-3538400D01*
X13695500Y-3488400D02*
X13795500Y-3488400D01*
X13745600Y-8265000D02*
X13745600Y-8365000D01*
X13695600Y-8315000D02*
X13795600Y-8315000D01*
X13745600Y-8519000D02*
X13745600Y-8619000D01*
X13695600Y-8569000D02*
X13795600Y-8569000D01*
X15984000Y-7014600D02*
X15984000Y-7114600D01*
X15934000Y-7064600D02*
X16034000Y-7064600D01*
X15984000Y-7314600D02*
X15984000Y-7414600D01*
X15934000Y-7364600D02*
X16034000Y-7364600D01*
X15984000Y-7614600D02*
X15984000Y-7714600D01*
X15934000Y-7664600D02*
X16034000Y-7664600D01*
X15984000Y-7914600D02*
X15984000Y-8014600D01*
X15934000Y-7964600D02*
X16034000Y-7964600D01*
X15984000Y-8214600D02*
X15984000Y-8314600D01*
X15934000Y-8264600D02*
X16034000Y-8264600D01*
X15984000Y-8514600D02*
X15984000Y-8614600D01*
X15934000Y-8564600D02*
X16034000Y-8564600D01*
X15984000Y-8814600D02*
X15984000Y-8914600D01*
X15934000Y-8864600D02*
X16034000Y-8864600D01*
X16284000Y-7014600D02*
X16284000Y-7114600D01*
X16234000Y-7064600D02*
X16334000Y-7064600D01*
X16284000Y-7314600D02*
X16284000Y-7414600D01*
X16234000Y-7364600D02*
X16334000Y-7364600D01*
X16284000Y-7614600D02*
X16284000Y-7714600D01*
X16234000Y-7664600D02*
X16334000Y-7664600D01*
X16284000Y-7914600D02*
X16284000Y-8014600D01*
X16234000Y-7964600D02*
X16334000Y-7964600D01*
X16284000Y-8214600D02*
X16284000Y-8314600D01*
X16234000Y-8264600D02*
X16334000Y-8264600D01*
X16284000Y-8514600D02*
X16284000Y-8614600D01*
X16234000Y-8564600D02*
X16334000Y-8564600D01*
X16284000Y-8814600D02*
X16284000Y-8914600D01*
X16234000Y-8864600D02*
X16334000Y-8864600D01*
D11*
X2250119Y-10850976D02*
X2250119Y-10650976D01*
X2297738Y-10650976D01*
X2326310Y-10660500D01*
X2345357Y-10679548D01*
X2354881Y-10698595D01*
X2364405Y-10736690D01*
X2364405Y-10765262D01*
X2354881Y-10803357D01*
X2345357Y-10822405D01*
X2326310Y-10841452D01*
X2297738Y-10850976D01*
X2250119Y-10850976D01*
X2450119Y-10850976D02*
X2450119Y-10717643D01*
X2450119Y-10755738D02*
X2459643Y-10736690D01*
X2469167Y-10727167D01*
X2488214Y-10717643D01*
X2507262Y-10717643D01*
X2573929Y-10850976D02*
X2573929Y-10717643D01*
X2573929Y-10650976D02*
X2564405Y-10660500D01*
X2573929Y-10670024D01*
X2583452Y-10660500D01*
X2573929Y-10650976D01*
X2573929Y-10670024D01*
X2697738Y-10850976D02*
X2678690Y-10841452D01*
X2669167Y-10822405D01*
X2669167Y-10650976D01*
X2802500Y-10850976D02*
X2783452Y-10841452D01*
X2773929Y-10822405D01*
X2773929Y-10650976D01*
X3031071Y-10850976D02*
X3031071Y-10650976D01*
X3097738Y-10793833D01*
X3164405Y-10650976D01*
X3164405Y-10850976D01*
X3345357Y-10850976D02*
X3345357Y-10746214D01*
X3335833Y-10727167D01*
X3316786Y-10717643D01*
X3278690Y-10717643D01*
X3259643Y-10727167D01*
X3345357Y-10841452D02*
X3326309Y-10850976D01*
X3278690Y-10850976D01*
X3259643Y-10841452D01*
X3250119Y-10822405D01*
X3250119Y-10803357D01*
X3259643Y-10784310D01*
X3278690Y-10774786D01*
X3326309Y-10774786D01*
X3345357Y-10765262D01*
X3440595Y-10717643D02*
X3440595Y-10917643D01*
X3440595Y-10727167D02*
X3459643Y-10717643D01*
X3497738Y-10717643D01*
X3516786Y-10727167D01*
X3526309Y-10736690D01*
X3535833Y-10755738D01*
X3535833Y-10812881D01*
X3526309Y-10831929D01*
X3516786Y-10841452D01*
X3497738Y-10850976D01*
X3459643Y-10850976D01*
X3440595Y-10841452D01*
X3621548Y-10831929D02*
X3631071Y-10841452D01*
X3621548Y-10850976D01*
X3612024Y-10841452D01*
X3621548Y-10831929D01*
X3621548Y-10850976D01*
X3621548Y-10727167D02*
X3631071Y-10736690D01*
X3621548Y-10746214D01*
X3612024Y-10736690D01*
X3621548Y-10727167D01*
X3621548Y-10746214D01*
D12*
X1952500Y-11160500D02*
X1992500Y-11200500D01*
X1992500Y-11160500D02*
X1952500Y-11200500D01*
D11*
X2288214Y-11070976D02*
X2307262Y-11070976D01*
X2326310Y-11080500D01*
X2335833Y-11090024D01*
X2345357Y-11109071D01*
X2354881Y-11147167D01*
X2354881Y-11194786D01*
X2345357Y-11232881D01*
X2335833Y-11251928D01*
X2326310Y-11261452D01*
X2307262Y-11270976D01*
X2288214Y-11270976D01*
X2269167Y-11261452D01*
X2259643Y-11251928D01*
X2250119Y-11232881D01*
X2240595Y-11194786D01*
X2240595Y-11147167D01*
X2250119Y-11109071D01*
X2259643Y-11090024D01*
X2269167Y-11080500D01*
X2288214Y-11070976D01*
X2440595Y-11251928D02*
X2450119Y-11261452D01*
X2440595Y-11270976D01*
X2431071Y-11261452D01*
X2440595Y-11251928D01*
X2440595Y-11270976D01*
X2621548Y-11137643D02*
X2621548Y-11270976D01*
X2573929Y-11061452D02*
X2526310Y-11204309D01*
X2650119Y-11204309D01*
X2764405Y-11070976D02*
X2783452Y-11070976D01*
X2802500Y-11080500D01*
X2812024Y-11090024D01*
X2821548Y-11109071D01*
X2831071Y-11147167D01*
X2831071Y-11194786D01*
X2821548Y-11232881D01*
X2812024Y-11251928D01*
X2802500Y-11261452D01*
X2783452Y-11270976D01*
X2764405Y-11270976D01*
X2745357Y-11261452D01*
X2735833Y-11251928D01*
X2726310Y-11232881D01*
X2716786Y-11194786D01*
X2716786Y-11147167D01*
X2726310Y-11109071D01*
X2735833Y-11090024D01*
X2745357Y-11080500D01*
X2764405Y-11070976D01*
X2954881Y-11070976D02*
X2973928Y-11070976D01*
X2992976Y-11080500D01*
X3002500Y-11090024D01*
X3012024Y-11109071D01*
X3021548Y-11147167D01*
X3021548Y-11194786D01*
X3012024Y-11232881D01*
X3002500Y-11251928D01*
X2992976Y-11261452D01*
X2973928Y-11270976D01*
X2954881Y-11270976D01*
X2935833Y-11261452D01*
X2926309Y-11251928D01*
X2916786Y-11232881D01*
X2907262Y-11194786D01*
X2907262Y-11147167D01*
X2916786Y-11109071D01*
X2926309Y-11090024D01*
X2935833Y-11080500D01*
X2954881Y-11070976D01*
X3107262Y-11270976D02*
X3107262Y-11137643D01*
X3107262Y-11156690D02*
X3116786Y-11147167D01*
X3135833Y-11137643D01*
X3164405Y-11137643D01*
X3183452Y-11147167D01*
X3192976Y-11166214D01*
X3192976Y-11270976D01*
X3192976Y-11166214D02*
X3202500Y-11147167D01*
X3221548Y-11137643D01*
X3250119Y-11137643D01*
X3269167Y-11147167D01*
X3278690Y-11166214D01*
X3278690Y-11270976D01*
X3373928Y-11270976D02*
X3373928Y-11137643D01*
X3373928Y-11156690D02*
X3383452Y-11147167D01*
X3402500Y-11137643D01*
X3431071Y-11137643D01*
X3450119Y-11147167D01*
X3459643Y-11166214D01*
X3459643Y-11270976D01*
X3459643Y-11166214D02*
X3469167Y-11147167D01*
X3488214Y-11137643D01*
X3516786Y-11137643D01*
X3535833Y-11147167D01*
X3545357Y-11166214D01*
X3545357Y-11270976D01*
X3935833Y-11061452D02*
X3764405Y-11318595D01*
X4192976Y-11070976D02*
X4212024Y-11070976D01*
X4231071Y-11080500D01*
X4240595Y-11090024D01*
X4250119Y-11109071D01*
X4259643Y-11147167D01*
X4259643Y-11194786D01*
X4250119Y-11232881D01*
X4240595Y-11251928D01*
X4231071Y-11261452D01*
X4212024Y-11270976D01*
X4192976Y-11270976D01*
X4173928Y-11261452D01*
X4164405Y-11251928D01*
X4154881Y-11232881D01*
X4145357Y-11194786D01*
X4145357Y-11147167D01*
X4154881Y-11109071D01*
X4164405Y-11090024D01*
X4173928Y-11080500D01*
X4192976Y-11070976D01*
X4345357Y-11251928D02*
X4354881Y-11261452D01*
X4345357Y-11270976D01*
X4335833Y-11261452D01*
X4345357Y-11251928D01*
X4345357Y-11270976D01*
X4478690Y-11070976D02*
X4497738Y-11070976D01*
X4516786Y-11080500D01*
X4526310Y-11090024D01*
X4535833Y-11109071D01*
X4545357Y-11147167D01*
X4545357Y-11194786D01*
X4535833Y-11232881D01*
X4526310Y-11251928D01*
X4516786Y-11261452D01*
X4497738Y-11270976D01*
X4478690Y-11270976D01*
X4459643Y-11261452D01*
X4450119Y-11251928D01*
X4440595Y-11232881D01*
X4431071Y-11194786D01*
X4431071Y-11147167D01*
X4440595Y-11109071D01*
X4450119Y-11090024D01*
X4459643Y-11080500D01*
X4478690Y-11070976D01*
X4735833Y-11270976D02*
X4621548Y-11270976D01*
X4678690Y-11270976D02*
X4678690Y-11070976D01*
X4659643Y-11099548D01*
X4640595Y-11118595D01*
X4621548Y-11128119D01*
X4916786Y-11070976D02*
X4821548Y-11070976D01*
X4812024Y-11166214D01*
X4821548Y-11156690D01*
X4840595Y-11147167D01*
X4888214Y-11147167D01*
X4907262Y-11156690D01*
X4916786Y-11166214D01*
X4926310Y-11185262D01*
X4926310Y-11232881D01*
X4916786Y-11251928D01*
X4907262Y-11261452D01*
X4888214Y-11270976D01*
X4840595Y-11270976D01*
X4821548Y-11261452D01*
X4812024Y-11251928D01*
X4992976Y-11070976D02*
X5126310Y-11070976D01*
X5040595Y-11270976D01*
X5192976Y-11070976D02*
X5192976Y-11109071D01*
X5269167Y-11070976D02*
X5269167Y-11109071D01*
X5564405Y-11347167D02*
X5554881Y-11337643D01*
X5535833Y-11309071D01*
X5526310Y-11290024D01*
X5516786Y-11261452D01*
X5507262Y-11213833D01*
X5507262Y-11175738D01*
X5516786Y-11128119D01*
X5526310Y-11099548D01*
X5535833Y-11080500D01*
X5554881Y-11051929D01*
X5564405Y-11042405D01*
X5745357Y-11270976D02*
X5631071Y-11270976D01*
X5688214Y-11270976D02*
X5688214Y-11070976D01*
X5669167Y-11099548D01*
X5650119Y-11118595D01*
X5631071Y-11128119D01*
X5859643Y-11156690D02*
X5840595Y-11147167D01*
X5831071Y-11137643D01*
X5821548Y-11118595D01*
X5821548Y-11109071D01*
X5831071Y-11090024D01*
X5840595Y-11080500D01*
X5859643Y-11070976D01*
X5897738Y-11070976D01*
X5916786Y-11080500D01*
X5926309Y-11090024D01*
X5935833Y-11109071D01*
X5935833Y-11118595D01*
X5926309Y-11137643D01*
X5916786Y-11147167D01*
X5897738Y-11156690D01*
X5859643Y-11156690D01*
X5840595Y-11166214D01*
X5831071Y-11175738D01*
X5821548Y-11194786D01*
X5821548Y-11232881D01*
X5831071Y-11251928D01*
X5840595Y-11261452D01*
X5859643Y-11270976D01*
X5897738Y-11270976D01*
X5916786Y-11261452D01*
X5926309Y-11251928D01*
X5935833Y-11232881D01*
X5935833Y-11194786D01*
X5926309Y-11175738D01*
X5916786Y-11166214D01*
X5897738Y-11156690D01*
X6173928Y-11270976D02*
X6173928Y-11070976D01*
X6259643Y-11270976D02*
X6259643Y-11166214D01*
X6250119Y-11147167D01*
X6231071Y-11137643D01*
X6202500Y-11137643D01*
X6183452Y-11147167D01*
X6173928Y-11156690D01*
X6383452Y-11270976D02*
X6364405Y-11261452D01*
X6354881Y-11251928D01*
X6345357Y-11232881D01*
X6345357Y-11175738D01*
X6354881Y-11156690D01*
X6364405Y-11147167D01*
X6383452Y-11137643D01*
X6412024Y-11137643D01*
X6431071Y-11147167D01*
X6440595Y-11156690D01*
X6450119Y-11175738D01*
X6450119Y-11232881D01*
X6440595Y-11251928D01*
X6431071Y-11261452D01*
X6412024Y-11270976D01*
X6383452Y-11270976D01*
X6564405Y-11270976D02*
X6545357Y-11261452D01*
X6535833Y-11242405D01*
X6535833Y-11070976D01*
X6716786Y-11261452D02*
X6697738Y-11270976D01*
X6659643Y-11270976D01*
X6640595Y-11261452D01*
X6631071Y-11242405D01*
X6631071Y-11166214D01*
X6640595Y-11147167D01*
X6659643Y-11137643D01*
X6697738Y-11137643D01*
X6716786Y-11147167D01*
X6726309Y-11166214D01*
X6726309Y-11185262D01*
X6631071Y-11204309D01*
X6802500Y-11261452D02*
X6821548Y-11270976D01*
X6859643Y-11270976D01*
X6878690Y-11261452D01*
X6888214Y-11242405D01*
X6888214Y-11232881D01*
X6878690Y-11213833D01*
X6859643Y-11204309D01*
X6831071Y-11204309D01*
X6812024Y-11194786D01*
X6802500Y-11175738D01*
X6802500Y-11166214D01*
X6812024Y-11147167D01*
X6831071Y-11137643D01*
X6859643Y-11137643D01*
X6878690Y-11147167D01*
X6954881Y-11347167D02*
X6964405Y-11337643D01*
X6983452Y-11309071D01*
X6992976Y-11290024D01*
X7002500Y-11261452D01*
X7012024Y-11213833D01*
X7012024Y-11175738D01*
X7002500Y-11128119D01*
X6992976Y-11099548D01*
X6983452Y-11080500D01*
X6964405Y-11051929D01*
X6954881Y-11042405D01*
D13*
X1992500Y-11444500D02*
G75*
G03*
X1992500Y-11444500I-40000J0D01*
G01*
D11*
X2288214Y-11334976D02*
X2307262Y-11334976D01*
X2326310Y-11344500D01*
X2335833Y-11354024D01*
X2345357Y-11373071D01*
X2354881Y-11411167D01*
X2354881Y-11458786D01*
X2345357Y-11496881D01*
X2335833Y-11515928D01*
X2326310Y-11525452D01*
X2307262Y-11534976D01*
X2288214Y-11534976D01*
X2269167Y-11525452D01*
X2259643Y-11515928D01*
X2250119Y-11496881D01*
X2240595Y-11458786D01*
X2240595Y-11411167D01*
X2250119Y-11373071D01*
X2259643Y-11354024D01*
X2269167Y-11344500D01*
X2288214Y-11334976D01*
X2440595Y-11515928D02*
X2450119Y-11525452D01*
X2440595Y-11534976D01*
X2431071Y-11525452D01*
X2440595Y-11515928D01*
X2440595Y-11534976D01*
X2564405Y-11420690D02*
X2545357Y-11411167D01*
X2535833Y-11401643D01*
X2526310Y-11382595D01*
X2526310Y-11373071D01*
X2535833Y-11354024D01*
X2545357Y-11344500D01*
X2564405Y-11334976D01*
X2602500Y-11334976D01*
X2621548Y-11344500D01*
X2631071Y-11354024D01*
X2640595Y-11373071D01*
X2640595Y-11382595D01*
X2631071Y-11401643D01*
X2621548Y-11411167D01*
X2602500Y-11420690D01*
X2564405Y-11420690D01*
X2545357Y-11430214D01*
X2535833Y-11439738D01*
X2526310Y-11458786D01*
X2526310Y-11496881D01*
X2535833Y-11515928D01*
X2545357Y-11525452D01*
X2564405Y-11534976D01*
X2602500Y-11534976D01*
X2621548Y-11525452D01*
X2631071Y-11515928D01*
X2640595Y-11496881D01*
X2640595Y-11458786D01*
X2631071Y-11439738D01*
X2621548Y-11430214D01*
X2602500Y-11420690D01*
X2764405Y-11334976D02*
X2783452Y-11334976D01*
X2802500Y-11344500D01*
X2812024Y-11354024D01*
X2821548Y-11373071D01*
X2831071Y-11411167D01*
X2831071Y-11458786D01*
X2821548Y-11496881D01*
X2812024Y-11515928D01*
X2802500Y-11525452D01*
X2783452Y-11534976D01*
X2764405Y-11534976D01*
X2745357Y-11525452D01*
X2735833Y-11515928D01*
X2726310Y-11496881D01*
X2716786Y-11458786D01*
X2716786Y-11411167D01*
X2726310Y-11373071D01*
X2735833Y-11354024D01*
X2745357Y-11344500D01*
X2764405Y-11334976D01*
X2954881Y-11334976D02*
X2973928Y-11334976D01*
X2992976Y-11344500D01*
X3002500Y-11354024D01*
X3012024Y-11373071D01*
X3021548Y-11411167D01*
X3021548Y-11458786D01*
X3012024Y-11496881D01*
X3002500Y-11515928D01*
X2992976Y-11525452D01*
X2973928Y-11534976D01*
X2954881Y-11534976D01*
X2935833Y-11525452D01*
X2926309Y-11515928D01*
X2916786Y-11496881D01*
X2907262Y-11458786D01*
X2907262Y-11411167D01*
X2916786Y-11373071D01*
X2926309Y-11354024D01*
X2935833Y-11344500D01*
X2954881Y-11334976D01*
X3107262Y-11534976D02*
X3107262Y-11401643D01*
X3107262Y-11420690D02*
X3116786Y-11411167D01*
X3135833Y-11401643D01*
X3164405Y-11401643D01*
X3183452Y-11411167D01*
X3192976Y-11430214D01*
X3192976Y-11534976D01*
X3192976Y-11430214D02*
X3202500Y-11411167D01*
X3221548Y-11401643D01*
X3250119Y-11401643D01*
X3269167Y-11411167D01*
X3278690Y-11430214D01*
X3278690Y-11534976D01*
X3373928Y-11534976D02*
X3373928Y-11401643D01*
X3373928Y-11420690D02*
X3383452Y-11411167D01*
X3402500Y-11401643D01*
X3431071Y-11401643D01*
X3450119Y-11411167D01*
X3459643Y-11430214D01*
X3459643Y-11534976D01*
X3459643Y-11430214D02*
X3469167Y-11411167D01*
X3488214Y-11401643D01*
X3516786Y-11401643D01*
X3535833Y-11411167D01*
X3545357Y-11430214D01*
X3545357Y-11534976D01*
X3935833Y-11325452D02*
X3764405Y-11582595D01*
X4192976Y-11334976D02*
X4212024Y-11334976D01*
X4231071Y-11344500D01*
X4240595Y-11354024D01*
X4250119Y-11373071D01*
X4259643Y-11411167D01*
X4259643Y-11458786D01*
X4250119Y-11496881D01*
X4240595Y-11515928D01*
X4231071Y-11525452D01*
X4212024Y-11534976D01*
X4192976Y-11534976D01*
X4173928Y-11525452D01*
X4164405Y-11515928D01*
X4154881Y-11496881D01*
X4145357Y-11458786D01*
X4145357Y-11411167D01*
X4154881Y-11373071D01*
X4164405Y-11354024D01*
X4173928Y-11344500D01*
X4192976Y-11334976D01*
X4345357Y-11515928D02*
X4354881Y-11525452D01*
X4345357Y-11534976D01*
X4335833Y-11525452D01*
X4345357Y-11515928D01*
X4345357Y-11534976D01*
X4478690Y-11334976D02*
X4497738Y-11334976D01*
X4516786Y-11344500D01*
X4526310Y-11354024D01*
X4535833Y-11373071D01*
X4545357Y-11411167D01*
X4545357Y-11458786D01*
X4535833Y-11496881D01*
X4526310Y-11515928D01*
X4516786Y-11525452D01*
X4497738Y-11534976D01*
X4478690Y-11534976D01*
X4459643Y-11525452D01*
X4450119Y-11515928D01*
X4440595Y-11496881D01*
X4431071Y-11458786D01*
X4431071Y-11411167D01*
X4440595Y-11373071D01*
X4450119Y-11354024D01*
X4459643Y-11344500D01*
X4478690Y-11334976D01*
X4612024Y-11334976D02*
X4735833Y-11334976D01*
X4669167Y-11411167D01*
X4697738Y-11411167D01*
X4716786Y-11420690D01*
X4726310Y-11430214D01*
X4735833Y-11449262D01*
X4735833Y-11496881D01*
X4726310Y-11515928D01*
X4716786Y-11525452D01*
X4697738Y-11534976D01*
X4640595Y-11534976D01*
X4621548Y-11525452D01*
X4612024Y-11515928D01*
X4926310Y-11534976D02*
X4812024Y-11534976D01*
X4869167Y-11534976D02*
X4869167Y-11334976D01*
X4850119Y-11363548D01*
X4831071Y-11382595D01*
X4812024Y-11392119D01*
X5107262Y-11334976D02*
X5012024Y-11334976D01*
X5002500Y-11430214D01*
X5012024Y-11420690D01*
X5031071Y-11411167D01*
X5078690Y-11411167D01*
X5097738Y-11420690D01*
X5107262Y-11430214D01*
X5116786Y-11449262D01*
X5116786Y-11496881D01*
X5107262Y-11515928D01*
X5097738Y-11525452D01*
X5078690Y-11534976D01*
X5031071Y-11534976D01*
X5012024Y-11525452D01*
X5002500Y-11515928D01*
X5192976Y-11334976D02*
X5192976Y-11373071D01*
X5269167Y-11334976D02*
X5269167Y-11373071D01*
X5564405Y-11611167D02*
X5554881Y-11601643D01*
X5535833Y-11573071D01*
X5526310Y-11554024D01*
X5516786Y-11525452D01*
X5507262Y-11477833D01*
X5507262Y-11439738D01*
X5516786Y-11392119D01*
X5526310Y-11363548D01*
X5535833Y-11344500D01*
X5554881Y-11315928D01*
X5564405Y-11306405D01*
X5650119Y-11534976D02*
X5688214Y-11534976D01*
X5707262Y-11525452D01*
X5716786Y-11515928D01*
X5735833Y-11487357D01*
X5745357Y-11449262D01*
X5745357Y-11373071D01*
X5735833Y-11354024D01*
X5726309Y-11344500D01*
X5707262Y-11334976D01*
X5669167Y-11334976D01*
X5650119Y-11344500D01*
X5640595Y-11354024D01*
X5631071Y-11373071D01*
X5631071Y-11420690D01*
X5640595Y-11439738D01*
X5650119Y-11449262D01*
X5669167Y-11458786D01*
X5707262Y-11458786D01*
X5726309Y-11449262D01*
X5735833Y-11439738D01*
X5745357Y-11420690D01*
X5859643Y-11420690D02*
X5840595Y-11411167D01*
X5831071Y-11401643D01*
X5821548Y-11382595D01*
X5821548Y-11373071D01*
X5831071Y-11354024D01*
X5840595Y-11344500D01*
X5859643Y-11334976D01*
X5897738Y-11334976D01*
X5916786Y-11344500D01*
X5926309Y-11354024D01*
X5935833Y-11373071D01*
X5935833Y-11382595D01*
X5926309Y-11401643D01*
X5916786Y-11411167D01*
X5897738Y-11420690D01*
X5859643Y-11420690D01*
X5840595Y-11430214D01*
X5831071Y-11439738D01*
X5821548Y-11458786D01*
X5821548Y-11496881D01*
X5831071Y-11515928D01*
X5840595Y-11525452D01*
X5859643Y-11534976D01*
X5897738Y-11534976D01*
X5916786Y-11525452D01*
X5926309Y-11515928D01*
X5935833Y-11496881D01*
X5935833Y-11458786D01*
X5926309Y-11439738D01*
X5916786Y-11430214D01*
X5897738Y-11420690D01*
X6173928Y-11534976D02*
X6173928Y-11334976D01*
X6259643Y-11534976D02*
X6259643Y-11430214D01*
X6250119Y-11411167D01*
X6231071Y-11401643D01*
X6202500Y-11401643D01*
X6183452Y-11411167D01*
X6173928Y-11420690D01*
X6383452Y-11534976D02*
X6364405Y-11525452D01*
X6354881Y-11515928D01*
X6345357Y-11496881D01*
X6345357Y-11439738D01*
X6354881Y-11420690D01*
X6364405Y-11411167D01*
X6383452Y-11401643D01*
X6412024Y-11401643D01*
X6431071Y-11411167D01*
X6440595Y-11420690D01*
X6450119Y-11439738D01*
X6450119Y-11496881D01*
X6440595Y-11515928D01*
X6431071Y-11525452D01*
X6412024Y-11534976D01*
X6383452Y-11534976D01*
X6564405Y-11534976D02*
X6545357Y-11525452D01*
X6535833Y-11506405D01*
X6535833Y-11334976D01*
X6716786Y-11525452D02*
X6697738Y-11534976D01*
X6659643Y-11534976D01*
X6640595Y-11525452D01*
X6631071Y-11506405D01*
X6631071Y-11430214D01*
X6640595Y-11411167D01*
X6659643Y-11401643D01*
X6697738Y-11401643D01*
X6716786Y-11411167D01*
X6726309Y-11430214D01*
X6726309Y-11449262D01*
X6631071Y-11468309D01*
X6802500Y-11525452D02*
X6821548Y-11534976D01*
X6859643Y-11534976D01*
X6878690Y-11525452D01*
X6888214Y-11506405D01*
X6888214Y-11496881D01*
X6878690Y-11477833D01*
X6859643Y-11468309D01*
X6831071Y-11468309D01*
X6812024Y-11458786D01*
X6802500Y-11439738D01*
X6802500Y-11430214D01*
X6812024Y-11411167D01*
X6831071Y-11401643D01*
X6859643Y-11401643D01*
X6878690Y-11411167D01*
X6954881Y-11611167D02*
X6964405Y-11601643D01*
X6983452Y-11573071D01*
X6992976Y-11554024D01*
X7002500Y-11525452D01*
X7012024Y-11477833D01*
X7012024Y-11439738D01*
X7002500Y-11392119D01*
X6992976Y-11363548D01*
X6983452Y-11344500D01*
X6964405Y-11315928D01*
X6954881Y-11306405D01*
D14*
X1942500Y-11658500D02*
X1942500Y-11758500D01*
X1892500Y-11708500D02*
X1992500Y-11708500D01*
D11*
X2354881Y-11798976D02*
X2240595Y-11798976D01*
X2297738Y-11798976D02*
X2297738Y-11598976D01*
X2278690Y-11627548D01*
X2259643Y-11646595D01*
X2240595Y-11656119D01*
X2440595Y-11779928D02*
X2450119Y-11789452D01*
X2440595Y-11798976D01*
X2431071Y-11789452D01*
X2440595Y-11779928D01*
X2440595Y-11798976D01*
X2573929Y-11598976D02*
X2592976Y-11598976D01*
X2612024Y-11608500D01*
X2621548Y-11618024D01*
X2631071Y-11637071D01*
X2640595Y-11675167D01*
X2640595Y-11722786D01*
X2631071Y-11760881D01*
X2621548Y-11779928D01*
X2612024Y-11789452D01*
X2592976Y-11798976D01*
X2573929Y-11798976D01*
X2554881Y-11789452D01*
X2545357Y-11779928D01*
X2535833Y-11760881D01*
X2526310Y-11722786D01*
X2526310Y-11675167D01*
X2535833Y-11637071D01*
X2545357Y-11618024D01*
X2554881Y-11608500D01*
X2573929Y-11598976D01*
X2764405Y-11598976D02*
X2783452Y-11598976D01*
X2802500Y-11608500D01*
X2812024Y-11618024D01*
X2821548Y-11637071D01*
X2831071Y-11675167D01*
X2831071Y-11722786D01*
X2821548Y-11760881D01*
X2812024Y-11779928D01*
X2802500Y-11789452D01*
X2783452Y-11798976D01*
X2764405Y-11798976D01*
X2745357Y-11789452D01*
X2735833Y-11779928D01*
X2726310Y-11760881D01*
X2716786Y-11722786D01*
X2716786Y-11675167D01*
X2726310Y-11637071D01*
X2735833Y-11618024D01*
X2745357Y-11608500D01*
X2764405Y-11598976D01*
X2954881Y-11598976D02*
X2973928Y-11598976D01*
X2992976Y-11608500D01*
X3002500Y-11618024D01*
X3012024Y-11637071D01*
X3021548Y-11675167D01*
X3021548Y-11722786D01*
X3012024Y-11760881D01*
X3002500Y-11779928D01*
X2992976Y-11789452D01*
X2973928Y-11798976D01*
X2954881Y-11798976D01*
X2935833Y-11789452D01*
X2926309Y-11779928D01*
X2916786Y-11760881D01*
X2907262Y-11722786D01*
X2907262Y-11675167D01*
X2916786Y-11637071D01*
X2926309Y-11618024D01*
X2935833Y-11608500D01*
X2954881Y-11598976D01*
X3107262Y-11798976D02*
X3107262Y-11665643D01*
X3107262Y-11684690D02*
X3116786Y-11675167D01*
X3135833Y-11665643D01*
X3164405Y-11665643D01*
X3183452Y-11675167D01*
X3192976Y-11694214D01*
X3192976Y-11798976D01*
X3192976Y-11694214D02*
X3202500Y-11675167D01*
X3221548Y-11665643D01*
X3250119Y-11665643D01*
X3269167Y-11675167D01*
X3278690Y-11694214D01*
X3278690Y-11798976D01*
X3373928Y-11798976D02*
X3373928Y-11665643D01*
X3373928Y-11684690D02*
X3383452Y-11675167D01*
X3402500Y-11665643D01*
X3431071Y-11665643D01*
X3450119Y-11675167D01*
X3459643Y-11694214D01*
X3459643Y-11798976D01*
X3459643Y-11694214D02*
X3469167Y-11675167D01*
X3488214Y-11665643D01*
X3516786Y-11665643D01*
X3535833Y-11675167D01*
X3545357Y-11694214D01*
X3545357Y-11798976D01*
X3935833Y-11589452D02*
X3764405Y-11846595D01*
X4192976Y-11598976D02*
X4212024Y-11598976D01*
X4231071Y-11608500D01*
X4240595Y-11618024D01*
X4250119Y-11637071D01*
X4259643Y-11675167D01*
X4259643Y-11722786D01*
X4250119Y-11760881D01*
X4240595Y-11779928D01*
X4231071Y-11789452D01*
X4212024Y-11798976D01*
X4192976Y-11798976D01*
X4173928Y-11789452D01*
X4164405Y-11779928D01*
X4154881Y-11760881D01*
X4145357Y-11722786D01*
X4145357Y-11675167D01*
X4154881Y-11637071D01*
X4164405Y-11618024D01*
X4173928Y-11608500D01*
X4192976Y-11598976D01*
X4345357Y-11779928D02*
X4354881Y-11789452D01*
X4345357Y-11798976D01*
X4335833Y-11789452D01*
X4345357Y-11779928D01*
X4345357Y-11798976D01*
X4478690Y-11598976D02*
X4497738Y-11598976D01*
X4516786Y-11608500D01*
X4526310Y-11618024D01*
X4535833Y-11637071D01*
X4545357Y-11675167D01*
X4545357Y-11722786D01*
X4535833Y-11760881D01*
X4526310Y-11779928D01*
X4516786Y-11789452D01*
X4497738Y-11798976D01*
X4478690Y-11798976D01*
X4459643Y-11789452D01*
X4450119Y-11779928D01*
X4440595Y-11760881D01*
X4431071Y-11722786D01*
X4431071Y-11675167D01*
X4440595Y-11637071D01*
X4450119Y-11618024D01*
X4459643Y-11608500D01*
X4478690Y-11598976D01*
X4612024Y-11598976D02*
X4735833Y-11598976D01*
X4669167Y-11675167D01*
X4697738Y-11675167D01*
X4716786Y-11684690D01*
X4726310Y-11694214D01*
X4735833Y-11713262D01*
X4735833Y-11760881D01*
X4726310Y-11779928D01*
X4716786Y-11789452D01*
X4697738Y-11798976D01*
X4640595Y-11798976D01*
X4621548Y-11789452D01*
X4612024Y-11779928D01*
X4831071Y-11798976D02*
X4869167Y-11798976D01*
X4888214Y-11789452D01*
X4897738Y-11779928D01*
X4916786Y-11751357D01*
X4926310Y-11713262D01*
X4926310Y-11637071D01*
X4916786Y-11618024D01*
X4907262Y-11608500D01*
X4888214Y-11598976D01*
X4850119Y-11598976D01*
X4831071Y-11608500D01*
X4821548Y-11618024D01*
X4812024Y-11637071D01*
X4812024Y-11684690D01*
X4821548Y-11703738D01*
X4831071Y-11713262D01*
X4850119Y-11722786D01*
X4888214Y-11722786D01*
X4907262Y-11713262D01*
X4916786Y-11703738D01*
X4926310Y-11684690D01*
X5097738Y-11665643D02*
X5097738Y-11798976D01*
X5050119Y-11589452D02*
X5002500Y-11732309D01*
X5126310Y-11732309D01*
X5192976Y-11598976D02*
X5192976Y-11637071D01*
X5269167Y-11598976D02*
X5269167Y-11637071D01*
X5564405Y-11875167D02*
X5554881Y-11865643D01*
X5535833Y-11837071D01*
X5526310Y-11818024D01*
X5516786Y-11789452D01*
X5507262Y-11741833D01*
X5507262Y-11703738D01*
X5516786Y-11656119D01*
X5526310Y-11627548D01*
X5535833Y-11608500D01*
X5554881Y-11579928D01*
X5564405Y-11570405D01*
X5745357Y-11798976D02*
X5631071Y-11798976D01*
X5688214Y-11798976D02*
X5688214Y-11598976D01*
X5669167Y-11627548D01*
X5650119Y-11646595D01*
X5631071Y-11656119D01*
X5840595Y-11798976D02*
X5878690Y-11798976D01*
X5897738Y-11789452D01*
X5907262Y-11779928D01*
X5926309Y-11751357D01*
X5935833Y-11713262D01*
X5935833Y-11637071D01*
X5926309Y-11618024D01*
X5916786Y-11608500D01*
X5897738Y-11598976D01*
X5859643Y-11598976D01*
X5840595Y-11608500D01*
X5831071Y-11618024D01*
X5821548Y-11637071D01*
X5821548Y-11684690D01*
X5831071Y-11703738D01*
X5840595Y-11713262D01*
X5859643Y-11722786D01*
X5897738Y-11722786D01*
X5916786Y-11713262D01*
X5926309Y-11703738D01*
X5935833Y-11684690D01*
X6107262Y-11598976D02*
X6069167Y-11598976D01*
X6050119Y-11608500D01*
X6040595Y-11618024D01*
X6021548Y-11646595D01*
X6012024Y-11684690D01*
X6012024Y-11760881D01*
X6021548Y-11779928D01*
X6031071Y-11789452D01*
X6050119Y-11798976D01*
X6088214Y-11798976D01*
X6107262Y-11789452D01*
X6116786Y-11779928D01*
X6126309Y-11760881D01*
X6126309Y-11713262D01*
X6116786Y-11694214D01*
X6107262Y-11684690D01*
X6088214Y-11675167D01*
X6050119Y-11675167D01*
X6031071Y-11684690D01*
X6021548Y-11694214D01*
X6012024Y-11713262D01*
X6364405Y-11798976D02*
X6364405Y-11598976D01*
X6450119Y-11798976D02*
X6450119Y-11694214D01*
X6440595Y-11675167D01*
X6421548Y-11665643D01*
X6392976Y-11665643D01*
X6373928Y-11675167D01*
X6364405Y-11684690D01*
X6573928Y-11798976D02*
X6554881Y-11789452D01*
X6545357Y-11779928D01*
X6535833Y-11760881D01*
X6535833Y-11703738D01*
X6545357Y-11684690D01*
X6554881Y-11675167D01*
X6573928Y-11665643D01*
X6602500Y-11665643D01*
X6621548Y-11675167D01*
X6631071Y-11684690D01*
X6640595Y-11703738D01*
X6640595Y-11760881D01*
X6631071Y-11779928D01*
X6621548Y-11789452D01*
X6602500Y-11798976D01*
X6573928Y-11798976D01*
X6754881Y-11798976D02*
X6735833Y-11789452D01*
X6726309Y-11770405D01*
X6726309Y-11598976D01*
X6907262Y-11789452D02*
X6888214Y-11798976D01*
X6850119Y-11798976D01*
X6831071Y-11789452D01*
X6821548Y-11770405D01*
X6821548Y-11694214D01*
X6831071Y-11675167D01*
X6850119Y-11665643D01*
X6888214Y-11665643D01*
X6907262Y-11675167D01*
X6916786Y-11694214D01*
X6916786Y-11713262D01*
X6821548Y-11732309D01*
X6992976Y-11789452D02*
X7012024Y-11798976D01*
X7050119Y-11798976D01*
X7069167Y-11789452D01*
X7078690Y-11770405D01*
X7078690Y-11760881D01*
X7069167Y-11741833D01*
X7050119Y-11732309D01*
X7021548Y-11732309D01*
X7002500Y-11722786D01*
X6992976Y-11703738D01*
X6992976Y-11694214D01*
X7002500Y-11675167D01*
X7021548Y-11665643D01*
X7050119Y-11665643D01*
X7069167Y-11675167D01*
X7145357Y-11875167D02*
X7154881Y-11865643D01*
X7173928Y-11837071D01*
X7183452Y-11818024D01*
X7192976Y-11789452D01*
X7202500Y-11741833D01*
X7202500Y-11703738D01*
X7192976Y-11656119D01*
X7183452Y-11627548D01*
X7173928Y-11608500D01*
X7154881Y-11579928D01*
X7145357Y-11570405D01*
M02*
